<?xml version="1.0" encoding="UTF-8"?>
<svg version="1.1" xmlns="http://www.w3.org/2000/svg" width="130" height="130">
<path d="M0 0 C0.85049927 -0.0004985 1.70099854 -0.00099701 2.57727051 -0.00151062 C4.37266378 0.00082638 6.16806055 0.01053288 7.96337891 0.02709961 C10.70895739 0.05069709 13.45356456 0.04765715 16.19921875 0.04101562 C17.94531828 0.04659259 19.69141373 0.05370258 21.4375 0.0625 C22.25738403 0.06158859 23.07726807 0.06067719 23.92199707 0.05973816 C31.1324586 0.14927767 31.1324586 0.14927767 34.21875 2.36328125 C35.44921875 4.203125 35.44921875 4.203125 36.40625 6.30078125 C36.89158203 7.33525391 36.89158203 7.33525391 37.38671875 8.390625 C38.73996475 11.59902514 39.34631145 14.15886036 39.36592102 17.61172485 C39.37307632 18.47791443 39.38023163 19.344104 39.38760376 20.23654175 C39.39029266 21.18409332 39.39298157 22.1316449 39.39575195 23.10791016 C39.40560875 24.60843933 39.40560875 24.60843933 39.41566467 26.13928223 C39.43540464 29.45613682 39.44706322 32.77294607 39.45703125 36.08984375 C39.46110678 37.22324566 39.4651823 38.35664757 39.46938133 39.52439499 C39.49024722 45.52586434 39.50454549 51.52731081 39.51391602 57.52880859 C39.52496829 63.7192973 39.55935346 69.90942535 39.59908772 76.09978676 C39.6252731 80.8662888 39.6336097 85.63270528 39.63719749 90.39927292 C39.64206016 92.68055018 39.65366492 94.9618237 39.67223549 97.24303055 C39.69666208 100.44306972 39.69565486 103.6421807 39.6887207 106.84228516 C39.70153076 107.77769135 39.71434082 108.71309753 39.72753906 109.67684937 C39.6692486 117.09017905 37.94968364 123.23639842 33.0078125 128.89477539 C29.13582702 130.93346522 25.90947332 130.92076795 21.59375 130.859375 C20.7692334 130.86083023 19.9447168 130.86228546 19.09521484 130.86378479 C17.3570603 130.86212946 15.61889054 130.85060919 13.88085938 130.82983398 C11.22722832 130.80087378 8.57559628 130.80923308 5.921875 130.82226562 C4.229157 130.81602767 2.53644529 130.80763628 0.84375 130.796875 C0.05403809 130.79981064 -0.73567383 130.80274628 -1.54931641 130.80577087 C-6.14079482 130.72752116 -9.30633575 130.46407432 -12.78125 127.36328125 C-16.89781964 121.35119397 -17.35836353 115.78955833 -17.29882812 108.66796875 C-17.3058374 107.62626526 -17.31284668 106.58456177 -17.32006836 105.5112915 C-17.33759459 102.08667919 -17.32604408 98.66290118 -17.3125 95.23828125 C-17.31519644 92.84749189 -17.31908013 90.45670359 -17.32409668 88.06591797 C-17.32998448 83.06271899 -17.32145153 78.05980625 -17.30273438 73.05664062 C-17.27994575 66.65425835 -17.29307262 60.25254689 -17.31702423 53.85018921 C-17.33150133 48.91555762 -17.32686734 43.98108419 -17.31651306 39.04644775 C-17.31385109 36.68621745 -17.31709683 34.32597263 -17.32643127 31.96575928 C-17.33662792 28.66298568 -17.32105086 25.36128757 -17.29882812 22.05859375 C-17.30692505 21.09004456 -17.31502197 20.12149536 -17.32336426 19.12359619 C-17.23627852 12.11179506 -15.70569279 6.76240039 -11.08007812 1.38598633 C-7.47830198 -0.21637564 -3.86843029 -0.04345403 0 0 Z " fill="#141414" transform="translate(90.78125,-0.36328125)"/>
<path d="M0 0 C0.85049927 -0.0004985 1.70099854 -0.00099701 2.57727051 -0.00151062 C4.37266378 0.00082638 6.16806055 0.01053288 7.96337891 0.02709961 C10.70895739 0.05069709 13.45356456 0.04765715 16.19921875 0.04101562 C17.94531828 0.04659259 19.69141373 0.05370258 21.4375 0.0625 C22.25738403 0.06158859 23.07726807 0.06067719 23.92199707 0.05973816 C31.1324586 0.14927767 31.1324586 0.14927767 34.21875 2.36328125 C35.44921875 4.203125 35.44921875 4.203125 36.40625 6.30078125 C36.89158203 7.33525391 36.89158203 7.33525391 37.38671875 8.390625 C38.73996475 11.59902514 39.34631145 14.15886036 39.36592102 17.61172485 C39.37307632 18.47791443 39.38023163 19.344104 39.38760376 20.23654175 C39.39029266 21.18409332 39.39298157 22.1316449 39.39575195 23.10791016 C39.40560875 24.60843933 39.40560875 24.60843933 39.41566467 26.13928223 C39.43540464 29.45613682 39.44706322 32.77294607 39.45703125 36.08984375 C39.46110678 37.22324566 39.4651823 38.35664757 39.46938133 39.52439499 C39.49024722 45.52586434 39.50454549 51.52731081 39.51391602 57.52880859 C39.52496829 63.7192973 39.55935346 69.90942535 39.59908772 76.09978676 C39.6252731 80.8662888 39.6336097 85.63270528 39.63719749 90.39927292 C39.64206016 92.68055018 39.65366492 94.9618237 39.67223549 97.24303055 C39.69666208 100.44306972 39.69565486 103.6421807 39.6887207 106.84228516 C39.70153076 107.77769135 39.71434082 108.71309753 39.72753906 109.67684937 C39.6692486 117.09017905 37.94968364 123.23639842 33.0078125 128.89477539 C29.13582702 130.93346522 25.90947332 130.92076795 21.59375 130.859375 C20.7692334 130.86083023 19.9447168 130.86228546 19.09521484 130.86378479 C17.3570603 130.86212946 15.61889054 130.85060919 13.88085938 130.82983398 C11.22722832 130.80087378 8.57559628 130.80923308 5.921875 130.82226562 C4.229157 130.81602767 2.53644529 130.80763628 0.84375 130.796875 C0.05403809 130.79981064 -0.73567383 130.80274628 -1.54931641 130.80577087 C-6.14079482 130.72752116 -9.30633575 130.46407432 -12.78125 127.36328125 C-16.89781964 121.35119397 -17.35836353 115.78955833 -17.29882812 108.66796875 C-17.3058374 107.62626526 -17.31284668 106.58456177 -17.32006836 105.5112915 C-17.33759459 102.08667919 -17.32604408 98.66290118 -17.3125 95.23828125 C-17.31519644 92.84749189 -17.31908013 90.45670359 -17.32409668 88.06591797 C-17.32998448 83.06271899 -17.32145153 78.05980625 -17.30273438 73.05664062 C-17.27994575 66.65425835 -17.29307262 60.25254689 -17.31702423 53.85018921 C-17.33150133 48.91555762 -17.32686734 43.98108419 -17.31651306 39.04644775 C-17.31385109 36.68621745 -17.31709683 34.32597263 -17.32643127 31.96575928 C-17.33662792 28.66298568 -17.32105086 25.36128757 -17.29882812 22.05859375 C-17.30692505 21.09004456 -17.31502197 20.12149536 -17.32336426 19.12359619 C-17.23627852 12.11179506 -15.70569279 6.76240039 -11.08007812 1.38598633 C-7.47830198 -0.21637564 -3.86843029 -0.04345403 0 0 Z " fill="#141414" transform="translate(16.78125,-0.36328125)"/>
<path d="M0 0 C0.85049927 -0.0004985 1.70099854 -0.00099701 2.57727051 -0.00151062 C4.37266378 0.00082638 6.16806055 0.01053288 7.96337891 0.02709961 C10.70895739 0.05069709 13.45356456 0.04765715 16.19921875 0.04101562 C17.94531828 0.04659259 19.69141373 0.05370258 21.4375 0.0625 C22.25738403 0.06158859 23.07726807 0.06067719 23.92199707 0.05973816 C31.1324586 0.14927767 31.1324586 0.14927767 34.21875 2.36328125 C35.44921875 4.203125 35.44921875 4.203125 36.40625 6.30078125 C36.89158203 7.33525391 36.89158203 7.33525391 37.38671875 8.390625 C38.73996475 11.59902514 39.34631145 14.15886036 39.36592102 17.61172485 C39.37307632 18.47791443 39.38023163 19.344104 39.38760376 20.23654175 C39.39029266 21.18409332 39.39298157 22.1316449 39.39575195 23.10791016 C39.40560875 24.60843933 39.40560875 24.60843933 39.41566467 26.13928223 C39.43540464 29.45613682 39.44706322 32.77294607 39.45703125 36.08984375 C39.46110678 37.22324566 39.4651823 38.35664757 39.46938133 39.52439499 C39.49024722 45.52586434 39.50454549 51.52731081 39.51391602 57.52880859 C39.52496829 63.7192973 39.55935346 69.90942535 39.59908772 76.09978676 C39.6252731 80.8662888 39.6336097 85.63270528 39.63719749 90.39927292 C39.64206016 92.68055018 39.65366492 94.9618237 39.67223549 97.24303055 C39.69666208 100.44306972 39.69565486 103.6421807 39.6887207 106.84228516 C39.70153076 107.77769135 39.71434082 108.71309753 39.72753906 109.67684937 C39.6692486 117.09017905 37.94968364 123.23639842 33.0078125 128.89477539 C29.13582702 130.93346522 25.90947332 130.92076795 21.59375 130.859375 C20.7692334 130.86083023 19.9447168 130.86228546 19.09521484 130.86378479 C17.3570603 130.86212946 15.61889054 130.85060919 13.88085938 130.82983398 C11.22722832 130.80087378 8.57559628 130.80923308 5.921875 130.82226562 C4.229157 130.81602767 2.53644529 130.80763628 0.84375 130.796875 C0.05403809 130.79981064 -0.73567383 130.80274628 -1.54931641 130.80577087 C-6.14079482 130.72752116 -9.30633575 130.46407432 -12.78125 127.36328125 C-16.89781964 121.35119397 -17.35836353 115.78955833 -17.29882812 108.66796875 C-17.3058374 107.62626526 -17.31284668 106.58456177 -17.32006836 105.5112915 C-17.33759459 102.08667919 -17.32604408 98.66290118 -17.3125 95.23828125 C-17.31519644 92.84749189 -17.31908013 90.45670359 -17.32409668 88.06591797 C-17.32998448 83.06271899 -17.32145153 78.05980625 -17.30273438 73.05664062 C-17.27994575 66.65425835 -17.29307262 60.25254689 -17.31702423 53.85018921 C-17.33150133 48.91555762 -17.32686734 43.98108419 -17.31651306 39.04644775 C-17.31385109 36.68621745 -17.31709683 34.32597263 -17.32643127 31.96575928 C-17.33662792 28.66298568 -17.32105086 25.36128757 -17.29882812 22.05859375 C-17.30692505 21.09004456 -17.31502197 20.12149536 -17.32336426 19.12359619 C-17.23627852 12.11179506 -15.70569279 6.76240039 -11.08007812 1.38598633 C-7.47830198 -0.21637564 -3.86843029 -0.04345403 0 0 Z M-9.67163086 6.89868164 C-12.62235437 13.45259887 -13.07389067 19.78031523 -13.04003906 26.84936523 C-13.0435437 27.76266602 -13.04704834 28.6759668 -13.05065918 29.61694336 C-13.05941002 32.61449954 -13.05365039 35.61181671 -13.046875 38.609375 C-13.04822367 40.70630437 -13.0501659 42.80323344 -13.05267334 44.90016174 C-13.0556157 49.28706856 -13.05135594 53.67389372 -13.04199219 58.06079102 C-13.03060531 63.66699708 -13.037158 69.27301145 -13.04913712 74.87921047 C-13.0563857 79.20735603 -13.05405391 83.53545663 -13.04888153 87.86360359 C-13.04755296 89.92994268 -13.04916481 91.99628594 -13.05384064 94.06262016 C-13.05895448 96.95779002 -13.05112743 99.85265538 -13.04003906 102.74780273 C-13.04408752 103.59119705 -13.04813599 104.43459137 -13.05230713 105.30354309 C-13.00698134 111.73438161 -12.27686153 117.95710414 -9.67163086 123.89038086 C-6.61223085 126.27412879 -3.2529814 125.95328916 0.46484375 125.9296875 C1.67612694 125.93898537 1.67612694 125.93898537 2.91188049 125.94847107 C4.61905715 125.95557198 6.32630302 125.95239039 8.03344727 125.93969727 C10.64404054 125.92584603 13.25103868 125.95987395 15.86132812 125.99804688 C17.52083421 125.99899824 19.18034478 125.99713833 20.83984375 125.9921875 C21.61911728 126.00544571 22.39839081 126.01870392 23.20127869 126.03236389 C26.88669581 125.96915803 28.73976185 125.84870002 31.37934875 123.17367554 C37.52179159 113.78872687 35.51252939 98.80284459 35.484375 87.921875 C35.48572596 86.06348113 35.48767006 84.20508762 35.49017334 82.34669495 C35.49310361 78.47303872 35.48889453 74.59947541 35.47949219 70.72583008 C35.46809095 65.79153526 35.47467483 60.85745794 35.48663712 55.92317104 C35.49390584 52.09245704 35.49154504 48.26179358 35.48638153 44.43107796 C35.48505928 42.61283402 35.48664204 40.79458531 35.49134064 38.97634697 C35.97142789 22.62061592 35.97142789 22.62061592 31.61743164 7.15258789 C28.17268562 4.58296513 24.97298238 4.66405564 20.83984375 4.734375 C20.0313649 4.73196304 19.22288605 4.72955109 18.38990784 4.72706604 C16.68444909 4.72804375 14.97895833 4.74141942 13.27368164 4.76635742 C10.66117882 4.80071643 8.05204975 4.78700355 5.43945312 4.76757812 C3.78123559 4.77447539 2.12302678 4.78414671 0.46484375 4.796875 C-0.70710289 4.7894352 -0.70710289 4.7894352 -1.90272522 4.78184509 C-6.11089751 4.86765073 -6.11089751 4.86765073 -9.67163086 6.89868164 Z " fill="#272727" transform="translate(90.78125,-0.36328125)"/>
<path d="M0 0 C0.85049927 -0.0004985 1.70099854 -0.00099701 2.57727051 -0.00151062 C4.37266378 0.00082638 6.16806055 0.01053288 7.96337891 0.02709961 C10.70895739 0.05069709 13.45356456 0.04765715 16.19921875 0.04101562 C17.94531828 0.04659259 19.69141373 0.05370258 21.4375 0.0625 C22.25738403 0.06158859 23.07726807 0.06067719 23.92199707 0.05973816 C31.1324586 0.14927767 31.1324586 0.14927767 34.21875 2.36328125 C35.44921875 4.203125 35.44921875 4.203125 36.40625 6.30078125 C36.89158203 7.33525391 36.89158203 7.33525391 37.38671875 8.390625 C38.73996475 11.59902514 39.34631145 14.15886036 39.36592102 17.61172485 C39.37307632 18.47791443 39.38023163 19.344104 39.38760376 20.23654175 C39.39029266 21.18409332 39.39298157 22.1316449 39.39575195 23.10791016 C39.40560875 24.60843933 39.40560875 24.60843933 39.41566467 26.13928223 C39.43540464 29.45613682 39.44706322 32.77294607 39.45703125 36.08984375 C39.46110678 37.22324566 39.4651823 38.35664757 39.46938133 39.52439499 C39.49024722 45.52586434 39.50454549 51.52731081 39.51391602 57.52880859 C39.52496829 63.7192973 39.55935346 69.90942535 39.59908772 76.09978676 C39.6252731 80.8662888 39.6336097 85.63270528 39.63719749 90.39927292 C39.64206016 92.68055018 39.65366492 94.9618237 39.67223549 97.24303055 C39.69666208 100.44306972 39.69565486 103.6421807 39.6887207 106.84228516 C39.70153076 107.77769135 39.71434082 108.71309753 39.72753906 109.67684937 C39.6692486 117.09017905 37.94968364 123.23639842 33.0078125 128.89477539 C29.13582702 130.93346522 25.90947332 130.92076795 21.59375 130.859375 C20.7692334 130.86083023 19.9447168 130.86228546 19.09521484 130.86378479 C17.3570603 130.86212946 15.61889054 130.85060919 13.88085938 130.82983398 C11.22722832 130.80087378 8.57559628 130.80923308 5.921875 130.82226562 C4.229157 130.81602767 2.53644529 130.80763628 0.84375 130.796875 C0.05403809 130.79981064 -0.73567383 130.80274628 -1.54931641 130.80577087 C-6.14079482 130.72752116 -9.30633575 130.46407432 -12.78125 127.36328125 C-16.89781964 121.35119397 -17.35836353 115.78955833 -17.29882812 108.66796875 C-17.3058374 107.62626526 -17.31284668 106.58456177 -17.32006836 105.5112915 C-17.33759459 102.08667919 -17.32604408 98.66290118 -17.3125 95.23828125 C-17.31519644 92.84749189 -17.31908013 90.45670359 -17.32409668 88.06591797 C-17.32998448 83.06271899 -17.32145153 78.05980625 -17.30273438 73.05664062 C-17.27994575 66.65425835 -17.29307262 60.25254689 -17.31702423 53.85018921 C-17.33150133 48.91555762 -17.32686734 43.98108419 -17.31651306 39.04644775 C-17.31385109 36.68621745 -17.31709683 34.32597263 -17.32643127 31.96575928 C-17.33662792 28.66298568 -17.32105086 25.36128757 -17.29882812 22.05859375 C-17.30692505 21.09004456 -17.31502197 20.12149536 -17.32336426 19.12359619 C-17.23627852 12.11179506 -15.70569279 6.76240039 -11.08007812 1.38598633 C-7.47830198 -0.21637564 -3.86843029 -0.04345403 0 0 Z M-9.67163086 6.89868164 C-12.62235437 13.45259887 -13.07389067 19.78031523 -13.04003906 26.84936523 C-13.0435437 27.76266602 -13.04704834 28.6759668 -13.05065918 29.61694336 C-13.05941002 32.61449954 -13.05365039 35.61181671 -13.046875 38.609375 C-13.04822367 40.70630437 -13.0501659 42.80323344 -13.05267334 44.90016174 C-13.0556157 49.28706856 -13.05135594 53.67389372 -13.04199219 58.06079102 C-13.03060531 63.66699708 -13.037158 69.27301145 -13.04913712 74.87921047 C-13.0563857 79.20735603 -13.05405391 83.53545663 -13.04888153 87.86360359 C-13.04755296 89.92994268 -13.04916481 91.99628594 -13.05384064 94.06262016 C-13.05895448 96.95779002 -13.05112743 99.85265538 -13.04003906 102.74780273 C-13.04408752 103.59119705 -13.04813599 104.43459137 -13.05230713 105.30354309 C-13.00698134 111.73438161 -12.27686153 117.95710414 -9.67163086 123.89038086 C-6.61223085 126.27412879 -3.2529814 125.95328916 0.46484375 125.9296875 C1.67612694 125.93898537 1.67612694 125.93898537 2.91188049 125.94847107 C4.61905715 125.95557198 6.32630302 125.95239039 8.03344727 125.93969727 C10.64404054 125.92584603 13.25103868 125.95987395 15.86132812 125.99804688 C17.52083421 125.99899824 19.18034478 125.99713833 20.83984375 125.9921875 C21.61911728 126.00544571 22.39839081 126.01870392 23.20127869 126.03236389 C26.88669581 125.96915803 28.73976185 125.84870002 31.37934875 123.17367554 C37.52179159 113.78872687 35.51252939 98.80284459 35.484375 87.921875 C35.48572596 86.06348113 35.48767006 84.20508762 35.49017334 82.34669495 C35.49310361 78.47303872 35.48889453 74.59947541 35.47949219 70.72583008 C35.46809095 65.79153526 35.47467483 60.85745794 35.48663712 55.92317104 C35.49390584 52.09245704 35.49154504 48.26179358 35.48638153 44.43107796 C35.48505928 42.61283402 35.48664204 40.79458531 35.49134064 38.97634697 C35.97142789 22.62061592 35.97142789 22.62061592 31.61743164 7.15258789 C28.17268562 4.58296513 24.97298238 4.66405564 20.83984375 4.734375 C20.0313649 4.73196304 19.22288605 4.72955109 18.38990784 4.72706604 C16.68444909 4.72804375 14.97895833 4.74141942 13.27368164 4.76635742 C10.66117882 4.80071643 8.05204975 4.78700355 5.43945312 4.76757812 C3.78123559 4.77447539 2.12302678 4.78414671 0.46484375 4.796875 C-0.70710289 4.7894352 -0.70710289 4.7894352 -1.90272522 4.78184509 C-6.11089751 4.86765073 -6.11089751 4.86765073 -9.67163086 6.89868164 Z " fill="#272727" transform="translate(16.78125,-0.36328125)"/>
</svg>
