<?xml version="1.0" encoding="UTF-8"?>
<svg version="1.1" xmlns="http://www.w3.org/2000/svg" width="400" height="400">
<path d="M0 0 C132 0 264 0 400 0 C400 132 400 264 400 400 C268 400 136 400 0 400 C0 268 0 136 0 0 Z " fill="#3B404E" transform="translate(0,0)"/>
<path d="M0 0 C0.96204234 0.00291284 1.92408467 0.00582568 2.91527981 0.00882679 C3.92885522 0.00797237 4.94243063 0.00711794 5.98672044 0.00623763 C9.41087669 0.00457977 12.83498482 0.01010917 16.25913662 0.01555592 C18.70260279 0.01583775 21.14606905 0.01568013 23.58953518 0.01511341 C28.86446489 0.01488509 34.1393794 0.01773648 39.41430515 0.02335125 C47.04104415 0.0314641 54.66777716 0.03408125 62.29452001 0.03533924 C74.66716904 0.0375301 87.03981148 0.04419111 99.41245693 0.05364186 C111.43426649 0.0628151 123.45607427 0.06989636 135.47788662 0.07414967 C136.2183988 0.07441239 136.95891098 0.07467512 137.72186292 0.0749458 C141.43664195 0.0762508 145.15142098 0.07751452 148.86620003 0.0787577 C179.70413369 0.08913137 210.5420586 0.10702503 241.37998623 0.12908131 C241.37998623 13.98908131 241.37998623 27.84908131 241.37998623 42.12908131 C209.94769386 42.17425869 178.51541312 42.21008139 147.08309612 42.23121197 C143.37541881 42.23371349 139.66774157 42.23630213 135.96006435 42.23894459 C135.22190712 42.23946921 134.4837499 42.23999383 133.72322427 42.24053435 C121.75825802 42.24924597 109.79331092 42.26502008 97.82835604 42.2833869 C85.55867294 42.30206494 73.28899988 42.31319358 61.01930314 42.3172583 C53.44326027 42.32000772 45.8672715 42.32870329 38.29124527 42.34491424 C32.48994109 42.35669821 26.68867189 42.35799797 20.88735813 42.35529667 C18.50161 42.35584931 16.11585992 42.35985938 13.73012394 42.36749226 C10.48586239 42.37736737 7.24183688 42.37507753 3.99757046 42.36959034 C2.56471264 42.37832887 2.56471264 42.37832887 1.10290819 42.38724393 C0.23852739 42.38326183 -0.62585341 42.37927973 -1.51642758 42.37517697 C-2.26599551 42.37593641 -3.01556344 42.37669585 -3.78784555 42.3774783 C-5.62001377 42.12908131 -5.62001377 42.12908131 -7.62001377 40.12908131 C-7.8077003 37.19985101 -7.87555019 34.36679734 -7.85048252 31.43767506 C-7.8500243 30.57723088 -7.84956608 29.71678669 -7.84909397 28.83026844 C-7.84607083 27.01034374 -7.83818266 25.19042164 -7.82582432 23.37053639 C-7.80756525 20.57446407 -7.80531462 17.77872265 -7.80556065 14.98259693 C-7.80064567 13.21762009 -7.79481744 11.45264551 -7.78798252 9.68767506 C-7.7868697 8.84603306 -7.78575688 8.00439106 -7.78461033 7.13724476 C-7.72426625 -0.18629802 -7.26452467 0.01670455 0 0 Z " fill="#1E1F21" transform="translate(150.62001377344131,240.8709186911583)"/>
<path d="M0 0 C0.96204234 0.00291284 1.92408467 0.00582568 2.91527981 0.00882679 C3.92885522 0.00797237 4.94243063 0.00711794 5.98672044 0.00623763 C9.41087669 0.00457977 12.83498482 0.01010917 16.25913662 0.01555592 C18.70260279 0.01583775 21.14606905 0.01568013 23.58953518 0.01511341 C28.86446489 0.01488509 34.1393794 0.01773648 39.41430515 0.02335125 C47.04104415 0.0314641 54.66777716 0.03408125 62.29452001 0.03533924 C74.66716904 0.0375301 87.03981148 0.04419111 99.41245693 0.05364186 C111.43426649 0.0628151 123.45607427 0.06989636 135.47788662 0.07414967 C136.2183988 0.07441239 136.95891098 0.07467512 137.72186292 0.0749458 C141.43664195 0.0762508 145.15142098 0.07751452 148.86620003 0.0787577 C179.70413369 0.08913137 210.5420586 0.10702503 241.37998623 0.12908131 C241.37998623 13.98908131 241.37998623 27.84908131 241.37998623 42.12908131 C209.94769386 42.17425869 178.51541312 42.21008139 147.08309612 42.23121197 C143.37541881 42.23371349 139.66774157 42.23630213 135.96006435 42.23894459 C135.22190712 42.23946921 134.4837499 42.23999383 133.72322427 42.24053435 C121.75825802 42.24924597 109.79331092 42.26502008 97.82835604 42.2833869 C85.55867294 42.30206494 73.28899988 42.31319358 61.01930314 42.3172583 C53.44326027 42.32000772 45.8672715 42.32870329 38.29124527 42.34491424 C32.48994109 42.35669821 26.68867189 42.35799797 20.88735813 42.35529667 C18.50161 42.35584931 16.11585992 42.35985938 13.73012394 42.36749226 C10.48586239 42.37736737 7.24183688 42.37507753 3.99757046 42.36959034 C2.56471264 42.37832887 2.56471264 42.37832887 1.10290819 42.38724393 C0.23852739 42.38326183 -0.62585341 42.37927973 -1.51642758 42.37517697 C-2.26599551 42.37593641 -3.01556344 42.37669585 -3.78784555 42.3774783 C-5.62001377 42.12908131 -5.62001377 42.12908131 -7.62001377 40.12908131 C-7.8077003 37.19985101 -7.87555019 34.36679734 -7.85048252 31.43767506 C-7.8500243 30.57723088 -7.84956608 29.71678669 -7.84909397 28.83026844 C-7.84607083 27.01034374 -7.83818266 25.19042164 -7.82582432 23.37053639 C-7.80756525 20.57446407 -7.80531462 17.77872265 -7.80556065 14.98259693 C-7.80064567 13.21762009 -7.79481744 11.45264551 -7.78798252 9.68767506 C-7.7868697 8.84603306 -7.78575688 8.00439106 -7.78461033 7.13724476 C-7.72426625 -0.18629802 -7.26452467 0.01670455 0 0 Z " fill="#1E1F21" transform="translate(150.62001377344131,194.8709186911583)"/>
<path d="M0 0 C0.96204234 0.00291284 1.92408467 0.00582568 2.91527981 0.00882679 C3.92885522 0.00797237 4.94243063 0.00711794 5.98672044 0.00623763 C9.41087669 0.00457977 12.83498482 0.01010917 16.25913662 0.01555592 C18.70260279 0.01583775 21.14606905 0.01568013 23.58953518 0.01511341 C28.86446489 0.01488509 34.1393794 0.01773648 39.41430515 0.02335125 C47.04104415 0.0314641 54.66777716 0.03408125 62.29452001 0.03533924 C74.66716904 0.0375301 87.03981148 0.04419111 99.41245693 0.05364186 C111.43426649 0.0628151 123.45607427 0.06989636 135.47788662 0.07414967 C136.2183988 0.07441239 136.95891098 0.07467512 137.72186292 0.0749458 C141.43664195 0.0762508 145.15142098 0.07751452 148.86620003 0.0787577 C179.70413369 0.08913137 210.5420586 0.10702503 241.37998623 0.12908131 C241.37998623 13.98908131 241.37998623 27.84908131 241.37998623 42.12908131 C209.94769386 42.17425869 178.51541312 42.21008139 147.08309612 42.23121197 C143.37541881 42.23371349 139.66774157 42.23630213 135.96006435 42.23894459 C135.22190712 42.23946921 134.4837499 42.23999383 133.72322427 42.24053435 C121.75825802 42.24924597 109.79331092 42.26502008 97.82835604 42.2833869 C85.55867294 42.30206494 73.28899988 42.31319358 61.01930314 42.3172583 C53.44326027 42.32000772 45.8672715 42.32870329 38.29124527 42.34491424 C32.48994109 42.35669821 26.68867189 42.35799797 20.88735813 42.35529667 C18.50161 42.35584931 16.11585992 42.35985938 13.73012394 42.36749226 C10.48586239 42.37736737 7.24183688 42.37507753 3.99757046 42.36959034 C2.56471264 42.37832887 2.56471264 42.37832887 1.10290819 42.38724393 C0.23852739 42.38326183 -0.62585341 42.37927973 -1.51642758 42.37517697 C-2.26599551 42.37593641 -3.01556344 42.37669585 -3.78784555 42.3774783 C-5.62001377 42.12908131 -5.62001377 42.12908131 -7.62001377 40.12908131 C-7.8077003 37.19985101 -7.87555019 34.36679734 -7.85048252 31.43767506 C-7.8500243 30.57723088 -7.84956608 29.71678669 -7.84909397 28.83026844 C-7.84607083 27.01034374 -7.83818266 25.19042164 -7.82582432 23.37053639 C-7.80756525 20.57446407 -7.80531462 17.77872265 -7.80556065 14.98259693 C-7.80064567 13.21762009 -7.79481744 11.45264551 -7.78798252 9.68767506 C-7.7868697 8.84603306 -7.78575688 8.00439106 -7.78461033 7.13724476 C-7.72426625 -0.18629802 -7.26452467 0.01670455 0 0 Z " fill="#1E1F21" transform="translate(150.62001377344131,148.8709186911583)"/>
<path d="M0 0 C0.96204234 0.00291284 1.92408467 0.00582568 2.91527981 0.00882679 C3.92885522 0.00797237 4.94243063 0.00711794 5.98672044 0.00623763 C9.41087669 0.00457977 12.83498482 0.01010917 16.25913662 0.01555592 C18.70260279 0.01583775 21.14606905 0.01568013 23.58953518 0.01511341 C28.86446489 0.01488509 34.1393794 0.01773648 39.41430515 0.02335125 C47.04104415 0.0314641 54.66777716 0.03408125 62.29452001 0.03533924 C74.66716904 0.0375301 87.03981148 0.04419111 99.41245693 0.05364186 C111.43426649 0.0628151 123.45607427 0.06989636 135.47788662 0.07414967 C136.2183988 0.07441239 136.95891098 0.07467512 137.72186292 0.0749458 C141.43664195 0.0762508 145.15142098 0.07751452 148.86620003 0.0787577 C179.70413369 0.08913137 210.5420586 0.10702503 241.37998623 0.12908131 C241.37998623 13.98908131 241.37998623 27.84908131 241.37998623 42.12908131 C209.94769386 42.17425869 178.51541312 42.21008139 147.08309612 42.23121197 C143.37541881 42.23371349 139.66774157 42.23630213 135.96006435 42.23894459 C135.22190712 42.23946921 134.4837499 42.23999383 133.72322427 42.24053435 C121.75825802 42.24924597 109.79331092 42.26502008 97.82835604 42.2833869 C85.55867294 42.30206494 73.28899988 42.31319358 61.01930314 42.3172583 C53.44326027 42.32000772 45.8672715 42.32870329 38.29124527 42.34491424 C32.48994109 42.35669821 26.68867189 42.35799797 20.88735813 42.35529667 C18.50161 42.35584931 16.11585992 42.35985938 13.73012394 42.36749226 C10.48586239 42.37736737 7.24183688 42.37507753 3.99757046 42.36959034 C2.56471264 42.37832887 2.56471264 42.37832887 1.10290819 42.38724393 C0.23852739 42.38326183 -0.62585341 42.37927973 -1.51642758 42.37517697 C-2.26599551 42.37593641 -3.01556344 42.37669585 -3.78784555 42.3774783 C-5.62001377 42.12908131 -5.62001377 42.12908131 -7.62001377 40.12908131 C-7.8077003 37.19985101 -7.87555019 34.36679734 -7.85048252 31.43767506 C-7.8500243 30.57723088 -7.84956608 29.71678669 -7.84909397 28.83026844 C-7.84607083 27.01034374 -7.83818266 25.19042164 -7.82582432 23.37053639 C-7.80756525 20.57446407 -7.80531462 17.77872265 -7.80556065 14.98259693 C-7.80064567 13.21762009 -7.79481744 11.45264551 -7.78798252 9.68767506 C-7.7868697 8.84603306 -7.78575688 8.00439106 -7.78461033 7.13724476 C-7.72426625 -0.18629802 -7.26452467 0.01670455 0 0 Z " fill="#1E1F21" transform="translate(150.62001377344131,102.8709186911583)"/>
<path d="M0 0 C1.49192194 0.00138269 1.49192194 0.00138269 3.01398373 0.00279331 C4.15126919 0.00141865 5.28855465 0.00004398 6.46030331 -0.00137234 C7.71905773 0.00222294 8.97781216 0.00581821 10.27471066 0.00952244 C11.59158871 0.00937641 12.90846676 0.00923038 14.26525021 0.00907993 C17.88698982 0.00879196 21.5086966 0.01468859 25.13042855 0.02165389 C28.91142598 0.02788753 32.69242409 0.02849124 36.47342587 0.0296793 C43.63805004 0.03279258 50.80265904 0.04100594 57.96727651 0.05102879 C66.12191876 0.06219001 74.27656171 0.0677004 82.43120968 0.07272422 C99.21035107 0.08318855 115.98947717 0.10078794 132.76860714 0.12304783 C132.76337032 1.32429295 132.75813351 2.52553806 132.752738 3.76318455 C132.73467061 8.20979158 132.72316874 12.65639536 132.7136755 17.1030283 C132.70863927 19.02946613 132.70181002 20.95590014 132.69316769 22.88232517 C132.68107106 25.64747151 132.67537181 28.41256741 132.67095089 31.17773533 C132.6657896 32.04236393 132.66062832 32.90699253 132.65531063 33.797822 C132.52476825 38.09555785 132.52476825 38.09555785 133.76860714 42.12304783 C116.05368247 42.14637615 98.33876177 42.16402667 80.62382507 42.17486 C72.39904995 42.1800231 64.17428435 42.18706606 55.94951534 42.19848728 C48.78340268 42.20843369 41.61729691 42.21490115 34.45117754 42.21713632 C30.65443725 42.2184435 26.85771669 42.22152981 23.0609827 42.22877789 C19.49141812 42.23553743 15.92188151 42.23766493 12.35231113 42.23615551 C10.40945868 42.23656418 8.4666093 42.24195973 6.52376461 42.24746799 C5.37806499 42.24609333 4.23236538 42.24471867 3.05194759 42.24330235 C2.04995862 42.24422414 1.04796965 42.24514593 0.01561737 42.24609566 C-2.23139286 42.12304783 -2.23139286 42.12304783 -3.23139286 41.12304783 C-3.33249639 38.17769213 -3.37108565 35.25627223 -3.36420536 32.31054783 C-3.36516209 31.42649265 -3.36611881 30.54243748 -3.36710453 29.63159275 C-3.36778638 27.75862653 -3.36593179 25.88565797 -3.36176395 24.01269627 C-3.35641575 21.13536395 -3.36170879 18.25818775 -3.36811161 15.38086033 C-3.36745083 13.56575582 -3.36616967 11.7506514 -3.36420536 9.93554783 C-3.36622959 9.068895 -3.36825382 8.20224216 -3.37033939 7.30932713 C-3.3421783 0.18430093 -3.3421783 0.18430093 0 0 Z " fill="#292B30" transform="translate(11.231392860412598,240.87695217132568)"/>
<path d="M0 0 C1.49192194 0.00138269 1.49192194 0.00138269 3.01398373 0.00279331 C4.15126919 0.00141865 5.28855465 0.00004398 6.46030331 -0.00137234 C7.71905773 0.00222294 8.97781216 0.00581821 10.27471066 0.00952244 C11.59158871 0.00937641 12.90846676 0.00923038 14.26525021 0.00907993 C17.88698982 0.00879196 21.5086966 0.01468859 25.13042855 0.02165389 C28.91142598 0.02788753 32.69242409 0.02849124 36.47342587 0.0296793 C43.63805004 0.03279258 50.80265904 0.04100594 57.96727651 0.05102879 C66.12191876 0.06219001 74.27656171 0.0677004 82.43120968 0.07272422 C99.21035107 0.08318855 115.98947717 0.10078794 132.76860714 0.12304783 C132.76337032 1.32429295 132.75813351 2.52553806 132.752738 3.76318455 C132.73467061 8.20979158 132.72316874 12.65639536 132.7136755 17.1030283 C132.70863927 19.02946613 132.70181002 20.95590014 132.69316769 22.88232517 C132.68107106 25.64747151 132.67537181 28.41256741 132.67095089 31.17773533 C132.6657896 32.04236393 132.66062832 32.90699253 132.65531063 33.797822 C132.52476825 38.09555785 132.52476825 38.09555785 133.76860714 42.12304783 C116.05368247 42.14637615 98.33876177 42.16402667 80.62382507 42.17486 C72.39904995 42.1800231 64.17428435 42.18706606 55.94951534 42.19848728 C48.78340268 42.20843369 41.61729691 42.21490115 34.45117754 42.21713632 C30.65443725 42.2184435 26.85771669 42.22152981 23.0609827 42.22877789 C19.49141812 42.23553743 15.92188151 42.23766493 12.35231113 42.23615551 C10.40945868 42.23656418 8.4666093 42.24195973 6.52376461 42.24746799 C5.37806499 42.24609333 4.23236538 42.24471867 3.05194759 42.24330235 C2.04995862 42.24422414 1.04796965 42.24514593 0.01561737 42.24609566 C-2.23139286 42.12304783 -2.23139286 42.12304783 -3.23139286 41.12304783 C-3.33249639 38.17769213 -3.37108565 35.25627223 -3.36420536 32.31054783 C-3.36516209 31.42649265 -3.36611881 30.54243748 -3.36710453 29.63159275 C-3.36778638 27.75862653 -3.36593179 25.88565797 -3.36176395 24.01269627 C-3.35641575 21.13536395 -3.36170879 18.25818775 -3.36811161 15.38086033 C-3.36745083 13.56575582 -3.36616967 11.7506514 -3.36420536 9.93554783 C-3.36622959 9.068895 -3.36825382 8.20224216 -3.37033939 7.30932713 C-3.3421783 0.18430093 -3.3421783 0.18430093 0 0 Z " fill="#282A2F" transform="translate(11.231392860412598,194.87695217132568)"/>
<path d="M0 0 C1.49192194 0.00138269 1.49192194 0.00138269 3.01398373 0.00279331 C4.15126919 0.00141865 5.28855465 0.00004398 6.46030331 -0.00137234 C7.71905773 0.00222294 8.97781216 0.00581821 10.27471066 0.00952244 C11.59158871 0.00937641 12.90846676 0.00923038 14.26525021 0.00907993 C17.88698982 0.00879196 21.5086966 0.01468859 25.13042855 0.02165389 C28.91142598 0.02788753 32.69242409 0.02849124 36.47342587 0.0296793 C43.63805004 0.03279258 50.80265904 0.04100594 57.96727651 0.05102879 C66.12191876 0.06219001 74.27656171 0.0677004 82.43120968 0.07272422 C99.21035107 0.08318855 115.98947717 0.10078794 132.76860714 0.12304783 C132.76337032 1.32429295 132.75813351 2.52553806 132.752738 3.76318455 C132.73467061 8.20979158 132.72316874 12.65639536 132.7136755 17.1030283 C132.70863927 19.02946613 132.70181002 20.95590014 132.69316769 22.88232517 C132.68107106 25.64747151 132.67537181 28.41256741 132.67095089 31.17773533 C132.6657896 32.04236393 132.66062832 32.90699253 132.65531063 33.797822 C132.52476825 38.09555785 132.52476825 38.09555785 133.76860714 42.12304783 C116.05368247 42.14637615 98.33876177 42.16402667 80.62382507 42.17486 C72.39904995 42.1800231 64.17428435 42.18706606 55.94951534 42.19848728 C48.78340268 42.20843369 41.61729691 42.21490115 34.45117754 42.21713632 C30.65443725 42.2184435 26.85771669 42.22152981 23.0609827 42.22877789 C19.49141812 42.23553743 15.92188151 42.23766493 12.35231113 42.23615551 C10.40945868 42.23656418 8.4666093 42.24195973 6.52376461 42.24746799 C5.37806499 42.24609333 4.23236538 42.24471867 3.05194759 42.24330235 C2.04995862 42.24422414 1.04796965 42.24514593 0.01561737 42.24609566 C-2.23139286 42.12304783 -2.23139286 42.12304783 -3.23139286 41.12304783 C-3.33249639 38.17769213 -3.37108565 35.25627223 -3.36420536 32.31054783 C-3.36516209 31.42649265 -3.36611881 30.54243748 -3.36710453 29.63159275 C-3.36778638 27.75862653 -3.36593179 25.88565797 -3.36176395 24.01269627 C-3.35641575 21.13536395 -3.36170879 18.25818775 -3.36811161 15.38086033 C-3.36745083 13.56575582 -3.36616967 11.7506514 -3.36420536 9.93554783 C-3.36622959 9.068895 -3.36825382 8.20224216 -3.37033939 7.30932713 C-3.3421783 0.18430093 -3.3421783 0.18430093 0 0 Z " fill="#282A2F" transform="translate(11.231392860412598,148.87695217132568)"/>
<path d="M0 0 C1.49192194 0.00138269 1.49192194 0.00138269 3.01398373 0.00279331 C4.15126919 0.00141865 5.28855465 0.00004398 6.46030331 -0.00137234 C7.71905773 0.00222294 8.97781216 0.00581821 10.27471066 0.00952244 C11.59158871 0.00937641 12.90846676 0.00923038 14.26525021 0.00907993 C17.88698982 0.00879196 21.5086966 0.01468859 25.13042855 0.02165389 C28.91142598 0.02788753 32.69242409 0.02849124 36.47342587 0.0296793 C43.63805004 0.03279258 50.80265904 0.04100594 57.96727651 0.05102879 C66.12191876 0.06219001 74.27656171 0.0677004 82.43120968 0.07272422 C99.21035107 0.08318855 115.98947717 0.10078794 132.76860714 0.12304783 C132.76337032 1.32429295 132.75813351 2.52553806 132.752738 3.76318455 C132.73467061 8.20979158 132.72316874 12.65639536 132.7136755 17.1030283 C132.70863927 19.02946613 132.70181002 20.95590014 132.69316769 22.88232517 C132.68107106 25.64747151 132.67537181 28.41256741 132.67095089 31.17773533 C132.6657896 32.04236393 132.66062832 32.90699253 132.65531063 33.797822 C132.52476825 38.09555785 132.52476825 38.09555785 133.76860714 42.12304783 C116.05368247 42.14637615 98.33876177 42.16402667 80.62382507 42.17486 C72.39904995 42.1800231 64.17428435 42.18706606 55.94951534 42.19848728 C48.78340268 42.20843369 41.61729691 42.21490115 34.45117754 42.21713632 C30.65443725 42.2184435 26.85771669 42.22152981 23.0609827 42.22877789 C19.49141812 42.23553743 15.92188151 42.23766493 12.35231113 42.23615551 C10.40945868 42.23656418 8.4666093 42.24195973 6.52376461 42.24746799 C5.37806499 42.24609333 4.23236538 42.24471867 3.05194759 42.24330235 C2.04995862 42.24422414 1.04796965 42.24514593 0.01561737 42.24609566 C-2.23139286 42.12304783 -2.23139286 42.12304783 -3.23139286 41.12304783 C-3.33249639 38.17769213 -3.37108565 35.25627223 -3.36420536 32.31054783 C-3.36516209 31.42649265 -3.36611881 30.54243748 -3.36710453 29.63159275 C-3.36778638 27.75862653 -3.36593179 25.88565797 -3.36176395 24.01269627 C-3.35641575 21.13536395 -3.36170879 18.25818775 -3.36811161 15.38086033 C-3.36745083 13.56575582 -3.36616967 11.7506514 -3.36420536 9.93554783 C-3.36622959 9.068895 -3.36825382 8.20224216 -3.37033939 7.30932713 C-3.3421783 0.18430093 -3.3421783 0.18430093 0 0 Z " fill="#292B30" transform="translate(11.231392860412598,102.87695217132568)"/>
<path d="M0 0 C1.0264563 -0.00281982 2.0529126 -0.00563965 3.11047363 -0.00854492 C4.8139093 -0.00550858 4.8139093 -0.00550858 6.55175781 -0.00241089 C7.74023315 -0.00416321 8.9287085 -0.00591553 10.15319824 -0.00772095 C13.42171057 -0.01137906 16.6901827 -0.01050607 19.95869446 -0.00734186 C23.37220345 -0.00481783 26.78570966 -0.00715592 30.19921875 -0.00872803 C35.93262213 -0.0105496 41.66601264 -0.00814375 47.39941406 -0.00338745 C54.03694057 0.00205515 60.67443637 0.00029248 67.31196213 -0.00521386 C73.00112548 -0.00974535 78.69027955 -0.01039536 84.37944412 -0.00777519 C87.78157302 -0.00621261 91.18368745 -0.00601811 94.58581543 -0.00931168 C98.37656769 -0.01183645 102.16726004 -0.00800007 105.95800781 -0.00241089 C107.66144348 -0.00544724 107.66144348 -0.00544724 109.39929199 -0.00854492 C110.42574829 -0.0057251 111.45220459 -0.00290527 112.50976562 0 C113.40721497 0.00037703 114.30466431 0.00075405 115.22930908 0.0011425 C117.25488281 0.12698364 117.25488281 0.12698364 118.25488281 1.12698364 C118.36837442 3.98792581 118.41906773 6.8238182 118.42285156 9.68557739 C118.42784416 10.97480858 118.42784416 10.97480858 118.43293762 12.29008484 C118.43801052 14.11177025 118.44034584 15.933465 118.44018555 17.75515747 C118.44237084 20.54917654 118.46051926 23.34280021 118.47949219 26.13674927 C118.48242622 27.90302395 118.48441095 29.66930052 118.48535156 31.43557739 C118.49253708 32.27519516 118.4997226 33.11481293 118.50712585 33.97987366 C118.48370462 39.89816183 118.48370462 39.89816183 116.25488281 42.12698364 C114.14028931 42.37866592 114.14028931 42.37866592 111.47216797 42.38095093 C109.95783173 42.3894104 109.95783173 42.3894104 108.41290283 42.39804077 C107.30114685 42.39399231 106.18939087 42.38994385 105.04394531 42.38577271 C103.87643738 42.38927734 102.70892944 42.39278198 101.50604248 42.39639282 C98.29946174 42.40370118 95.09304534 42.40196819 91.88646698 42.39563465 C88.53482419 42.39058024 85.1831858 42.39526455 81.83154297 42.39840698 C76.20245383 42.40204827 70.57341712 42.3972433 64.94433594 42.38772583 C58.43117636 42.37684094 51.91814197 42.3803664 45.40498543 42.39137864 C39.81853728 42.40044692 34.23212688 42.40173906 28.64567375 42.3965013 C25.30667231 42.39337906 21.9677175 42.39297919 18.62872314 42.39957428 C14.90766832 42.40462998 11.18685692 42.39694256 7.46582031 42.38577271 C6.35406433 42.38982117 5.24230835 42.39386963 4.09686279 42.39804077 C3.0873053 42.39240112 2.0777478 42.38676147 1.03759766 42.38095093 C0.15711761 42.38019688 -0.72336243 42.37944283 -1.63052368 42.37866592 C-3.74511719 42.12698364 -3.74511719 42.12698364 -5.74511719 40.12698364 C-5.93280372 37.19775335 -6.0006536 34.36469968 -5.97558594 31.43557739 C-5.97512772 30.57513321 -5.97466949 29.71468903 -5.97419739 28.82817078 C-5.97117424 27.00824607 -5.96328607 25.18832397 -5.95092773 23.36843872 C-5.93266866 20.5723664 -5.93041803 17.77662498 -5.93066406 14.98049927 C-5.92574909 13.21552243 -5.91992086 11.45054784 -5.91308594 9.68557739 C-5.91197311 8.84393539 -5.91086029 8.0022934 -5.90971375 7.13514709 C-5.85094225 0.00245803 -5.85094225 0.00245803 0 0 Z " fill="#27292E" transform="translate(148.7451171875,56.873016357421875)"/>
<path d="M0 0 C39.93 0 79.86 0 121 0 C121 13.86 121 27.72 121 42 C81.07 42 41.14 42 0 42 C0 28.14 0 14.28 0 0 Z " fill="#0101FE" transform="translate(271,57)"/>
<path d="M0 0 C28.71 0 57.42 0 87 0 C87 13.86 87 27.72 87 42 C58.29 42 29.58 42 0 42 C0 28.14 0 14.28 0 0 Z " fill="#018001" transform="translate(305,241)"/>
<path d="M0 0 C28.71 0 57.42 0 87 0 C87 13.86 87 27.72 87 42 C58.29 42 29.58 42 0 42 C0 28.14 0 14.28 0 0 Z " fill="#018001" transform="translate(305,195)"/>
<path d="M0 0 C28.71 0 57.42 0 87 0 C87 13.86 87 27.72 87 42 C58.29 42 29.58 42 0 42 C0 28.14 0 14.28 0 0 Z " fill="#018001" transform="translate(305,149)"/>
<path d="M0 0 C28.71 0 57.42 0 87 0 C87 13.86 87 27.72 87 42 C58.29 42 29.58 42 0 42 C0 28.14 0 14.28 0 0 Z " fill="#018001" transform="translate(305,103)"/>
<path d="M0 0 C0.84477905 0.00202423 1.68955811 0.00404846 2.55993652 0.00613403 C3.42179565 0.00517731 4.28365479 0.00422058 5.17163086 0.00323486 C6.99751864 0.00255304 8.82340884 0.00440749 10.64929199 0.00857544 C13.45419731 0.01392367 16.25894248 0.00863054 19.06384277 0.00222778 C20.83337438 0.00288856 22.60290588 0.00416973 24.37243652 0.00613403 C25.21721558 0.0041098 26.06199463 0.00208557 26.93237305 0 C32.85123621 0.02399622 32.85123621 0.02399622 33.96618652 1.13894653 C34.06403994 2.4843898 34.09416637 3.83487216 34.09558105 5.18386841 C34.09873322 6.04145752 34.10188538 6.89904663 34.10513306 7.78262329 C34.10310883 8.71489746 34.10108459 9.64717163 34.09899902 10.60769653 C34.09995575 11.55833984 34.10091248 12.50898315 34.10189819 13.48843384 C34.10258009 15.50263536 34.10072514 17.51683906 34.09655762 19.53103638 C34.0912095 22.62565008 34.09650229 25.72011863 34.10290527 28.81472778 C34.10224449 30.76655102 34.10096333 32.71837417 34.09899902 34.67019653 C34.10102325 35.6024707 34.10304749 36.53474487 34.10513306 37.49526978 C34.10040482 38.78165344 34.10040482 38.78165344 34.09558105 40.09402466 C34.09478546 40.85267822 34.09398987 41.61133179 34.09317017 42.39297485 C33.96618652 44.13894653 33.96618652 44.13894653 32.96618652 45.13894653 C30.09354596 45.24001527 27.24545024 45.27864325 24.37243652 45.27175903 C23.51057739 45.27271576 22.64871826 45.27367249 21.76074219 45.2746582 C19.9348544 45.27534003 18.10896421 45.27348558 16.28308105 45.26931763 C13.47817574 45.26396939 10.67343057 45.26926253 7.86853027 45.27566528 C6.09899867 45.2750045 4.32946716 45.27372334 2.55993652 45.27175903 C1.71515747 45.27378326 0.87037842 45.2758075 0 45.27789307 C-5.91886316 45.25389685 -5.91886316 45.25389685 -7.03381348 44.13894653 C-7.13166689 42.79350326 -7.16179333 41.44302091 -7.16320801 40.09402466 C-7.16636017 39.23643555 -7.16951233 38.37884644 -7.17276001 37.49526978 C-7.17073578 36.56299561 -7.16871155 35.63072144 -7.16662598 34.67019653 C-7.1675827 33.71955322 -7.16853943 32.76890991 -7.16952515 31.78945923 C-7.17020704 29.77525771 -7.1683521 27.76105401 -7.16418457 25.74685669 C-7.15883646 22.65224299 -7.16412925 19.55777444 -7.17053223 16.46316528 C-7.16987145 14.51134204 -7.16859029 12.5595189 -7.16662598 10.60769653 C-7.16865021 9.67542236 -7.17067444 8.74314819 -7.17276001 7.78262329 C-7.16960785 6.92503418 -7.16645569 6.06744507 -7.16320801 5.18386841 C-7.16241241 4.42521484 -7.16161682 3.66656128 -7.16079712 2.88491821 C-6.8615569 -1.2295089 -3.32422539 0.01347705 0 0 Z " fill="#26282C" transform="translate(356.0338134765625,7.861053466796875)"/>
<path d="M0 0 C40.92 0 81.84 0 124 0 C123.34 1.32 122.68 2.64 122 4 C82.4 4 42.8 4 2 4 C1.34 2.68 0.68 1.36 0 0 Z " fill="#191C20" transform="translate(143,95)"/>
<path d="M0 0 C1.98 0 3.96 0 6 0 C6.34933594 1.07121094 6.69867188 2.14242188 7.05859375 3.24609375 C7.51807145 4.64328104 7.97771546 6.04041365 8.4375 7.4375 C8.66759766 8.14455078 8.89769531 8.85160156 9.13476562 9.58007812 C10.07421147 13.06306795 10.07421147 13.06306795 12 16 C13.98 10.72 15.96 5.44 18 0 C19.98 0 21.96 0 24 0 C24 7.59 24 15.18 24 23 C22.68 23 21.36 23 20 23 C19.67 18.05 19.34 13.1 19 8 C17.51651502 12.55660988 17.51651502 12.55660988 16.06933594 17.12475586 C15.484375 18.83984375 15.484375 18.83984375 14 22 C11.828125 22.94140625 11.828125 22.94140625 10 23 C9.37273892 21.45925192 8.7483099 19.91735077 8.125 18.375 C7.77695313 17.51648438 7.42890625 16.65796875 7.0703125 15.7734375 C5.95478325 12.88283251 4.97979604 9.93938811 4 7 C3.67 12.28 3.34 17.56 3 23 C2.01 23 1.02 23 0 23 C0 15.41 0 7.82 0 0 Z " fill="#F5F6F6" transform="translate(184,20)"/>
<path d="M0 0 C2.0625 1.625 2.0625 1.625 3 4 C3.54407111 8.98731848 3.06351224 11.99386861 0 16 C-3.09173752 17.54586876 -5.59429552 17.29359521 -9 17 C-11.4375 15.625 -11.4375 15.625 -13 13 C-13.74266377 8.39089084 -13.78741324 4.4721204 -11.5625 0.3125 C-7.62321192 -1.70518414 -4.18205657 -1.2197665 0 0 Z " fill="#EDEEEF" transform="translate(168,26)"/>
<path d="M0 0 C1.19109375 -0.00386719 1.19109375 -0.00386719 2.40625 -0.0078125 C4.5 0.125 4.5 0.125 6.5 1.125 C6.5 2.115 6.5 3.105 6.5 4.125 C5.59507812 4.07279297 5.59507812 4.07279297 4.671875 4.01953125 C1.13355749 3.89968501 -1.73818445 3.82770613 -5.0625 5.125 C-7.32181189 8.26839046 -7.09168236 11.45656936 -6.5 15.125 C-5.61670357 17.66458234 -5.61670357 17.66458234 -3.5 19.125 C0.10465748 19.93814911 0.10465748 19.93814911 3.5 20.125 C3.5 17.815 3.5 15.505 3.5 13.125 C1.85 13.125 0.2 13.125 -1.5 13.125 C-1.5 12.135 -1.5 11.145 -1.5 10.125 C1.47 10.125 4.44 10.125 7.5 10.125 C7.5 14.085 7.5 18.045 7.5 22.125 C3.15750666 23.57249778 -0.96668956 23.78294458 -5.5 23.125 C-8.84625024 20.59823961 -10.17977847 19.08566458 -11.5 15.125 C-12.17195988 8.29340786 -12.17195988 8.29340786 -10.453125 5.3046875 C-7.11170178 1.23601335 -5.1277133 -0.01664842 0 0 Z " fill="#F1F2F3" transform="translate(293.5,19.875)"/>
<path d="M0 0 C-0.99 0.66 -1.98 1.32 -3 2 C-2.34 3.65 -1.68 5.3 -1 7 C2.0210714 4.9859524 3.60667426 3.36720387 5 0 C5.99 0.33 6.98 0.66 8 1 C7.67 1.99 7.34 2.98 7 4 C7.99 3.67 8.98 3.34 10 3 C10 3.99 10 4.98 10 6 C8.824375 6.433125 8.824375 6.433125 7.625 6.875 C4.90328368 7.84912254 4.90328368 7.84912254 3 10 C5.64 12.64 8.28 15.28 11 18 C10.67 18.99 10.34 19.98 10 21 C6.18315774 19.44499019 3.80804268 16.96404505 1 14 C-1.99324263 15.0975223 -2.84610901 15.67682892 -4.25 18.625 C-4.4975 19.40875 -4.745 20.1925 -5 21 C-5.99 20.67 -6.98 20.34 -8 20 C-7.67 19.34 -7.34 18.68 -7 18 C-8.32 18.33 -9.64 18.66 -11 19 C-10.8125 17.1875 -10.8125 17.1875 -10 15 C-8.36368108 13.95107762 -6.69514137 12.95093297 -5 12 C-4.34 11.01 -3.68 10.02 -3 9 C-5.475 8.01 -5.475 8.01 -8 7 C-8.33 7.99 -8.66 8.98 -9 10 C-9.99 9.67 -10.98 9.34 -12 9 C-11.67 8.01 -11.34 7.02 -11 6 C-10.34 6 -9.68 6 -9 6 C-8.9071875 5.1028125 -8.9071875 5.1028125 -8.8125 4.1875 C-8 2 -8 2 -5.625 0.1875 C-3 -1 -3 -1 0 0 Z " fill="#DC9A06" transform="translate(370,17)"/>
<path d="M0 0 C1.32 0 2.64 0 4 0 C4.06058594 1.28777344 4.12117188 2.57554688 4.18359375 3.90234375 C4.26798247 5.58074159 4.3526313 7.25912636 4.4375 8.9375 C4.47681641 9.78763672 4.51613281 10.63777344 4.55664062 11.51367188 C4.59853516 12.32255859 4.64042969 13.13144531 4.68359375 13.96484375 C4.72025146 14.7137085 4.75690918 15.46257324 4.79467773 16.23413086 C4.81771063 18.02461326 4.81771063 18.02461326 6 19 C8.31 19 10.62 19 13 19 C13.33 12.73 13.66 6.46 14 0 C15.32 0 16.64 0 18 0 C18.08126109 2.72977064 18.14061663 5.4571017 18.1875 8.1875 C18.21263672 8.95642578 18.23777344 9.72535156 18.26367188 10.51757812 C18.32340012 15.15647198 18.10041764 18.27805342 15 22 C11.36217368 23.21260877 8.82264001 23.39544552 5 23 C2.17942338 20.97716222 0.26992872 19.42175689 -0.3984375 15.90136719 C-0.49198892 13.47818204 -0.43673487 11.10912423 -0.3125 8.6875 C-0.28994141 7.85154297 -0.26738281 7.01558594 -0.24414062 6.15429688 C-0.1855061 4.10208851 -0.09583215 2.05080798 0 0 Z " fill="#EFF0F1" transform="translate(307,20)"/>
<path d="M0 0 C2.875 1.625 2.875 1.625 5 4 C5.3125 7.25 5.3125 7.25 5 10 C1.37 10 -2.26 10 -6 10 C-5.34 11.32 -4.68 12.64 -4 14 C-1.36 14 1.28 14 4 14 C3.67 15.32 3.34 16.64 3 18 C-1.34041334 18.29426531 -4.02762756 18.4456707 -8 16.625 C-10.65403449 13.14157973 -10.65233618 10.64618735 -10.41796875 6.3515625 C-10 4 -10 4 -8.375 1.375 C-5.25214775 -0.43296709 -3.56003292 -0.58122986 0 0 Z " fill="#EEEFF0" transform="translate(95,25)"/>
<path d="M0 0 C1.65 0 3.3 0 5 0 C5.50559908 1.43554025 6.0042749 2.8735202 6.5 4.3125 C6.7784375 5.11300781 7.056875 5.91351563 7.34375 6.73828125 C8 9 8 9 8 12 C8.66 12 9.32 12 10 12 C10.103125 11.13375 10.20625 10.2675 10.3125 9.375 C11.03398414 5.83316877 12.27123261 3.15687958 14 0 C15.32 0 16.64 0 18 0 C18 5.61 18 11.22 18 17 C17.01 17 16.02 17 15 17 C14.67 13.7 14.34 10.4 14 7 C12.68 10.3 11.36 13.6 10 17 C9.01 17 8.02 17 7 17 C6.01 14.03 5.02 11.06 4 8 C3.67 10.97 3.34 13.94 3 17 C2.01 17 1.02 17 0 17 C0 11.39 0 5.78 0 0 Z " fill="#DCDCDD" transform="translate(14,208)"/>
<path d="M0 0 C1.65 0 3.3 0 5 0 C5.50559908 1.43554025 6.0042749 2.8735202 6.5 4.3125 C6.7784375 5.11300781 7.056875 5.91351563 7.34375 6.73828125 C8 9 8 9 8 12 C8.66 12 9.32 12 10 12 C10.103125 11.13375 10.20625 10.2675 10.3125 9.375 C11.03398414 5.83316877 12.27123261 3.15687958 14 0 C15.32 0 16.64 0 18 0 C18 5.61 18 11.22 18 17 C17.01 17 16.02 17 15 17 C14.67 13.7 14.34 10.4 14 7 C12.68 10.3 11.36 13.6 10 17 C9.01 17 8.02 17 7 17 C6.01 14.03 5.02 11.06 4 8 C3.67 10.97 3.34 13.94 3 17 C2.01 17 1.02 17 0 17 C0 11.39 0 5.78 0 0 Z " fill="#DCDCDD" transform="translate(14,162)"/>
<path d="M0 0 C1.65 0 3.3 0 5 0 C5 13.86 5 27.72 5 42 C3.02 42 1.04 42 -1 42 C-0.67 41.34 -0.34 40.68 0 40 C0.08705146 37.01029711 0.11550145 34.04415045 0.09765625 31.0546875 C0.09553383 29.72716965 0.09553383 29.72716965 0.09336853 28.37283325 C0.0877614 25.54018809 0.07520771 22.70762136 0.0625 19.875 C0.05748592 17.95703239 0.05292285 16.03906354 0.04882812 14.12109375 C0.03778966 9.41403218 0.02052025 4.7070294 0 0 Z " fill="#27292E" transform="translate(300,241)"/>
<path d="M0 0 C1.65 0 3.3 0 5 0 C5 13.86 5 27.72 5 42 C3.02 42 1.04 42 -1 42 C-0.67 41.34 -0.34 40.68 0 40 C0.08705146 37.01029711 0.11550145 34.04415045 0.09765625 31.0546875 C0.09553383 29.72716965 0.09553383 29.72716965 0.09336853 28.37283325 C0.0877614 25.54018809 0.07520771 22.70762136 0.0625 19.875 C0.05748592 17.95703239 0.05292285 16.03906354 0.04882812 14.12109375 C0.03778966 9.41403218 0.02052025 4.7070294 0 0 Z " fill="#27292E" transform="translate(300,195)"/>
<path d="M0 0 C1.65 0 3.3 0 5 0 C5 13.86 5 27.72 5 42 C3.02 42 1.04 42 -1 42 C-0.67 41.34 -0.34 40.68 0 40 C0.08705146 37.01029711 0.11550145 34.04415045 0.09765625 31.0546875 C0.09553383 29.72716965 0.09553383 29.72716965 0.09336853 28.37283325 C0.0877614 25.54018809 0.07520771 22.70762136 0.0625 19.875 C0.05748592 17.95703239 0.05292285 16.03906354 0.04882812 14.12109375 C0.03778966 9.41403218 0.02052025 4.7070294 0 0 Z " fill="#27292E" transform="translate(300,149)"/>
<path d="M0 0 C1.65 0 3.3 0 5 0 C5 13.86 5 27.72 5 42 C3.02 42 1.04 42 -1 42 C-0.67 41.34 -0.34 40.68 0 40 C0.08705146 37.01029711 0.11550145 34.04415045 0.09765625 31.0546875 C0.09553383 29.72716965 0.09553383 29.72716965 0.09336853 28.37283325 C0.0877614 25.54018809 0.07520771 22.70762136 0.0625 19.875 C0.05748592 17.95703239 0.05292285 16.03906354 0.04882812 14.12109375 C0.03778966 9.41403218 0.02052025 4.7070294 0 0 Z " fill="#27292E" transform="translate(300,103)"/>
<path d="M0 0 C1.32 0 2.64 0 4 0 C4.33 4.29 4.66 8.58 5 13 C6.65 13.33 8.3 13.66 10 14 C11.35091528 11.29816945 11.33858058 8.88191794 11.5625 5.875 C11.64628906 4.77929688 11.73007813 3.68359375 11.81640625 2.5546875 C11.87699219 1.71164063 11.93757812 0.86859375 12 0 C13.32 0 14.64 0 16 0 C16 5.94 16 11.88 16 18 C15.01 18 14.02 18 13 18 C13 17.34 13 16.68 13 16 C12.46375 16.33 11.9275 16.66 11.375 17 C8.34303035 18.2766188 6.25996064 18.41616519 3 18 C0.387955 15.54663063 0.01312908 14.15474815 -0.29296875 10.546875 C-0.25816406 9.29390625 -0.22335938 8.0409375 -0.1875 6.75 C-0.16042969 5.48671875 -0.13335937 4.2234375 -0.10546875 2.921875 C-0.07066406 1.95765625 -0.03585938 0.9934375 0 0 Z " fill="#E8E9EB" transform="translate(213,25)"/>
<path d="M0 0 C1.32 0 2.64 0 4 0 C5.2684375 -0.0928125 5.2684375 -0.0928125 6.5625 -0.1875 C9 0 9 0 10.8125 1.125 C12.55957504 3.88353953 12.39203417 5.79838764 12 9 C10.8125 11.375 10.8125 11.375 9 13 C6.3125 13.25 6.3125 13.25 4 13 C3.67 14.98 3.34 16.96 3 19 C2.01 19 1.02 19 0 19 C0 12.73 0 6.46 0 0 Z " fill="#E7E8E9" transform="translate(37,74)"/>
<path d="M0 0 C4.50157228 1.50052409 7.48199699 2.70502516 11.375 5.125 C12.24898438 5.66382813 13.12296875 6.20265625 14.0234375 6.7578125 C14.67570312 7.16773438 15.32796875 7.57765625 16 8 C11.5091448 13.01406163 6.01133856 15.12501199 0 18 C0 12.06 0 6.12 0 0 Z " fill="#D9DCD9" transform="translate(367,254)"/>
<path d="M0 0 C4.50157228 1.50052409 7.48199699 2.70502516 11.375 5.125 C12.24898438 5.66382813 13.12296875 6.20265625 14.0234375 6.7578125 C14.67570312 7.16773438 15.32796875 7.57765625 16 8 C11.5091448 13.01406163 6.01133856 15.12501199 0 18 C0 12.06 0 6.12 0 0 Z " fill="#D9DCD9" transform="translate(367,208)"/>
<path d="M0 0 C4.50157228 1.50052409 7.48199699 2.70502516 11.375 5.125 C12.24898438 5.66382813 13.12296875 6.20265625 14.0234375 6.7578125 C14.67570312 7.16773438 15.32796875 7.57765625 16 8 C11.5091448 13.01406163 6.01133856 15.12501199 0 18 C0 12.06 0 6.12 0 0 Z " fill="#D9DCD9" transform="translate(367,162)"/>
<path d="M0 0 C4.50157228 1.50052409 7.48199699 2.70502516 11.375 5.125 C12.24898438 5.66382812 13.12296875 6.20265625 14.0234375 6.7578125 C14.67570312 7.16773437 15.32796875 7.57765625 16 8 C11.5091448 13.01406163 6.01133856 15.12501199 0 18 C0 12.06 0 6.12 0 0 Z " fill="#D9DCD9" transform="translate(367,116)"/>
<path d="M0 0 C3.24208567 0.35049575 4.61527704 0.56221181 6.8125 3.0625 C7.204375 3.701875 7.59625 4.34125 8 5 C8.5878125 3.7625 8.5878125 3.7625 9.1875 2.5 C9.785625 1.675 10.38375 0.85 11 0 C13.6875 -0.3125 13.6875 -0.3125 16 0 C15.319375 1.051875 14.63875 2.10375 13.9375 3.1875 C12.5430642 5.65001428 11.99229538 6.68411071 12.0625 9.5625 C13.18749209 12.48747943 14.52239221 15.23751588 16 18 C13.625 17.8125 13.625 17.8125 11 17 C9.6875 14.4375 9.6875 14.4375 9 12 C6.9754262 13.93254772 5.57894208 15.63158688 4 18 C2.68 18 1.36 18 0 18 C1.12451727 15.0280615 2.22293791 12.66559313 4 10 C3.62105285 6.33684418 1.68482538 3.22314421 0 0 Z " fill="#F1F1F2" transform="translate(103,25)"/>
<path d="M0 0 C8 0 8 0 11 2 C11.375 5.5 11.375 5.5 11 9 C7.77208445 11.1519437 6.71599191 11.20086443 3 11 C3 12.98 3 14.96 3 17 C2.01 17 1.02 17 0 17 C0 11.39 0 5.78 0 0 Z " fill="#D0D8D0" transform="translate(313,254)"/>
<path d="M0 0 C8 0 8 0 11 2 C11.375 5.5 11.375 5.5 11 9 C7.77208445 11.1519437 6.71599191 11.20086443 3 11 C3 12.98 3 14.96 3 17 C2.01 17 1.02 17 0 17 C0 11.39 0 5.78 0 0 Z " fill="#F0F0F1" transform="translate(14,254)"/>
<path d="M0 0 C8 0 8 0 11 2 C11.375 5.5 11.375 5.5 11 9 C7.77208445 11.1519437 6.71599191 11.20086443 3 11 C3 12.98 3 14.96 3 17 C2.01 17 1.02 17 0 17 C0 11.39 0 5.78 0 0 Z " fill="#D0D8D0" transform="translate(313,208)"/>
<path d="M0 0 C8 0 8 0 11 2 C11.375 5.5 11.375 5.5 11 9 C7.77208445 11.1519437 6.71599191 11.20086443 3 11 C3 12.98 3 14.96 3 17 C2.01 17 1.02 17 0 17 C0 11.39 0 5.78 0 0 Z " fill="#D0D8D0" transform="translate(313,162)"/>
<path d="M0 0 C4 0 8 0 12 0 C13.2684375 -0.061875 13.2684375 -0.061875 14.5625 -0.125 C17 0 17 0 19 2 C19.1953125 4.6015625 19.1953125 4.6015625 19.125 7.625 C19.10695313 8.62789062 19.08890625 9.63078125 19.0703125 10.6640625 C19.04710938 11.43492187 19.02390625 12.20578125 19 13 C18.01 13 17.02 13 16 13 C15.67 9.7 15.34 6.4 15 3 C14.01 3 13.02 3 12 3 C11.67 6.3 11.34 9.6 11 13 C10.01 13 9.02 13 8 13 C7.67 9.7 7.34 6.4 7 3 C6.01 3 5.02 3 4 3 C3.67 6.3 3.34 9.6 3 13 C2.01 13 1.02 13 0 13 C0 8.71 0 4.42 0 0 Z " fill="#EFEFF0" transform="translate(69,120)"/>
<path d="M0 0 C8 0 8 0 11 2 C11.375 5.5 11.375 5.5 11 9 C7.77208445 11.1519437 6.71599191 11.20086443 3 11 C3 12.98 3 14.96 3 17 C2.01 17 1.02 17 0 17 C0 11.39 0 5.78 0 0 Z " fill="#D0D8D0" transform="translate(313,116)"/>
<path d="M0 0 C3.0625 0.3125 3.0625 0.3125 4.9375 1.375 C6.70523274 4.4194286 6.43073916 6.8756012 6.0625 10.3125 C5 12.3125 5 12.3125 3.0625 13.3125 C-0.5 13.1875 -0.5 13.1875 -3.9375 12.3125 C-5.9375 9.3125 -5.9375 9.3125 -5.6875 5.75 C-4.76858783 1.53831922 -4.3470067 0.46244752 0 0 Z " fill="#E7E7E8" transform="translate(95.9375,257.6875)"/>
<path d="M0 0 C3.0625 0.3125 3.0625 0.3125 4.9375 1.375 C6.70523274 4.4194286 6.43073916 6.8756012 6.0625 10.3125 C5 12.3125 5 12.3125 3.0625 13.3125 C-0.5 13.1875 -0.5 13.1875 -3.9375 12.3125 C-5.9375 9.3125 -5.9375 9.3125 -5.6875 5.75 C-4.76858783 1.53831922 -4.3470067 0.46244752 0 0 Z " fill="#E7E7E8" transform="translate(62.9375,211.6875)"/>
<path d="M0 0 C3.0625 0.3125 3.0625 0.3125 4.9375 1.375 C6.70523274 4.4194286 6.43073916 6.8756012 6.0625 10.3125 C5 12.3125 5 12.3125 3.0625 13.3125 C-0.5 13.1875 -0.5 13.1875 -3.9375 12.3125 C-5.9375 9.3125 -5.9375 9.3125 -5.6875 5.75 C-4.76858783 1.53831922 -4.3470067 0.46244752 0 0 Z " fill="#E7E7E8" transform="translate(61.9375,165.6875)"/>
<path d="M0 0 C3.0625 0.3125 3.0625 0.3125 4.9375 1.375 C6.70523274 4.4194286 6.43073916 6.8756012 6.0625 10.3125 C5 12.3125 5 12.3125 3.0625 13.3125 C-0.5 13.1875 -0.5 13.1875 -3.9375 12.3125 C-5.9375 9.3125 -5.9375 9.3125 -5.6875 5.75 C-4.76858783 1.53831922 -4.3470067 0.46244752 0 0 Z " fill="#E7E7E8" transform="translate(59.9375,119.6875)"/>
<path d="M0 0 C5.28 0 10.56 0 16 0 C16 0.99 16 1.98 16 3 C14.02 3 12.04 3 10 3 C10 9.6 10 16.2 10 23 C8.68 23 7.36 23 6 23 C6 16.4 6 9.8 6 3 C4.02 3 2.04 3 0 3 C0 2.01 0 1.02 0 0 Z " fill="#F8F8F8" transform="translate(66,20)"/>
<path d="M0 0 C3.5625 0.25 3.5625 0.25 6.5625 2.25 C6.2325 2.91 5.9025 3.57 5.5625 4.25 C3.2525 4.25 0.9425 4.25 -1.4375 4.25 C-1.7675 4.91 -2.0975 5.57 -2.4375 6.25 C-1.509375 6.53875 -0.58125 6.8275 0.375 7.125 C3.5625 8.25 3.5625 8.25 6.5625 10.25 C6.2325 12.56 5.9025 14.87 5.5625 17.25 C2.81171116 18.16692961 1.20301087 18.35886083 -1.625 18.3125 C-3.5121875 18.2815625 -3.5121875 18.2815625 -5.4375 18.25 C-5.1075 16.93 -4.7775 15.61 -4.4375 14.25 C-2.1275 14.58 0.1825 14.91 2.5625 15.25 C2.5625 13.93 2.5625 12.61 2.5625 11.25 C1.61375 10.940625 0.665 10.63125 -0.3125 10.3125 C-3.4375 9.25 -3.4375 9.25 -5.4375 8.25 C-5.5625 5.375 -5.5625 5.375 -5.4375 2.25 C-3.4375 0.25 -3.4375 0.25 0 0 Z " fill="#F0F0F1" transform="translate(238.4375,24.75)"/>
<path d="M0 0 C1.98 0 3.96 0 6 0 C6 7.59 6 15.18 6 23 C4.68 23 3.36 23 2 23 C1.67 18.05 1.34 13.1 1 8 C0.34 8.66 -0.32 9.32 -1 10 C-1.66 10 -2.32 10 -3 10 C-2.49287967 6.28111761 -1.88391785 3.26545761 0 0 Z " fill="#E7E7E9" transform="translate(202,20)"/>
<path d="M0 0 C0.99 0 1.98 0 3 0 C3 1.32 3 2.64 3 4 C4.65 4 6.3 4 8 4 C8 4.99 8 5.98 8 7 C6.35 7 4.7 7 3 7 C3.33 10.63 3.66 14.26 4 18 C5.32 18.33 6.64 18.66 8 19 C7.67 19.99 7.34 20.98 7 22 C4.125 22.1875 4.125 22.1875 1 22 C-1.35119399 18.47320901 -1.21443452 16.97120515 -1.125 12.8125 C-1.10695312 11.72582031 -1.08890625 10.63914062 -1.0703125 9.51953125 C-1.04710937 8.68808594 -1.02390625 7.85664063 -1 7 C-1.66 7 -2.32 7 -3 7 C-1.125 2.25 -1.125 2.25 0 0 Z " fill="#EDEDEE" transform="translate(144,21)"/>
<path d="M0 0 C0.99 0 1.98 0 3 0 C3 1.32 3 2.64 3 4 C4.65 4 6.3 4 8 4 C8 4.99 8 5.98 8 7 C6.35 7 4.7 7 3 7 C3.33 10.63 3.66 14.26 4 18 C5.32 18.33 6.64 18.66 8 19 C7.67 19.99 7.34 20.98 7 22 C4.125 22.1875 4.125 22.1875 1 22 C-1.35119399 18.47320901 -1.21443452 16.97120515 -1.125 12.8125 C-1.10695313 11.72582031 -1.08890625 10.63914062 -1.0703125 9.51953125 C-1.04710938 8.68808594 -1.02390625 7.85664063 -1 7 C-1.66 7 -2.32 7 -3 7 C-1.125 2.25 -1.125 2.25 0 0 Z " fill="#EDEDEE" transform="translate(123,21)"/>
<path d="M0 0 C0.33 0.66 0.66 1.32 1 2 C0.67 2.66 0.34 3.32 0 4 C-0.969375 3.979375 -1.93875 3.95875 -2.9375 3.9375 C-5.87465895 3.64381501 -5.87465895 3.64381501 -7 5 C-7.16053815 6.87321948 -7.16053815 6.87321948 -7.125 9 C-7.12757813 9.721875 -7.13015625 10.44375 -7.1328125 11.1875 C-7.19695276 13.02089415 -7.19695276 13.02089415 -6 14 C-4.00041636 14.04080783 -1.99954746 14.04254356 0 14 C-0.33 15.32 -0.66 16.64 -1 18 C-4.67887806 18.28299062 -7.17757904 18.46392977 -10.4375 16.625 C-12.86951073 12.53922197 -12.73815039 8.62881805 -12 4 C-9.10280922 -1.07008386 -5.28138839 -0.35209256 0 0 Z " fill="#EDEDEE" transform="translate(270,25)"/>
<path d="M0 0 C3.375 -0.125 3.375 -0.125 7 0 C9 2 9 2 9.1953125 4.6015625 C9.17210937 5.59929687 9.14890625 6.59703125 9.125 7.625 C9.10695313 8.62789063 9.08890625 9.63078125 9.0703125 10.6640625 C9.03550781 11.82035156 9.03550781 11.82035156 9 13 C7.54207116 13.05399736 6.08357288 13.09279177 4.625 13.125 C3.81289063 13.14820313 3.00078125 13.17140625 2.1640625 13.1953125 C0 13 0 13 -2 11 C-1.625 8.375 -1.625 8.375 -1 6 C2.465 5.505 2.465 5.505 6 5 C5.67 4.34 5.34 3.68 5 3 C3.35 3 1.7 3 0 3 C0 2.01 0 1.02 0 0 Z " fill="#CFD8CF" transform="translate(336,258)"/>
<path d="M0 0 C3.375 -0.125 3.375 -0.125 7 0 C9 2 9 2 9.1953125 4.6015625 C9.17210938 5.59929687 9.14890625 6.59703125 9.125 7.625 C9.10695313 8.62789063 9.08890625 9.63078125 9.0703125 10.6640625 C9.03550781 11.82035156 9.03550781 11.82035156 9 13 C7.54207116 13.05399736 6.08357288 13.09279177 4.625 13.125 C3.81289062 13.14820313 3.00078125 13.17140625 2.1640625 13.1953125 C0 13 0 13 -2 11 C-1.625 8.375 -1.625 8.375 -1 6 C2.465 5.505 2.465 5.505 6 5 C5.67 4.34 5.34 3.68 5 3 C3.35 3 1.7 3 0 3 C0 2.01 0 1.02 0 0 Z " fill="#EFEFF0" transform="translate(68,258)"/>
<path d="M0 0 C3.375 -0.125 3.375 -0.125 7 0 C9 2 9 2 9.1953125 4.6015625 C9.17210937 5.59929687 9.14890625 6.59703125 9.125 7.625 C9.10695313 8.62789062 9.08890625 9.63078125 9.0703125 10.6640625 C9.03550781 11.82035156 9.03550781 11.82035156 9 13 C7.54207116 13.05399736 6.08357288 13.09279177 4.625 13.125 C3.81289063 13.14820313 3.00078125 13.17140625 2.1640625 13.1953125 C0 13 0 13 -2 11 C-1.625 8.375 -1.625 8.375 -1 6 C2.465 5.505 2.465 5.505 6 5 C5.67 4.34 5.34 3.68 5 3 C3.35 3 1.7 3 0 3 C0 2.01 0 1.02 0 0 Z " fill="#CFD8CF" transform="translate(336,212)"/>
<path d="M0 0 C3.375 -0.125 3.375 -0.125 7 0 C9 2 9 2 9.1953125 4.6015625 C9.17210937 5.59929687 9.14890625 6.59703125 9.125 7.625 C9.10695313 8.62789062 9.08890625 9.63078125 9.0703125 10.6640625 C9.03550781 11.82035156 9.03550781 11.82035156 9 13 C7.54207116 13.05399736 6.08357288 13.09279177 4.625 13.125 C3.81289063 13.14820313 3.00078125 13.17140625 2.1640625 13.1953125 C0 13 0 13 -2 11 C-1.625 8.375 -1.625 8.375 -1 6 C2.465 5.505 2.465 5.505 6 5 C5.67 4.34 5.34 3.68 5 3 C3.35 3 1.7 3 0 3 C0 2.01 0 1.02 0 0 Z " fill="#CFD8CF" transform="translate(336,166)"/>
<path d="M0 0 C3.375 -0.125 3.375 -0.125 7 0 C9 2 9 2 9.1953125 4.6015625 C9.17210937 5.59929687 9.14890625 6.59703125 9.125 7.625 C9.10695313 8.62789062 9.08890625 9.63078125 9.0703125 10.6640625 C9.03550781 11.82035156 9.03550781 11.82035156 9 13 C7.54207116 13.05399736 6.08357288 13.09279177 4.625 13.125 C3.81289063 13.14820313 3.00078125 13.17140625 2.1640625 13.1953125 C0 13 0 13 -2 11 C-1.625 8.375 -1.625 8.375 -1 6 C2.465 5.505 2.465 5.505 6 5 C5.67 4.34 5.34 3.68 5 3 C3.35 3 1.7 3 0 3 C0 2.01 0 1.02 0 0 Z " fill="#EFEFF0" transform="translate(37,166)"/>
<path d="M0 0 C3.375 -0.125 3.375 -0.125 7 0 C9 2 9 2 9.1953125 4.6015625 C9.17210937 5.59929687 9.14890625 6.59703125 9.125 7.625 C9.10695313 8.62789062 9.08890625 9.63078125 9.0703125 10.6640625 C9.03550781 11.82035156 9.03550781 11.82035156 9 13 C7.54207116 13.05399736 6.08357288 13.09279177 4.625 13.125 C3.81289063 13.14820313 3.00078125 13.17140625 2.1640625 13.1953125 C0 13 0 13 -2 11 C-1.625 8.375 -1.625 8.375 -1 6 C2.465 5.505 2.465 5.505 6 5 C5.67 4.34 5.34 3.68 5 3 C3.35 3 1.7 3 0 3 C0 2.01 0 1.02 0 0 Z " fill="#CFD8CF" transform="translate(336,120)"/>
<path d="M0 0 C3.375 -0.125 3.375 -0.125 7 0 C9 2 9 2 9.1953125 4.6015625 C9.17210938 5.59929687 9.14890625 6.59703125 9.125 7.625 C9.10695313 8.62789062 9.08890625 9.63078125 9.0703125 10.6640625 C9.03550781 11.82035156 9.03550781 11.82035156 9 13 C7.54207116 13.05399736 6.08357288 13.09279177 4.625 13.125 C3.81289062 13.14820313 3.00078125 13.17140625 2.1640625 13.1953125 C0 13 0 13 -2 11 C-1.625 8.375 -1.625 8.375 -1 6 C2.465 5.505 2.465 5.505 6 5 C5.67 4.34 5.34 3.68 5 3 C3.35 3 1.7 3 0 3 C0 2.01 0 1.02 0 0 Z " fill="#EFEFF0" transform="translate(93,120)"/>
<path d="M0 0 C3.375 -0.125 3.375 -0.125 7 0 C9 2 9 2 9.1953125 4.6015625 C9.17210937 5.59929687 9.14890625 6.59703125 9.125 7.625 C9.10695313 8.62789062 9.08890625 9.63078125 9.0703125 10.6640625 C9.03550781 11.82035156 9.03550781 11.82035156 9 13 C7.54207116 13.05399736 6.08357288 13.09279177 4.625 13.125 C3.81289063 13.14820312 3.00078125 13.17140625 2.1640625 13.1953125 C0 13 0 13 -2 11 C-1.625 8.375 -1.625 8.375 -1 6 C2.465 5.505 2.465 5.505 6 5 C5.67 4.34 5.34 3.68 5 3 C3.35 3 1.7 3 0 3 C0 2.01 0 1.02 0 0 Z " fill="#B6B6E5" transform="translate(352,74)"/>
<path d="M0 0 C3.375 -0.125 3.375 -0.125 7 0 C9 2 9 2 9.1953125 4.6015625 C9.17210937 5.59929687 9.14890625 6.59703125 9.125 7.625 C9.10695313 8.62789062 9.08890625 9.63078125 9.0703125 10.6640625 C9.03550781 11.82035156 9.03550781 11.82035156 9 13 C7.54207116 13.05399736 6.08357288 13.09279177 4.625 13.125 C3.81289063 13.14820312 3.00078125 13.17140625 2.1640625 13.1953125 C0 13 0 13 -2 11 C-1.625 8.375 -1.625 8.375 -1 6 C2.465 5.505 2.465 5.505 6 5 C5.67 4.34 5.34 3.68 5 3 C3.35 3 1.7 3 0 3 C0 2.01 0 1.02 0 0 Z " fill="#B6B6E5" transform="translate(304,74)"/>
<path d="M0 0 C3.0625 0.3125 3.0625 0.3125 4.9375 1.5625 C6.0625 3.3125 6.0625 3.3125 6.0625 7.3125 C3.0925 7.3125 0.1225 7.3125 -2.9375 7.3125 C-1.9475 8.7975 -1.9475 8.7975 -0.9375 10.3125 C2.14615871 10.5627157 2.14615871 10.5627157 5.0625 10.3125 C4.7325 11.3025 4.4025 12.2925 4.0625 13.3125 C0.54346286 13.63241247 -1.35765168 13.68419764 -4.375 11.75 C-5.9375 9.3125 -5.9375 9.3125 -5.8125 5.6875 C-4.74107867 1.55487488 -4.30796133 0.45829376 0 0 Z " fill="#B4B4B6" transform="translate(33.9375,257.6875)"/>
<path d="M0 0 C3.0625 0.3125 3.0625 0.3125 4.9375 1.5625 C6.0625 3.3125 6.0625 3.3125 6.0625 7.3125 C3.0925 7.3125 0.1225 7.3125 -2.9375 7.3125 C-1.9475 8.7975 -1.9475 8.7975 -0.9375 10.3125 C2.14615871 10.5627157 2.14615871 10.5627157 5.0625 10.3125 C4.7325 11.3025 4.4025 12.2925 4.0625 13.3125 C0.54346286 13.63241247 -1.35765168 13.68419764 -4.375 11.75 C-5.9375 9.3125 -5.9375 9.3125 -5.8125 5.6875 C-4.74107867 1.55487488 -4.30796133 0.45829376 0 0 Z " fill="#9191EA" transform="translate(378.9375,73.6875)"/>
<path d="M0 0 C3.0625 0.3125 3.0625 0.3125 4.9375 1.5625 C6.0625 3.3125 6.0625 3.3125 6.0625 7.3125 C3.0925 7.3125 0.1225 7.3125 -2.9375 7.3125 C-1.9475 8.7975 -1.9475 8.7975 -0.9375 10.3125 C2.14615871 10.5627157 2.14615871 10.5627157 5.0625 10.3125 C4.7325 11.3025 4.4025 12.2925 4.0625 13.3125 C0.54346286 13.63241247 -1.35765168 13.68419764 -4.375 11.75 C-5.9375 9.3125 -5.9375 9.3125 -5.8125 5.6875 C-4.74107867 1.55487488 -4.30796133 0.45829376 0 0 Z " fill="#BBBCC1" transform="translate(100.9375,73.6875)"/>
<path d="M0 0 C1.32 0 2.64 0 4 0 C4 7.59 4 15.18 4 23 C2.68 23 1.36 23 0 23 C0 15.41 0 7.82 0 0 Z " fill="#F2F3F4" transform="translate(330,20)"/>
<path d="M0 0 C0.99 0 1.98 0 3 0 C3.33 1.65 3.66 3.3 4 5 C4.78375 4.95875 5.5675 4.9175 6.375 4.875 C9 5 9 5 11 7 C11.1953125 9.6015625 11.1953125 9.6015625 11.125 12.625 C11.10695313 13.62789062 11.08890625 14.63078125 11.0703125 15.6640625 C11.03550781 16.82035156 11.03550781 16.82035156 11 18 C10.34 18 9.68 18 9 18 C8.67 14.37 8.34 10.74 8 7 C6.68 7.33 5.36 7.66 4 8 C3.67 11.3 3.34 14.6 3 18 C2.01 18 1.02 18 0 18 C0 12.06 0 6.12 0 0 Z " fill="#F5F5F5" transform="translate(29,115)"/>
<path d="M0 0 C1.921875 0.30859375 1.921875 0.30859375 4 1 C5.25 4.0625 5.25 4.0625 6 7 C7.54571278 4.68143083 8.79618552 2.49361571 10 0 C10.99 0.33 11.98 0.66 13 1 C12.04832179 3.62758953 11.08902879 6.25194493 10.125 8.875 C9.85558594 9.62136719 9.58617187 10.36773437 9.30859375 11.13671875 C7.2265625 16.7734375 7.2265625 16.7734375 5 19 C3.68 19 2.36 19 1 19 C1 18.34 1 17.68 1 17 C1.99 16.34 2.98 15.68 4 15 C3.32584613 9.7415998 1.75734451 4.97361654 0 0 Z " fill="#CAD6CA" transform="translate(347,258)"/>
<path d="M0 0 C1.921875 0.30859375 1.921875 0.30859375 4 1 C5.25 4.0625 5.25 4.0625 6 7 C7.54571278 4.68143083 8.79618552 2.49361571 10 0 C10.99 0.33 11.98 0.66 13 1 C12.04832179 3.62758953 11.08902879 6.25194493 10.125 8.875 C9.85558594 9.62136719 9.58617187 10.36773437 9.30859375 11.13671875 C7.2265625 16.7734375 7.2265625 16.7734375 5 19 C3.68 19 2.36 19 1 19 C1 18.34 1 17.68 1 17 C1.99 16.34 2.98 15.68 4 15 C3.32584613 9.7415998 1.75734451 4.97361654 0 0 Z " fill="#CAD6CA" transform="translate(347,212)"/>
<path d="M0 0 C1.921875 0.30859375 1.921875 0.30859375 4 1 C5.25 4.0625 5.25 4.0625 6 7 C7.54571278 4.68143083 8.79618552 2.49361571 10 0 C10.99 0.33 11.98 0.66 13 1 C12.04832179 3.62758953 11.08902879 6.25194493 10.125 8.875 C9.85558594 9.62136719 9.58617187 10.36773437 9.30859375 11.13671875 C7.2265625 16.7734375 7.2265625 16.7734375 5 19 C3.68 19 2.36 19 1 19 C1 18.34 1 17.68 1 17 C1.99 16.34 2.98 15.68 4 15 C3.32584613 9.7415998 1.75734451 4.97361654 0 0 Z " fill="#CAD6CA" transform="translate(347,166)"/>
<path d="M0 0 C1.921875 0.30859375 1.921875 0.30859375 4 1 C5.25 4.0625 5.25 4.0625 6 7 C7.54571278 4.68143083 8.79618552 2.49361571 10 0 C10.99 0.33 11.98 0.66 13 1 C12.04832179 3.62758953 11.08902879 6.25194493 10.125 8.875 C9.85558594 9.62136719 9.58617187 10.36773437 9.30859375 11.13671875 C7.2265625 16.7734375 7.2265625 16.7734375 5 19 C3.68 19 2.36 19 1 19 C1 18.34 1 17.68 1 17 C1.99 16.34 2.98 15.68 4 15 C3.32584613 9.7415998 1.75734451 4.97361654 0 0 Z " fill="#CAD6CA" transform="translate(347,120)"/>
<path d="M0 0 C0.99 0 1.98 0 3 0 C3.33 3.3 3.66 6.6 4 10 C4.99 10 5.98 10 7 10 C7.33 6.7 7.66 3.4 8 0 C8.99 0 9.98 0 11 0 C11 4.29 11 8.58 11 13 C4.1640625 13.1953125 4.1640625 13.1953125 2 13 C0 11 0 11 -0.1953125 8.3984375 C-0.17210937 7.40070313 -0.14890625 6.40296875 -0.125 5.375 C-0.10695312 4.37210937 -0.08890625 3.36921875 -0.0703125 2.3359375 C-0.04710937 1.56507812 -0.02390625 0.79421875 0 0 Z " fill="#E8E8EA" transform="translate(52,74)"/>
<path d="M0 0 C0.66 0.33 1.32 0.66 2 1 C2 1.66 2 2.32 2 3 C-0.64 3.33 -3.28 3.66 -6 4 C-7.04214691 8.61507774 -7.04214691 8.61507774 -6 13 C-4.10466658 13.46523063 -4.10466658 13.46523063 -1.9375 13.625 C-0.638125 13.74875 0.66125 13.8725 2 14 C2 14.99 2 15.98 2 17 C-5.16883117 17.47792208 -5.16883117 17.47792208 -8.5 15.5625 C-10.73110567 11.75102781 -10.77446626 8.30698073 -10 4 C-7.30975336 -0.24231201 -4.84164806 -0.52626609 0 0 Z " fill="#F4F4F4" transform="translate(24,116)"/>
<path d="M0 0 C4.55555556 0.55555556 4.55555556 0.55555556 6 2 C6.35897436 8.46153846 6.35897436 8.46153846 4 12 C-0.875 11.125 -0.875 11.125 -2 10 C-2.27314815 4.26388889 -2.27314815 4.26388889 -2 2 C-1.34 1.34 -0.68 0.68 0 0 Z " fill="#414653" transform="translate(161,28)"/>
<path d="M0 0 C2.86724686 0.57344937 3.8614515 0.8614515 6 3 C6.66 2.01 7.32 1.02 8 0 C8.99 0 9.98 0 11 0 C10.649375 0.7425 10.29875 1.485 9.9375 2.25 C8.64280941 6.04775907 9.39883734 7.72694967 11.0625 11.25 C11.371875 11.8275 11.68125 12.405 12 13 C8 13 8 13 6.25 11.5 C5.8375 11.005 5.425 10.51 5 10 C4.01 11.485 4.01 11.485 3 13 C2.01 13 1.02 13 0 13 C1.875 8.25 1.875 8.25 3 6 C2.06553465 3.96855359 1.06775224 1.96466413 0 0 Z " fill="#EBEBED" transform="translate(109,74)"/>
<path d="M0 0 C4.29 0 8.58 0 13 0 C13 0.66 13 1.32 13 2 C11.35 2 9.7 2 8 2 C8 6.95 8 11.9 8 17 C7.01 17 6.02 17 5 17 C5 12.38 5 7.76 5 3 C3.35 3 1.7 3 0 3 C0 2.01 0 1.02 0 0 Z " fill="#E6E6E8" transform="translate(80,70)"/>
<path d="M0 0 C1.32 0 2.64 0 4 0 C4 5.94 4 11.88 4 18 C3.01 18 2.02 18 1 18 C1 17.34 1 16.68 1 16 C0.01 16 -0.98 16 -2 16 C-1.34 10.72 -0.68 5.44 0 0 Z " fill="#EEEFF0" transform="translate(225,25)"/>
<path d="M0 0 C1.32 0 2.64 0 4 0 C5.299375 -0.061875 5.299375 -0.061875 6.625 -0.125 C9 0 9 0 11 2 C11.1953125 4.6015625 11.1953125 4.6015625 11.125 7.625 C11.10695313 8.62789063 11.08890625 9.63078125 11.0703125 10.6640625 C11.03550781 11.82035156 11.03550781 11.82035156 11 13 C10.34 13 9.68 13 9 13 C8.67 9.37 8.34 5.74 8 2 C6.68 2.33 5.36 2.66 4 3 C3.67 6.3 3.34 9.6 3 13 C2.01 13 1.02 13 0 13 C0 8.71 0 4.42 0 0 Z " fill="#EFEFEF" transform="translate(105,258)"/>
<path d="M0 0 C1.32 0 2.64 0 4 0 C5.299375 -0.061875 5.299375 -0.061875 6.625 -0.125 C9 0 9 0 11 2 C11.1953125 4.6015625 11.1953125 4.6015625 11.125 7.625 C11.10695313 8.62789063 11.08890625 9.63078125 11.0703125 10.6640625 C11.03550781 11.82035156 11.03550781 11.82035156 11 13 C10.34 13 9.68 13 9 13 C8.67 9.37 8.34 5.74 8 2 C6.68 2.33 5.36 2.66 4 3 C3.67 6.3 3.34 9.6 3 13 C2.01 13 1.02 13 0 13 C0 8.71 0 4.42 0 0 Z " fill="#EFEFEF" transform="translate(43,258)"/>
<path d="M0 0 C1.32 0 2.64 0 4 0 C5.299375 -0.061875 5.299375 -0.061875 6.625 -0.125 C9 0 9 0 11 2 C11.1953125 4.6015625 11.1953125 4.6015625 11.125 7.625 C11.10695313 8.62789062 11.08890625 9.63078125 11.0703125 10.6640625 C11.03550781 11.82035156 11.03550781 11.82035156 11 13 C10.34 13 9.68 13 9 13 C8.67 9.37 8.34 5.74 8 2 C6.68 2.33 5.36 2.66 4 3 C3.67 6.3 3.34 9.6 3 13 C2.01 13 1.02 13 0 13 C0 8.71 0 4.42 0 0 Z " fill="#EFEFEF" transform="translate(43,212)"/>
<path d="M0 0 C1.32 0 2.64 0 4 0 C5.299375 -0.061875 5.299375 -0.061875 6.625 -0.125 C9 0 9 0 11 2 C11.1953125 4.6015625 11.1953125 4.6015625 11.125 7.625 C11.10695313 8.62789062 11.08890625 9.63078125 11.0703125 10.6640625 C11.03550781 11.82035156 11.03550781 11.82035156 11 13 C10.34 13 9.68 13 9 13 C8.67 9.37 8.34 5.74 8 2 C6.68 2.33 5.36 2.66 4 3 C3.67 6.3 3.34 9.6 3 13 C2.01 13 1.02 13 0 13 C0 8.71 0 4.42 0 0 Z " fill="#CECEE1" transform="translate(317,74)"/>
<path d="M0 0 C1.32 0 2.64 0 4 0 C5.299375 -0.061875 5.299375 -0.061875 6.625 -0.125 C9 0 9 0 11 2 C11.1953125 4.6015625 11.1953125 4.6015625 11.125 7.625 C11.10695313 8.62789062 11.08890625 9.63078125 11.0703125 10.6640625 C11.03550781 11.82035156 11.03550781 11.82035156 11 13 C10.34 13 9.68 13 9 13 C8.67 9.37 8.34 5.74 8 2 C6.68 2.33 5.36 2.66 4 3 C3.67 6.3 3.34 9.6 3 13 C2.01 13 1.02 13 0 13 C0 8.71 0 4.42 0 0 Z " fill="#F0F1F2" transform="translate(21,74)"/>
<path d="M0 0 C4.29 0 8.58 0 13 0 C13 0.66 13 1.32 13 2 C11.35 2 9.7 2 8 2 C8 6.95 8 11.9 8 17 C7.01 17 6.02 17 5 17 C5 12.05 5 7.1 5 2 C3.35 2 1.7 2 0 2 C0 1.34 0 0.68 0 0 Z " fill="#CBCBE1" transform="translate(277,70)"/>
<path d="M0 0 C1.12588014 0.95729916 2.2506715 1.91587895 3.375 2.875 C4.00148438 3.40867187 4.62796875 3.94234375 5.2734375 4.4921875 C6.55836651 5.61432007 7.79371975 6.79371975 9 8 C8.625 10.125 8.625 10.125 8 12 C5.9375 12.875 5.9375 12.875 3 13 C0.40994275 11.26080867 -1.79124879 9.19602066 -4 7 C-5.98 7.99 -5.98 7.99 -8 9 C-7.75 7.125 -7.75 7.125 -7 5 C-4.953125 3.8671875 -4.953125 3.8671875 -3 3 C-2.51789063 3.5053125 -2.03578125 4.010625 -1.5390625 4.53125 C-0.90742188 5.1809375 -0.27578125 5.830625 0.375 6.5 C1.00148438 7.1496875 1.62796875 7.799375 2.2734375 8.46875 C3.86475907 10.22117431 3.86475907 10.22117431 6 10 C4.9007566 7.43509874 3.87156808 5.87156808 1.875 3.875 C1.25625 3.25625 0.6375 2.6375 0 2 C0 1.34 0 0.68 0 0 Z " fill="#201B11" transform="translate(374,27)"/>
<path d="M0 0 C0.94875 0.04125 1.8975 0.0825 2.875 0.125 C3.205 1.115 3.535 2.105 3.875 3.125 C0.905 2.63 0.905 2.63 -2.125 2.125 C0.04187491 4.40021866 2.33120509 6.28294162 4.875 8.125 C4.5 10.0625 4.5 10.0625 3.875 12.125 C1.16620665 13.47939668 -1.13433268 13.19001451 -4.125 13.125 C-4.455 12.135 -4.785 11.145 -5.125 10.125 C-2.815 10.455 -0.505 10.785 1.875 11.125 C1.875 10.135 1.875 9.145 1.875 8.125 C0.905625 7.8775 -0.06375 7.63 -1.0625 7.375 C-4.125 6.125 -4.125 6.125 -5.125 4.125 C-5.125 0.41389311 -3.38352144 0.13534086 0 0 Z " fill="#C6C6E2" transform="translate(336.125,73.875)"/>
<path d="M0 0 C1.670625 0.061875 1.670625 0.061875 3.375 0.125 C3.375 1.115 3.375 2.105 3.375 3.125 C1.395 3.455 -0.585 3.785 -2.625 4.125 C-2.625 5.775 -2.625 7.425 -2.625 9.125 C-0.54946352 9.6784764 1.21865964 10.125 3.375 10.125 C3.045 11.115 2.715 12.105 2.375 13.125 C-3.02932346 13.60538431 -3.02932346 13.60538431 -5.5625 11.5625 C-7.07140049 8.10090475 -6.4951627 5.73952199 -5.625 2.125 C-3.625 0.125 -3.625 0.125 0 0 Z " fill="#E7E8E8" transform="translate(132.625,257.875)"/>
<path d="M0 0 C1.670625 0.061875 1.670625 0.061875 3.375 0.125 C3.375 1.115 3.375 2.105 3.375 3.125 C1.395 3.455 -0.585 3.785 -2.625 4.125 C-2.625 5.775 -2.625 7.425 -2.625 9.125 C-0.54946352 9.6784764 1.21865964 10.125 3.375 10.125 C3.045 11.115 2.715 12.105 2.375 13.125 C-3.02932346 13.60538431 -3.02932346 13.60538431 -5.5625 11.5625 C-7.07140049 8.10090475 -6.4951627 5.73952199 -5.625 2.125 C-3.625 0.125 -3.625 0.125 0 0 Z " fill="#E7E8E8" transform="translate(127.625,119.875)"/>
<path d="M0 0 C0.66 0 1.32 0 2 0 C2 0.99 2 1.98 2 3 C3.32 3 4.64 3 6 3 C6 3.66 6 4.32 6 5 C4.68 5 3.36 5 2 5 C2.33 7.64 2.66 10.28 3 13 C3.99 13.33 4.98 13.66 6 14 C6 14.66 6 15.32 6 16 C3.625 16.125 3.625 16.125 1 16 C-1 14 -1 14 -1.1953125 11.8359375 C-1.17210938 11.02382813 -1.14890625 10.21171875 -1.125 9.375 C-1.10695313 8.55773437 -1.08890625 7.74046875 -1.0703125 6.8984375 C-1.04710938 6.27195312 -1.02390625 5.64546875 -1 5 C-1.66 4.67 -2.32 4.34 -3 4 C-1.625 2 -1.625 2 0 0 Z " fill="#EBEBEC" transform="translate(82,255)"/>
<path d="M0 0 C0.66 0 1.32 0 2 0 C2 0.99 2 1.98 2 3 C3.32 3 4.64 3 6 3 C6 3.66 6 4.32 6 5 C4.68 5 3.36 5 2 5 C2.33 7.64 2.66 10.28 3 13 C3.99 13.33 4.98 13.66 6 14 C6 14.66 6 15.32 6 16 C3.625 16.125 3.625 16.125 1 16 C-1 14 -1 14 -1.1953125 11.8359375 C-1.17210937 11.02382813 -1.14890625 10.21171875 -1.125 9.375 C-1.10695312 8.55773437 -1.08890625 7.74046875 -1.0703125 6.8984375 C-1.04710937 6.27195312 -1.02390625 5.64546875 -1 5 C-1.66 4.67 -2.32 4.34 -3 4 C-1.625 2 -1.625 2 0 0 Z " fill="#EBEBEC" transform="translate(59,255)"/>
<path d="M0 0 C0.66 0 1.32 0 2 0 C2 0.99 2 1.98 2 3 C3.32 3 4.64 3 6 3 C6 3.66 6 4.32 6 5 C4.68 5 3.36 5 2 5 C2.33 7.64 2.66 10.28 3 13 C3.99 13.33 4.98 13.66 6 14 C6 14.66 6 15.32 6 16 C3.625 16.125 3.625 16.125 1 16 C-1 14 -1 14 -1.1953125 11.8359375 C-1.17210938 11.02382812 -1.14890625 10.21171875 -1.125 9.375 C-1.10695313 8.55773437 -1.08890625 7.74046875 -1.0703125 6.8984375 C-1.04710938 6.27195312 -1.02390625 5.64546875 -1 5 C-1.66 4.67 -2.32 4.34 -3 4 C-1.625 2 -1.625 2 0 0 Z " fill="#EBEBEC" transform="translate(107,117)"/>
<path d="M0 0 C0.66 0 1.32 0 2 0 C2.66 3.3 3.32 6.6 4 10 C4.99 10.33 5.98 10.66 7 11 C7 11.66 7 12.32 7 13 C6.01 13 5.02 13 4 13 C3.67 14.98 3.34 16.96 3 19 C2.01 19 1.02 19 0 19 C0 12.73 0 6.46 0 0 Z " fill="#F3F3F4" transform="translate(37,74)"/>
<path d="M0 0 C0.66 0 1.32 0 2 0 C2 0.99 2 1.98 2 3 C3.32 3 4.64 3 6 3 C6 3.66 6 4.32 6 5 C4.68 5 3.36 5 2 5 C2.33 7.64 2.66 10.28 3 13 C3.99 13.33 4.98 13.66 6 14 C6 14.66 6 15.32 6 16 C3.625 16.125 3.625 16.125 1 16 C-1 14 -1 14 -1.1953125 11.8359375 C-1.17210937 11.02382812 -1.14890625 10.21171875 -1.125 9.375 C-1.10695313 8.55773437 -1.08890625 7.74046875 -1.0703125 6.8984375 C-1.04710937 6.27195312 -1.02390625 5.64546875 -1 5 C-1.66 4.67 -2.32 4.34 -3 4 C-1.625 2 -1.625 2 0 0 Z " fill="#CACAE1" transform="translate(366,71)"/>
<path d="M0 0 C0.66 0 1.32 0 2 0 C2 0.99 2 1.98 2 3 C3.32 3 4.64 3 6 3 C6 3.66 6 4.32 6 5 C4.68 5 3.36 5 2 5 C2.33 7.64 2.66 10.28 3 13 C3.99 13.33 4.98 13.66 6 14 C6 14.66 6 15.32 6 16 C3.625 16.125 3.625 16.125 1 16 C-1 14 -1 14 -1.1953125 11.8359375 C-1.17210938 11.02382812 -1.14890625 10.21171875 -1.125 9.375 C-1.10695313 8.55773437 -1.08890625 7.74046875 -1.0703125 6.8984375 C-1.04710938 6.27195312 -1.02390625 5.64546875 -1 5 C-1.66 4.67 -2.32 4.34 -3 4 C-1.625 2 -1.625 2 0 0 Z " fill="#EDEDEF" transform="translate(68,71)"/>
<path d="M0 0 C0.66 0 1.32 0 2 0 C2 0.99 2 1.98 2 3 C3.32 3 4.64 3 6 3 C6 3.66 6 4.32 6 5 C4.68 5 3.36 5 2 5 C2.33 7.64 2.66 10.28 3 13 C3.99 13.33 4.98 13.66 6 14 C6 14.66 6 15.32 6 16 C3.625 16.125 3.625 16.125 1 16 C-1.54283506 13.45716494 -1.43103635 12.09455338 -1.75 8.5625 C-1.84796875 7.59441406 -1.9459375 6.62632813 -2.046875 5.62890625 C-2 3 -2 3 0 0 Z " fill="#EEEEF0" transform="translate(124,71)"/>
<path d="M0 0 C0.99 0 1.98 0 3 0 C3.05380578 2.79192205 3.09357669 5.5828141 3.125 8.375 C3.15013672 9.56609375 3.15013672 9.56609375 3.17578125 10.78125 C3.19335473 12.85492015 3.10335168 14.92883241 3 17 C2.34 17.66 1.68 18.32 1 19 C-0.32 19 -1.64 19 -3 19 C-3 18.34 -3 17.68 -3 17 C-2.34 16.67 -1.68 16.34 -1 16 C-0.68758545 13.28553021 -0.48663408 10.66090639 -0.375 7.9375 C-0.33632813 7.17888672 -0.29765625 6.42027344 -0.2578125 5.63867188 C-0.16326438 3.75952805 -0.08053244 1.87979664 0 0 Z " fill="#E9EAEA" transform="translate(50,166)"/>
<path d="M0 0 C-0.375 1.9375 -0.375 1.9375 -1 4 C-1.99 4.495 -1.99 4.495 -3 5 C-2.67 5.99 -2.34 6.98 -2 8 C-1.4225 7.030625 -0.845 6.06125 -0.25 5.0625 C2 2 2 2 4.25 1.125 C4.8275 1.08375 5.405 1.0425 6 1 C5.3503125 1.5878125 5.3503125 1.5878125 4.6875 2.1875 C2.8712924 4.00599296 2.8712924 4.00599296 1.5 6.5625 C0 9 0 9 -3 11 C-4.5625 9.25 -4.5625 9.25 -6 7 C-5.6875 4.75 -5.6875 4.75 -5 3 C-6.98 3.33 -8.96 3.66 -11 4 C-7.04396675 0.96704118 -5.03239385 -0.13243142 0 0 Z " fill="#070606" transform="translate(372,14)"/>
<path d="M0 0 C0.99 0 1.98 0 3 0 C3 5.94 3 11.88 3 18 C2.01 18 1.02 18 0 18 C0 12.06 0 6.12 0 0 Z " fill="#CBD6CB" transform="translate(328,253)"/>
<path d="M0 0 C0.99 0 1.98 0 3 0 C3 5.94 3 11.88 3 18 C2.01 18 1.02 18 0 18 C0 12.06 0 6.12 0 0 Z " fill="#CBD6CB" transform="translate(328,207)"/>
<path d="M0 0 C0.99 0 1.98 0 3 0 C3 5.94 3 11.88 3 18 C2.01 18 1.02 18 0 18 C0 12.06 0 6.12 0 0 Z " fill="#CBD6CB" transform="translate(328,161)"/>
<path d="M0 0 C0.99 0 1.98 0 3 0 C3 5.94 3 11.88 3 18 C2.01 18 1.02 18 0 18 C0 12.06 0 6.12 0 0 Z " fill="#CBD6CB" transform="translate(328,115)"/>
<path d="M0 0 C0.99 0 1.98 0 3 0 C3 5.94 3 11.88 3 18 C2.01 18 1.02 18 0 18 C0 12.06 0 6.12 0 0 Z " fill="#CBCBE2" transform="translate(344,69)"/>
<path d="M0 0 C0.99 0 1.98 0 3 0 C3 5.94 3 11.88 3 18 C2.01 18 1.02 18 0 18 C0 12.06 0 6.12 0 0 Z " fill="#FFFFFF" transform="translate(250,25)"/>
<path d="M0 0 C0.45375 0.495 0.9075 0.99 1.375 1.5 C2.87635519 3.22609337 2.87635519 3.22609337 5 3 C5.33 2.34 5.66 1.68 6 1 C7.65 1.33 9.3 1.66 11 2 C11 5 11 5 9.1875 7.125 C7 9 7 9 4 10 C3.67 11.98 3.34 13.96 3 16 C2.34 15.67 1.68 15.34 1 15 C1.125 11.6875 1.125 11.6875 2 8 C5.0625 6.0625 5.0625 6.0625 8 5 C7.34 5 6.68 5 6 5 C4.33034549 4.68197057 2.66321482 4.35015049 1 4 C0.67 2.68 0.34 1.36 0 0 Z " fill="#0B0906" transform="translate(356,23)"/>
<path d="M0 0 C2.31 0 4.62 0 7 0 C7.33 1.98 7.66 3.96 8 6 C4.625 6.625 4.625 6.625 1 7 C0.34 6.34 -0.32 5.68 -1 5 C-0.625 2.375 -0.625 2.375 0 0 Z " fill="#C8C8E2" transform="translate(351,80)"/>
<path d="M0 0 C2.31 0 4.62 0 7 0 C7.33 1.98 7.66 3.96 8 6 C4.625 6.625 4.625 6.625 1 7 C0.34 6.34 -0.32 5.68 -1 5 C-0.625 2.375 -0.625 2.375 0 0 Z " fill="#C8C8E2" transform="translate(303,80)"/>
<path d="M0 0 C0.99 0 1.98 0 3 0 C3 5.61 3 11.22 3 17 C2.01 17 1.02 17 0 17 C0 11.39 0 5.78 0 0 Z " fill="#EEEFF0" transform="translate(14,70)"/>
<path d="M0 0 C0.33 0.66 0.66 1.32 1 2 C2.98 2 4.96 2 7 2 C6.67 2.66 6.34 3.32 6 4 C4.35 4 2.7 4 1 4 C1.99 5.485 1.99 5.485 3 7 C6.08365871 7.2502157 6.08365871 7.2502157 9 7 C8.67 7.99 8.34 8.98 8 10 C4.42236811 10.32523926 2.60457419 10.42956587 -0.375 8.3125 C-2.27258004 5.61209763 -2.35882213 4.22939919 -2 1 C-1.34 0.67 -0.68 0.34 0 0 Z " fill="#EDEDEE" transform="translate(30,261)"/>
<path d="M0 0 C0.66 0 1.32 0 2 0 C2 0.66 2 1.32 2 2 C2.99 1.34 3.98 0.68 5 0 C5.99 0 6.98 0 8 0 C8 0.99 8 1.98 8 3 C6.68 3.33 5.36 3.66 4 4 C3.67 6.97 3.34 9.94 3 13 C2.01 13 1.02 13 0 13 C0 8.71 0 4.42 0 0 Z " fill="#ECECEC" transform="translate(73,212)"/>
<path d="M0 0 C0.66 0 1.32 0 2 0 C2 0.66 2 1.32 2 2 C2.99 1.34 3.98 0.68 5 0 C5.99 0 6.98 0 8 0 C8 0.99 8 1.98 8 3 C6.68 3.33 5.36 3.66 4 4 C3.67 6.97 3.34 9.94 3 13 C2.01 13 1.02 13 0 13 C0 8.71 0 4.42 0 0 Z " fill="#ECECEC" transform="translate(71,166)"/>
<path d="M0 0 C0.66 0 1.32 0 2 0 C2 0.66 2 1.32 2 2 C2.99 1.34 3.98 0.68 5 0 C5.99 0 6.98 0 8 0 C8 0.99 8 1.98 8 3 C6.68 3.33 5.36 3.66 4 4 C3.67 6.97 3.34 9.94 3 13 C2.01 13 1.02 13 0 13 C0 8.71 0 4.42 0 0 Z " fill="#ECECEC" transform="translate(44,120)"/>
<path d="M0 0 C0.33 0.66 0.66 1.32 1 2 C2.98 2 4.96 2 7 2 C6.67 2.66 6.34 3.32 6 4 C4.35 4 2.7 4 1 4 C1.99 5.485 1.99 5.485 3 7 C6.08365871 7.2502157 6.08365871 7.2502157 9 7 C8.67 7.99 8.34 8.98 8 10 C4.42236811 10.32523926 2.60457419 10.42956587 -0.375 8.3125 C-2.27258004 5.61209763 -2.35882213 4.22939919 -2 1 C-1.34 0.67 -0.68 0.34 0 0 Z " fill="#CDCDE1" transform="translate(375,77)"/>
<path d="M0 0 C0.33 0.66 0.66 1.32 1 2 C2.98 2 4.96 2 7 2 C6.67 2.66 6.34 3.32 6 4 C4.35 4 2.7 4 1 4 C1.99 5.485 1.99 5.485 3 7 C6.08365871 7.2502157 6.08365871 7.2502157 9 7 C8.67 7.99 8.34 8.98 8 10 C4.42236811 10.32523926 2.60457419 10.42956587 -0.375 8.3125 C-2.27258004 5.61209763 -2.35882213 4.22939919 -2 1 C-1.34 0.67 -0.68 0.34 0 0 Z " fill="#EFEFF0" transform="translate(97,77)"/>
<path d="M0 0 C0.66 0 1.32 0 2 0 C2 0.66 2 1.32 2 2 C2.99 1.34 3.98 0.68 5 0 C5.99 0 6.98 0 8 0 C8 0.99 8 1.98 8 3 C6.68 3.33 5.36 3.66 4 4 C3.67 6.97 3.34 9.94 3 13 C2.01 13 1.02 13 0 13 C0 8.71 0 4.42 0 0 Z " fill="#CBCBE1" transform="translate(293,74)"/>
<path d="M0 0 C0.99 0.33 1.98 0.66 3 1 C1.84826645 3.46800047 0.95216435 5.04783565 -1 7 C-1.6425235 9.06874034 -1.6425235 9.06874034 -2 11 C-2.99 10.67 -3.98 10.34 -5 10 C-4.67 9.34 -4.34 8.68 -4 8 C-5.32 8.33 -6.64 8.66 -8 9 C-7.8125 7.1875 -7.8125 7.1875 -7 5 C-4.5625 3.375 -4.5625 3.375 -2 2 C-1.34 1.34 -0.68 0.68 0 0 Z " fill="#D2D0CD" transform="translate(367,27)"/>
<path d="M0 0 C2.125 0.375 2.125 0.375 4 1 C4 3.31 4 5.62 4 8 C2.125 8.625 2.125 8.625 0 9 C-2 7 -2 7 -2.25 4.5 C-2 2 -2 2 0 0 Z " fill="#36383C" transform="translate(95,260)"/>
<path d="M0 0 C2.125 0.375 2.125 0.375 4 1 C4 3.31 4 5.62 4 8 C2.125 8.625 2.125 8.625 0 9 C-2 7 -2 7 -2.25 4.5 C-2 2 -2 2 0 0 Z " fill="#36383C" transform="translate(62,214)"/>
<path d="M0 0 C2.125 0.375 2.125 0.375 4 1 C4 3.31 4 5.62 4 8 C2.125 8.625 2.125 8.625 0 9 C-2 7 -2 7 -2.25 4.5 C-2 2 -2 2 0 0 Z " fill="#36383C" transform="translate(61,168)"/>
<path d="M0 0 C2.125 0.375 2.125 0.375 4 1 C4 3.31 4 5.62 4 8 C2.125 8.625 2.125 8.625 0 9 C-2 7 -2 7 -2.25 4.5 C-2 2 -2 2 0 0 Z " fill="#36383C" transform="translate(59,122)"/>
<path d="M0 0 C3.69230769 0.69230769 3.69230769 0.69230769 5 2 C5.1875 4.4375 5.1875 4.4375 5 7 C4.34 7.66 3.68 8.32 3 9 C0.875 8.625 0.875 8.625 -1 8 C-1.04241723 5.66705225 -1.04092937 3.33297433 -1 1 C-0.67 0.67 -0.34 0.34 0 0 Z " fill="#4C515E" transform="translate(41,76)"/>
<path d="M0 0 C0.99 0.33 1.98 0.66 3 1 C2.67 1.99 2.34 2.98 2 4 C2.99 3.67 3.98 3.34 5 3 C5 3.99 5 4.98 5 6 C4.2575 6.28875 3.515 6.5775 2.75 6.875 C0.43260203 7.82302644 -1.77917115 8.84845911 -4 10 C-4 5.28093812 -2.71245796 3.72962969 0 0 Z " fill="#D1D1D0" transform="translate(375,17)"/>
<path d="M0 0 C0.33 0 0.66 0 1 0 C1.33 1.65 1.66 3.3 2 5 C2.78375 4.95875 3.5675 4.9175 4.375 4.875 C7 5 7 5 9 7 C9.1953125 9.6015625 9.1953125 9.6015625 9.125 12.625 C9.10695313 13.62789062 9.08890625 14.63078125 9.0703125 15.6640625 C9.03550781 16.82035156 9.03550781 16.82035156 9 18 C8.34 18 7.68 18 7 18 C6.67 14.37 6.34 10.74 6 7 C4.02 7 2.04 7 0 7 C0 4.69 0 2.38 0 0 Z " fill="#EDEDEE" transform="translate(31,115)"/>
<path d="M0 0 C-0.99 0.66 -1.98 1.32 -3 2 C-4.20450304 4.55183404 -4.20450304 4.55183404 -5 7 C-5.99 7 -6.98 7 -8 7 C-8.33 7.99 -8.66 8.98 -9 10 C-9.99 9.67 -10.98 9.34 -12 9 C-11.67 8.01 -11.34 7.02 -11 6 C-10.34 6 -9.68 6 -9 6 C-8.9071875 5.1028125 -8.9071875 5.1028125 -8.8125 4.1875 C-8 2 -8 2 -5.625 0.1875 C-3 -1 -3 -1 0 0 Z " fill="#B7B6B4" transform="translate(370,17)"/>
<path d="M0 0 C1.32 0 2.64 0 4 0 C4 5.61 4 11.22 4 17 C3.34 17 2.68 17 2 17 C2 12.38 2 7.76 2 3 C1.34 3 0.68 3 0 3 C0 2.01 0 1.02 0 0 Z " fill="#F2F2F2" transform="translate(28,208)"/>
<path d="M0 0 C1.32 0 2.64 0 4 0 C4 5.61 4 11.22 4 17 C3.34 17 2.68 17 2 17 C2 12.38 2 7.76 2 3 C1.34 3 0.68 3 0 3 C0 2.01 0 1.02 0 0 Z " fill="#F2F2F2" transform="translate(28,162)"/>
<path d="M0 0 C0.99 0 1.98 0 3 0 C3 4.29 3 8.58 3 13 C2.01 13 1.02 13 0 13 C0 8.71 0 4.42 0 0 Z " fill="#EBEBEB" transform="translate(121,258)"/>
<path d="M0 0 C0.99 0 1.98 0 3 0 C3 4.29 3 8.58 3 13 C2.01 13 1.02 13 0 13 C0 8.71 0 4.42 0 0 Z " fill="#EBEBEB" transform="translate(36,212)"/>
<path d="M0 0 C0.99 0 1.98 0 3 0 C3 4.29 3 8.58 3 13 C2.01 13 1.02 13 0 13 C0 8.71 0 4.42 0 0 Z " fill="#EBEBEB" transform="translate(116,120)"/>
<path d="M0 0 C2.475 0.495 2.475 0.495 5 1 C5.625 2.875 5.625 2.875 6 5 C5.34 5.66 4.68 6.32 4 7 C2.68 7 1.36 7 0 7 C0 4.69 0 2.38 0 0 Z " fill="#1C8C1C" transform="translate(316,256)"/>
<path d="M0 0 C2.475 0.495 2.475 0.495 5 1 C5.625 2.875 5.625 2.875 6 5 C5.34 5.66 4.68 6.32 4 7 C2.68 7 1.36 7 0 7 C0 4.69 0 2.38 0 0 Z " fill="#424448" transform="translate(17,256)"/>
<path d="M0 0 C2.475 0.495 2.475 0.495 5 1 C5.625 2.875 5.625 2.875 6 5 C5.34 5.66 4.68 6.32 4 7 C2.68 7 1.36 7 0 7 C0 4.69 0 2.38 0 0 Z " fill="#1C8C1C" transform="translate(316,210)"/>
<path d="M0 0 C2.475 0.495 2.475 0.495 5 1 C5.625 2.875 5.625 2.875 6 5 C5.34 5.66 4.68 6.32 4 7 C2.68 7 1.36 7 0 7 C0 4.69 0 2.38 0 0 Z " fill="#1C8C1C" transform="translate(316,164)"/>
<path d="M0 0 C2.475 0.495 2.475 0.495 5 1 C5.625 2.875 5.625 2.875 6 5 C5.34 5.66 4.68 6.32 4 7 C2.68 7 1.36 7 0 7 C0 4.69 0 2.38 0 0 Z " fill="#1C8C1C" transform="translate(316,118)"/>
<path d="M0 0 C3.375 -0.1875 3.375 -0.1875 7 0 C7.66 0.99 8.32 1.98 9 3 C8.01 4.485 8.01 4.485 7 6 C3.875 6.1875 3.875 6.1875 1 6 C1 5.67 1 5.34 1 5 C2.65 5 4.3 5 6 5 C5.67 4.34 5.34 3.68 5 3 C3.35 3 1.7 3 0 3 C0 2.01 0 1.02 0 0 Z " fill="#B6CDB6" transform="translate(336,258)"/>
<path d="M0 0 C3.375 -0.1875 3.375 -0.1875 7 0 C7.66 0.99 8.32 1.98 9 3 C8.01 4.485 8.01 4.485 7 6 C3.875 6.1875 3.875 6.1875 1 6 C1 5.67 1 5.34 1 5 C2.65 5 4.3 5 6 5 C5.67 4.34 5.34 3.68 5 3 C3.35 3 1.7 3 0 3 C0 2.01 0 1.02 0 0 Z " fill="#D7D7D8" transform="translate(68,258)"/>
<path d="M0 0 C3.375 -0.1875 3.375 -0.1875 7 0 C7.66 0.99 8.32 1.98 9 3 C8.01 4.485 8.01 4.485 7 6 C3.875 6.1875 3.875 6.1875 1 6 C1 5.67 1 5.34 1 5 C2.65 5 4.3 5 6 5 C5.67 4.34 5.34 3.68 5 3 C3.35 3 1.7 3 0 3 C0 2.01 0 1.02 0 0 Z " fill="#B6CDB6" transform="translate(336,212)"/>
<path d="M0 0 C3.375 -0.1875 3.375 -0.1875 7 0 C7.66 0.99 8.32 1.98 9 3 C8.01 4.485 8.01 4.485 7 6 C3.875 6.1875 3.875 6.1875 1 6 C1 5.67 1 5.34 1 5 C2.65 5 4.3 5 6 5 C5.67 4.34 5.34 3.68 5 3 C3.35 3 1.7 3 0 3 C0 2.01 0 1.02 0 0 Z " fill="#B6CDB6" transform="translate(336,166)"/>
<path d="M0 0 C3.375 -0.1875 3.375 -0.1875 7 0 C7.66 0.99 8.32 1.98 9 3 C8.01 4.485 8.01 4.485 7 6 C3.875 6.1875 3.875 6.1875 1 6 C1 5.67 1 5.34 1 5 C2.65 5 4.3 5 6 5 C5.67 4.34 5.34 3.68 5 3 C3.35 3 1.7 3 0 3 C0 2.01 0 1.02 0 0 Z " fill="#D7D7D8" transform="translate(37,166)"/>
<path d="M0 0 C3.375 -0.1875 3.375 -0.1875 7 0 C7.66 0.99 8.32 1.98 9 3 C8.01 4.485 8.01 4.485 7 6 C3.875 6.1875 3.875 6.1875 1 6 C1 5.67 1 5.34 1 5 C2.65 5 4.3 5 6 5 C5.67 4.34 5.34 3.68 5 3 C3.35 3 1.7 3 0 3 C0 2.01 0 1.02 0 0 Z " fill="#B6CDB6" transform="translate(336,120)"/>
<path d="M0 0 C3.375 -0.1875 3.375 -0.1875 7 0 C7.66 0.99 8.32 1.98 9 3 C8.01 4.485 8.01 4.485 7 6 C3.875 6.1875 3.875 6.1875 1 6 C1 5.67 1 5.34 1 5 C2.65 5 4.3 5 6 5 C5.67 4.34 5.34 3.68 5 3 C3.35 3 1.7 3 0 3 C0 2.01 0 1.02 0 0 Z " fill="#D7D7D8" transform="translate(93,120)"/>
<path d="M0 0 C2.475 0.495 2.475 0.495 5 1 C5 4.63 5 8.26 5 12 C4.34 12 3.68 12 3 12 C2.92652344 10.82630859 2.92652344 10.82630859 2.8515625 9.62890625 C2.77679688 8.61699219 2.70203125 7.60507812 2.625 6.5625 C2.55539063 5.55316406 2.48578125 4.54382813 2.4140625 3.50390625 C2.27742188 2.67761719 2.14078125 1.85132813 2 1 C1.34 0.67 0.68 0.34 0 0 Z " fill="#FCFCFC" transform="translate(111,259)"/>
<path d="M0 0 C2.475 0.495 2.475 0.495 5 1 C5 4.63 5 8.26 5 12 C4.34 12 3.68 12 3 12 C2.92652344 10.82630859 2.92652344 10.82630859 2.8515625 9.62890625 C2.77679688 8.61699219 2.70203125 7.60507812 2.625 6.5625 C2.55539063 5.55316406 2.48578125 4.54382813 2.4140625 3.50390625 C2.27742188 2.67761719 2.14078125 1.85132813 2 1 C1.34 0.67 0.68 0.34 0 0 Z " fill="#FCFCFC" transform="translate(49,259)"/>
<path d="M0 0 C2.475 0.495 2.475 0.495 5 1 C5 4.63 5 8.26 5 12 C4.34 12 3.68 12 3 12 C2.92652344 10.82630859 2.92652344 10.82630859 2.8515625 9.62890625 C2.77679688 8.61699219 2.70203125 7.60507813 2.625 6.5625 C2.55539063 5.55316406 2.48578125 4.54382813 2.4140625 3.50390625 C2.27742188 2.67761719 2.14078125 1.85132813 2 1 C1.34 0.67 0.68 0.34 0 0 Z " fill="#FCFCFC" transform="translate(49,213)"/>
<path d="M0 0 C2.475 0.495 2.475 0.495 5 1 C5 4.63 5 8.26 5 12 C4.34 12 3.68 12 3 12 C2.92652344 10.82630859 2.92652344 10.82630859 2.8515625 9.62890625 C2.77679688 8.61699219 2.70203125 7.60507813 2.625 6.5625 C2.55539062 5.55316406 2.48578125 4.54382813 2.4140625 3.50390625 C2.27742188 2.67761719 2.14078125 1.85132812 2 1 C1.34 0.67 0.68 0.34 0 0 Z " fill="#DCDCDF" transform="translate(323,75)"/>
<path d="M0 0 C2.475 0.495 2.475 0.495 5 1 C5 4.63 5 8.26 5 12 C4.34 12 3.68 12 3 12 C2.92652344 10.82630859 2.92652344 10.82630859 2.8515625 9.62890625 C2.77679687 8.61699219 2.70203125 7.60507813 2.625 6.5625 C2.55539063 5.55316406 2.48578125 4.54382813 2.4140625 3.50390625 C2.27742188 2.67761719 2.14078125 1.85132812 2 1 C1.34 0.67 0.68 0.34 0 0 Z " fill="#FCFCFD" transform="translate(27,75)"/>
<path d="M0 0 C1.12588014 0.95729916 2.2506715 1.91587895 3.375 2.875 C4.00148438 3.40867187 4.62796875 3.94234375 5.2734375 4.4921875 C6.55836651 5.61432007 7.79371975 6.79371975 9 8 C8.625 10.125 8.625 10.125 8 12 C6.68 12.33 5.36 12.66 4 13 C4.66 12.67 5.32 12.34 6 12 C5.58259614 7.13028826 3.45534852 5.27815116 0 2 C0 1.34 0 0.68 0 0 Z " fill="#090703" transform="translate(374,27)"/>
<path d="M0 0 C2.31 0 4.62 0 7 0 C7 0.99 7 1.98 7 3 C2.545 3.495 2.545 3.495 -2 4 C-1.34 2.68 -0.68 1.36 0 0 Z " fill="#D0D0D1" transform="translate(129,258)"/>
<path d="M0 0 C2.31 0 4.62 0 7 0 C7 0.99 7 1.98 7 3 C2.545 3.495 2.545 3.495 -2 4 C-1.34 2.68 -0.68 1.36 0 0 Z " fill="#D0D0D1" transform="translate(124,120)"/>
<path d="M0 0 C1.65 0 3.3 0 5 0 C5.33 1.32 5.66 2.64 6 4 C3.69 4 1.38 4 -1 4 C-0.67 2.68 -0.34 1.36 0 0 Z " fill="#454957" transform="translate(90,28)"/>
<path d="M0 0 C0.33 0 0.66 0 1 0 C1 5.94 1 11.88 1 18 C0.67 18 0.34 18 0 18 C-0.09087891 16.96939453 -0.09087891 16.96939453 -0.18359375 15.91796875 C-0.26738281 15.01691406 -0.35117188 14.11585937 -0.4375 13.1875 C-0.51871094 12.29417969 -0.59992188 11.40085937 -0.68359375 10.48046875 C-0.93489767 7.87256441 -0.93489767 7.87256441 -2 5 C-1.0625 2.3125 -1.0625 2.3125 0 0 Z " fill="#535864" transform="translate(203,25)"/>
<path d="M0 0 C0.33 0 0.66 0 1 0 C1 3.3 1 6.6 1 10 C0.34 10 -0.32 10 -1 10 C-2.25 3.375 -2.25 3.375 0 0 Z " fill="#D8D8DF" transform="translate(360,77)"/>
<path d="M0 0 C0.33 0 0.66 0 1 0 C1 3.3 1 6.6 1 10 C0.34 10 -0.32 10 -1 10 C-2.25 3.375 -2.25 3.375 0 0 Z " fill="#D8D8DF" transform="translate(312,77)"/>
<path d="M0 0 C2.31 0 4.62 0 7 0 C7 0.99 7 1.98 7 3 C4.36 3 1.72 3 -1 3 C-0.67 2.01 -0.34 1.02 0 0 Z " fill="#CACBCC" transform="translate(19,130)"/>
<path d="M0 0 C1 3 1 3 0.0625 5.1875 C-0.4634375 6.0846875 -0.4634375 6.0846875 -1 7 C-1.99 7 -2.98 7 -4 7 C-4 5.68 -4 4.36 -4 3 C-3.01 3 -2.02 3 -1 3 C-0.67 2.01 -0.34 1.02 0 0 Z " fill="#F0F0F1" transform="translate(25,218)"/>
<path d="M0 0 C1 3 1 3 0.0625 5.1875 C-0.4634375 6.0846875 -0.4634375 6.0846875 -1 7 C-1.99 7 -2.98 7 -4 7 C-4 5.68 -4 4.36 -4 3 C-3.01 3 -2.02 3 -1 3 C-0.67 2.01 -0.34 1.02 0 0 Z " fill="#F0F0F1" transform="translate(25,172)"/>
<path d="M0 0 C1.32 0 2.64 0 4 0 C3.67 1.32 3.34 2.64 3 4 C1.68 4 0.36 4 -1 4 C-0.67 2.68 -0.34 1.36 0 0 Z " fill="#0D850D" transform="translate(338,265)"/>
<path d="M0 0 C1.32 0 2.64 0 4 0 C3.67 1.32 3.34 2.64 3 4 C1.68 4 0.36 4 -1 4 C-0.67 2.68 -0.34 1.36 0 0 Z " fill="#33353A" transform="translate(70,265)"/>
<path d="M0 0 C1.32 0 2.64 0 4 0 C3.67 1.32 3.34 2.64 3 4 C1.68 4 0.36 4 -1 4 C-0.67 2.68 -0.34 1.36 0 0 Z " fill="#0D850D" transform="translate(338,219)"/>
<path d="M0 0 C1.32 0 2.64 0 4 0 C3.67 1.32 3.34 2.64 3 4 C1.68 4 0.36 4 -1 4 C-0.67 2.68 -0.34 1.36 0 0 Z " fill="#0D850D" transform="translate(338,173)"/>
<path d="M0 0 C1.32 0 2.64 0 4 0 C3.67 1.32 3.34 2.64 3 4 C1.68 4 0.36 4 -1 4 C-0.67 2.68 -0.34 1.36 0 0 Z " fill="#33353A" transform="translate(39,173)"/>
<path d="M0 0 C1.32 0 2.64 0 4 0 C3.67 1.32 3.34 2.64 3 4 C1.68 4 0.36 4 -1 4 C-0.67 2.68 -0.34 1.36 0 0 Z " fill="#0D850D" transform="translate(338,127)"/>
<path d="M0 0 C1.32 0 2.64 0 4 0 C3.67 1.32 3.34 2.64 3 4 C1.68 4 0.36 4 -1 4 C-0.67 2.68 -0.34 1.36 0 0 Z " fill="#33353A" transform="translate(95,127)"/>
<path d="M0 0 C5.75 -0.125 5.75 -0.125 8 1 C8 1.66 8 2.32 8 3 C6.02 3 4.04 3 2 3 C2 2.34 2 1.68 2 1 C1.34 0.67 0.68 0.34 0 0 Z " fill="#D7D7D8" transform="translate(18,116)"/>
<path d="M0 0 C1.32 0 2.64 0 4 0 C3.67 1.32 3.34 2.64 3 4 C1.68 4 0.36 4 -1 4 C-0.67 2.68 -0.34 1.36 0 0 Z " fill="#0D0DFD" transform="translate(354,81)"/>
<path d="M0 0 C1.32 0 2.64 0 4 0 C3.67 1.32 3.34 2.64 3 4 C1.68 4 0.36 4 -1 4 C-0.67 2.68 -0.34 1.36 0 0 Z " fill="#0D0DFD" transform="translate(306,81)"/>
</svg>
