<?xml version="1.0" encoding="UTF-8"?>
<svg version="1.1" xmlns="http://www.w3.org/2000/svg" width="434" height="301">
<path d="M0 0 C143.22 0 286.44 0 434 0 C434 99.33 434 198.66 434 301 C290.78 301 147.56 301 0 301 C0 201.67 0 102.34 0 0 Z " fill="#3B404E" transform="translate(0,0)"/>
<path d="M0 0 C0.85019382 0.00037972 1.70038764 0.00075944 2.57634491 0.00115067 C3.55368672 -0.00084038 4.53102853 -0.00283143 5.53798676 -0.00488281 C7.16781578 -0.00051355 7.16781578 -0.00051355 8.83057064 0.00394398 C9.97481972 0.00308955 11.11906881 0.00223513 12.29799211 0.00135481 C15.48818837 -0.00001332 18.67834454 0.00313396 21.86853606 0.00813287 C25.30345174 0.01243422 28.73836542 0.01099118 32.17328304 0.0102306 C38.1292005 0.00970516 44.08510705 0.01285401 50.04102176 0.01846844 C58.65237156 0.02658078 67.26371605 0.02919839 75.87506925 0.03045643 C89.8449755 0.03264737 103.81487593 0.03930859 117.78477901 0.04875904 C131.35867194 0.05793208 144.9325633 0.06501344 158.5064587 0.06926686 C159.34255474 0.06952958 160.17865078 0.0697923 161.04008306 0.07006299 C165.23435237 0.07136798 169.42862168 0.0726317 173.62289101 0.07387489 C208.4420761 0.08424881 243.26125378 0.10214265 278.08043331 0.1241985 C278.08043331 13.9841985 278.08043331 27.8441985 278.08043331 42.1241985 C242.57153056 42.16937404 207.06263613 42.20519759 171.55371056 42.22632916 C167.36535247 42.22883069 163.17699444 42.23141932 158.98863643 42.23406178 C158.15477953 42.2345864 157.32092263 42.23511102 156.46179734 42.23565154 C142.94486591 42.24436362 129.42795143 42.26013799 115.91103007 42.27850409 C102.05028937 42.29718084 88.18955756 42.3083105 74.32880479 42.31237549 C65.77006174 42.31512518 57.21136656 42.3238222 48.65263824 42.34003143 C42.79044156 42.35057088 36.92826979 42.35380605 31.06606431 42.35120125 C27.67953805 42.3499152 24.2930957 42.35194149 20.9065842 42.36260945 C17.24194164 42.37248131 13.57750815 42.37019589 9.91286129 42.36470753 C8.8331124 42.37053321 7.7533635 42.3763589 6.64089495 42.38236111 C5.66504549 42.37837902 4.68919602 42.37439692 3.68377537 42.37029415 C2.83699903 42.37105359 1.99022269 42.37181304 1.11778647 42.37259549 C-0.91956669 42.1241985 -0.91956669 42.1241985 -2.91956669 40.1241985 C-3.10725322 37.1949682 -3.1751031 34.36191453 -3.15003544 31.43279225 C-3.14957722 30.57234806 -3.149119 29.71190388 -3.14864689 28.82538563 C-3.14562374 27.00546093 -3.13773557 25.18553883 -3.12537724 23.36565357 C-3.10711817 20.56958125 -3.10486754 17.77383983 -3.10511357 14.97771412 C-3.10019859 13.21273728 -3.09437036 11.4477627 -3.08753544 9.68279225 C-3.08642262 8.84115025 -3.08530979 7.99950825 -3.08416325 7.13236195 C-3.02700821 0.19585142 -3.02700821 0.19585142 0 0 Z " fill="#1F2022" transform="translate(145.91956669092178,191.8758015036583)"/>
<path d="M0 0 C0.85019382 0.00037972 1.70038764 0.00075944 2.57634491 0.00115067 C3.55368672 -0.00084038 4.53102853 -0.00283143 5.53798676 -0.00488281 C7.16781578 -0.00051355 7.16781578 -0.00051355 8.83057064 0.00394398 C9.97481972 0.00308955 11.11906881 0.00223513 12.29799211 0.00135481 C15.48818837 -0.00001332 18.67834454 0.00313396 21.86853606 0.00813287 C25.30345174 0.01243422 28.73836542 0.01099118 32.17328304 0.0102306 C38.1292005 0.00970516 44.08510705 0.01285401 50.04102176 0.01846844 C58.65237156 0.02658078 67.26371605 0.02919839 75.87506925 0.03045643 C89.8449755 0.03264737 103.81487593 0.03930859 117.78477901 0.04875904 C131.35867194 0.05793208 144.9325633 0.06501344 158.5064587 0.06926686 C159.34255474 0.06952958 160.17865078 0.0697923 161.04008306 0.07006299 C165.23435237 0.07136798 169.42862168 0.0726317 173.62289101 0.07387489 C208.4420761 0.08424881 243.26125378 0.10214265 278.08043331 0.1241985 C278.08043331 13.9841985 278.08043331 27.8441985 278.08043331 42.1241985 C242.57153056 42.16937404 207.06263613 42.20519759 171.55371056 42.22632916 C167.36535247 42.22883069 163.17699444 42.23141932 158.98863643 42.23406178 C158.15477953 42.2345864 157.32092263 42.23511102 156.46179734 42.23565154 C142.94486591 42.24436362 129.42795143 42.26013799 115.91103007 42.27850409 C102.05028937 42.29718084 88.18955756 42.3083105 74.32880479 42.31237549 C65.77006174 42.31512518 57.21136656 42.3238222 48.65263824 42.34003143 C42.79044156 42.35057088 36.92826979 42.35380605 31.06606431 42.35120125 C27.67953805 42.3499152 24.2930957 42.35194149 20.9065842 42.36260945 C17.24194164 42.37248131 13.57750815 42.37019589 9.91286129 42.36470753 C8.8331124 42.37053321 7.7533635 42.3763589 6.64089495 42.38236111 C5.66504549 42.37837902 4.68919602 42.37439692 3.68377537 42.37029415 C2.83699903 42.37105359 1.99022269 42.37181304 1.11778647 42.37259549 C-0.91956669 42.1241985 -0.91956669 42.1241985 -2.91956669 40.1241985 C-3.10725322 37.1949682 -3.1751031 34.36191453 -3.15003544 31.43279225 C-3.14957722 30.57234806 -3.149119 29.71190388 -3.14864689 28.82538563 C-3.14562374 27.00546093 -3.13773557 25.18553883 -3.12537724 23.36565357 C-3.10711817 20.56958125 -3.10486754 17.77383983 -3.10511357 14.97771412 C-3.10019859 13.21273728 -3.09437036 11.4477627 -3.08753544 9.68279225 C-3.08642262 8.84115025 -3.08530979 7.99950825 -3.08416325 7.13236195 C-3.02700821 0.19585142 -3.02700821 0.19585142 0 0 Z " fill="#1F2022" transform="translate(145.91956669092178,145.8758015036583)"/>
<path d="M0 0 C0.85019382 0.00037972 1.70038764 0.00075944 2.57634491 0.00115067 C3.55368672 -0.00084038 4.53102853 -0.00283143 5.53798676 -0.00488281 C7.16781578 -0.00051355 7.16781578 -0.00051355 8.83057064 0.00394398 C9.97481972 0.00308955 11.11906881 0.00223513 12.29799211 0.00135481 C15.48818837 -0.00001332 18.67834454 0.00313396 21.86853606 0.00813287 C25.30345174 0.01243422 28.73836542 0.01099118 32.17328304 0.0102306 C38.1292005 0.00970516 44.08510705 0.01285401 50.04102176 0.01846844 C58.65237156 0.02658078 67.26371605 0.02919839 75.87506925 0.03045643 C89.8449755 0.03264737 103.81487593 0.03930859 117.78477901 0.04875904 C131.35867194 0.05793208 144.9325633 0.06501344 158.5064587 0.06926686 C159.34255474 0.06952958 160.17865078 0.0697923 161.04008306 0.07006299 C165.23435237 0.07136798 169.42862168 0.0726317 173.62289101 0.07387489 C208.4420761 0.08424881 243.26125378 0.10214265 278.08043331 0.1241985 C278.08043331 13.9841985 278.08043331 27.8441985 278.08043331 42.1241985 C242.57153056 42.16937404 207.06263613 42.20519759 171.55371056 42.22632916 C167.36535247 42.22883069 163.17699444 42.23141932 158.98863643 42.23406178 C158.15477953 42.2345864 157.32092263 42.23511102 156.46179734 42.23565154 C142.94486591 42.24436362 129.42795143 42.26013799 115.91103007 42.27850409 C102.05028937 42.29718084 88.18955756 42.3083105 74.32880479 42.31237549 C65.77006174 42.31512518 57.21136656 42.3238222 48.65263824 42.34003143 C42.79044156 42.35057088 36.92826979 42.35380605 31.06606431 42.35120125 C27.67953805 42.3499152 24.2930957 42.35194149 20.9065842 42.36260945 C17.24194164 42.37248131 13.57750815 42.37019589 9.91286129 42.36470753 C8.8331124 42.37053321 7.7533635 42.3763589 6.64089495 42.38236111 C5.66504549 42.37837902 4.68919602 42.37439692 3.68377537 42.37029415 C2.83699903 42.37105359 1.99022269 42.37181304 1.11778647 42.37259549 C-0.91956669 42.1241985 -0.91956669 42.1241985 -2.91956669 40.1241985 C-3.10725322 37.1949682 -3.1751031 34.36191453 -3.15003544 31.43279225 C-3.14957722 30.57234806 -3.149119 29.71190388 -3.14864689 28.82538563 C-3.14562374 27.00546093 -3.13773557 25.18553883 -3.12537724 23.36565357 C-3.10711817 20.56958125 -3.10486754 17.77383983 -3.10511357 14.97771412 C-3.10019859 13.21273728 -3.09437036 11.4477627 -3.08753544 9.68279225 C-3.08642262 8.84115025 -3.08530979 7.99950825 -3.08416325 7.13236195 C-3.02700821 0.19585142 -3.02700821 0.19585142 0 0 Z " fill="#1F2022" transform="translate(145.91956669092178,99.8758015036583)"/>
<path d="M0 0 C0.85019382 0.00037972 1.70038764 0.00075944 2.57634491 0.00115067 C3.55368672 -0.00084038 4.53102853 -0.00283143 5.53798676 -0.00488281 C7.16781578 -0.00051355 7.16781578 -0.00051355 8.83057064 0.00394398 C9.97481972 0.00308955 11.11906881 0.00223513 12.29799211 0.00135481 C15.48818837 -0.00001332 18.67834454 0.00313396 21.86853606 0.00813287 C25.30345174 0.01243422 28.73836542 0.01099118 32.17328304 0.0102306 C38.1292005 0.00970516 44.08510705 0.01285401 50.04102176 0.01846844 C58.65237156 0.02658078 67.26371605 0.02919839 75.87506925 0.03045643 C89.8449755 0.03264737 103.81487593 0.03930859 117.78477901 0.04875904 C131.35867194 0.05793208 144.9325633 0.06501344 158.5064587 0.06926686 C159.34255474 0.06952958 160.17865078 0.0697923 161.04008306 0.07006299 C165.23435237 0.07136798 169.42862168 0.0726317 173.62289101 0.07387489 C208.4420761 0.08424881 243.26125378 0.10214265 278.08043331 0.1241985 C278.08043331 13.9841985 278.08043331 27.8441985 278.08043331 42.1241985 C242.57153056 42.16937404 207.06263613 42.20519759 171.55371056 42.22632916 C167.36535247 42.22883069 163.17699444 42.23141932 158.98863643 42.23406178 C158.15477953 42.2345864 157.32092263 42.23511102 156.46179734 42.23565154 C142.94486591 42.24436362 129.42795143 42.26013799 115.91103007 42.27850409 C102.05028937 42.29718084 88.18955756 42.3083105 74.32880479 42.31237549 C65.77006174 42.31512518 57.21136656 42.3238222 48.65263824 42.34003143 C42.79044156 42.35057088 36.92826979 42.35380605 31.06606431 42.35120125 C27.67953805 42.3499152 24.2930957 42.35194149 20.9065842 42.36260945 C17.24194164 42.37248131 13.57750815 42.37019589 9.91286129 42.36470753 C8.8331124 42.37053321 7.7533635 42.3763589 6.64089495 42.38236111 C5.66504549 42.37837902 4.68919602 42.37439692 3.68377537 42.37029415 C2.83699903 42.37105359 1.99022269 42.37181304 1.11778647 42.37259549 C-0.91956669 42.1241985 -0.91956669 42.1241985 -2.91956669 40.1241985 C-3.10725322 37.1949682 -3.1751031 34.36191453 -3.15003544 31.43279225 C-3.14957722 30.57234806 -3.149119 29.71190388 -3.14864689 28.82538563 C-3.14562374 27.00546093 -3.13773557 25.18553883 -3.12537724 23.36565357 C-3.10711817 20.56958125 -3.10486754 17.77383983 -3.10511357 14.97771412 C-3.10019859 13.21273728 -3.09437036 11.4477627 -3.08753544 9.68279225 C-3.08642262 8.84115025 -3.08530979 7.99950825 -3.08416325 7.13236195 C-3.02700821 0.19585142 -3.02700821 0.19585142 0 0 Z " fill="#1F2022" transform="translate(145.91956669092178,53.875801503658295)"/>
<path d="M0 0 C1.08601856 0.00334608 1.08601856 0.00334608 2.19397688 0.00675976 C2.95775003 0.00519977 3.72152318 0.00363978 4.50844097 0.00203252 C7.08727323 -0.00198043 9.66604742 0.00121329 12.2448802 0.00434887 C14.08574664 0.00299496 15.92661281 0.00121509 17.76747847 -0.00096118 C22.781796 -0.00553674 27.79609306 -0.00374546 32.81041098 -0.0005821 C38.04568873 0.00194088 43.28096468 -0.00039586 48.5162425 -0.00196826 C57.30974344 -0.00379014 66.103236 -0.00138317 74.89673567 0.00337231 C85.07881085 0.00881497 95.26086601 0.00705232 105.44294071 0.00154591 C114.16817141 -0.0029847 122.89339606 -0.00363603 131.61862755 -0.00101542 C136.83722369 0.00054764 142.05581041 0.00074032 147.27440596 -0.00255191 C152.17938825 -0.00542987 157.08434461 -0.00345633 161.98932409 0.00234234 C163.79496864 0.00367035 165.60061536 0.00327515 167.40625906 0.00107968 C169.86034928 -0.00163025 172.31435501 0.00174735 174.76843977 0.00675976 C175.49245214 0.00452904 176.21646451 0.00229832 176.96241665 0 C181.86705847 0.01959355 181.86705847 0.01959355 182.98120832 1.13374341 C183.09469993 3.99468558 183.14539324 6.83057796 183.14917707 9.69233716 C183.15250547 10.55182461 183.15583387 11.41131207 183.15926313 12.2968446 C183.16433603 14.11853002 183.16667135 15.94022476 183.16651106 17.76191723 C183.16869635 20.5559363 183.18684477 23.34955997 183.2058177 26.14350903 C183.20875173 27.90978371 183.21073646 29.67606028 183.21167707 31.44233716 C183.21886259 32.28195492 183.22604811 33.12157269 183.23345137 33.98663342 C183.21003014 39.90492159 183.21003014 39.90492159 180.98120832 42.13374341 C178.52720966 42.33108613 176.18598482 42.40308107 173.73084211 42.38771069 C172.59720976 42.39239066 172.59720976 42.39239066 171.44067574 42.39716518 C168.8948637 42.40517619 166.34928798 42.39880956 163.80347395 42.39253247 C161.98378563 42.39524096 160.16409841 42.39880108 158.34441328 42.40315259 C153.39204885 42.41229579 148.43976743 42.4087244 143.48740149 42.40239441 C138.31398873 42.39734439 133.14058326 42.40202308 127.96717024 42.40516675 C119.27798891 42.40880931 110.58884153 42.40399969 101.89966536 42.39448559 C91.84196851 42.38360049 81.78435274 42.38712586 71.72665787 42.3981384 C63.10414528 42.40720302 54.48165716 42.40850061 45.85914135 42.40326107 C40.70367525 42.40013681 35.54824731 42.39974446 30.39278364 42.40633404 C25.54685165 42.4120949 20.70102458 42.40813381 15.85510397 42.39654553 C14.07245575 42.39389217 12.28979876 42.39467548 10.50715399 42.39907086 C8.08184003 42.40450125 5.65686654 42.39772302 3.23157454 42.38771069 C2.51893902 42.39217213 1.80630351 42.39663358 1.07207298 42.40123022 C-3.79049149 42.36204359 -3.79049149 42.36204359 -6.01879168 40.13374341 C-6.20647821 37.20451311 -6.27432809 34.37145944 -6.24926043 31.44233716 C-6.2488022 30.58189297 -6.24834398 29.72144879 -6.24787188 28.83493054 C-6.24484873 27.01500584 -6.23696056 25.19508374 -6.22460222 23.37519848 C-6.20634315 20.57912616 -6.20409252 17.78338474 -6.20433855 14.98725903 C-6.19942357 13.22228219 -6.19359534 11.45730761 -6.18676043 9.69233716 C-6.1856476 8.85069516 -6.18453478 8.00905316 -6.18338823 7.14190686 C-6.12474239 0.02446773 -6.12474239 0.02446773 0 0 Z " fill="#27292E" transform="translate(149.01879167556763,7.866256594657898)"/>
<path d="M0 0 C1.72900291 -0.00422974 1.72900291 -0.00422974 3.49293518 -0.00854492 C4.76882004 -0.00652069 6.0447049 -0.00449646 7.35925293 -0.00241089 C8.70751493 -0.00376492 10.05577655 -0.00554486 11.40403748 -0.00772095 C15.07542508 -0.01229509 18.74678471 -0.0105058 22.41817284 -0.00734186 C26.25208998 -0.00481816 30.08600465 -0.00715583 33.91992188 -0.00872803 C40.35950147 -0.01054969 46.79906961 -0.00814349 53.23864746 -0.00338745 C60.69414643 0.00205517 68.14961806 0.00029251 75.60511637 -0.00521386 C81.99491056 -0.00974507 88.3846965 -0.01039549 94.77449179 -0.00777519 C98.59580528 -0.00621246 102.4171059 -0.00601853 106.23841858 -0.00931168 C109.83016305 -0.01219051 113.42187212 -0.01021447 117.01361275 -0.00441742 C118.96837947 -0.00245429 120.92314918 -0.00544363 122.87791443 -0.00854492 C124.60691734 -0.00431519 124.60691734 -0.00431519 126.37084961 0 C127.88294636 0.00056554 127.88294636 0.00056554 129.42559052 0.0011425 C131.6854248 0.12698364 131.6854248 0.12698364 132.6854248 1.12698364 C132.79891641 3.98792581 132.84960972 6.8238182 132.85339355 9.68557739 C132.85672195 10.54506485 132.86005035 11.40455231 132.86347961 12.29008484 C132.86855251 14.11177025 132.87088783 15.933465 132.87072754 17.75515747 C132.87291283 20.54917654 132.89106125 23.34280021 132.91003418 26.13674927 C132.91296821 27.90302395 132.91495294 29.66930052 132.91589355 31.43557739 C132.92307907 32.27519516 132.93026459 33.11481293 132.93766785 33.97987366 C132.91424662 39.89816183 132.91424662 39.89816183 130.6854248 42.12698364 C128.33657074 42.37866592 128.33657074 42.37866592 125.33325195 42.38095093 C123.62959724 42.3894104 123.62959724 42.3894104 121.89152527 42.39804077 C120.01349968 42.39196808 120.01349968 42.39196808 118.09753418 42.38577271 C116.78372269 42.38927734 115.46991119 42.39278198 114.11628723 42.39639282 C110.50684503 42.40553024 106.89751684 42.40196705 103.28807259 42.39563465 C99.5160198 42.39058163 95.74397698 42.39526415 91.97192383 42.39840698 C85.63666018 42.40204867 79.30144311 42.39724223 72.96618652 42.38772583 C65.6350581 42.37684087 58.3040409 42.38036631 50.97291517 42.39137864 C44.6858371 42.40044576 38.39879257 42.40173962 32.11171007 42.3965013 C28.35352282 42.39337842 24.5953879 42.39298093 20.83720398 42.39957428 C16.64917378 42.40640812 12.46133626 42.3969444 8.27331543 42.38577271 C7.02129837 42.38982117 5.76928131 42.39386963 4.47932434 42.39804077 C3.34355453 42.39240112 2.20778473 42.38676147 1.03759766 42.38095093 C0.04650246 42.38019688 -0.94459274 42.37944283 -1.96572113 42.37866592 C-4.3145752 42.12698364 -4.3145752 42.12698364 -6.3145752 40.12698364 C-6.50226173 37.19775335 -6.57011161 34.36469968 -6.54504395 31.43557739 C-6.54458572 30.57513321 -6.5441275 29.71468903 -6.5436554 28.82817078 C-6.54063225 27.00824607 -6.53274408 25.18832397 -6.52038574 23.36843872 C-6.50212667 20.5723664 -6.49987604 17.77662498 -6.50012207 14.98049927 C-6.49520709 13.21552243 -6.48937886 11.45054784 -6.48254395 9.68557739 C-6.48143112 8.84393539 -6.4803183 8.0022934 -6.47917175 7.13514709 C-6.42039979 0.00240129 -6.42039979 0.00240129 0 0 Z " fill="#1E1F21" transform="translate(149.3145751953125,191.87301635742188)"/>
<path d="M0 0 C1.72900291 -0.00422974 1.72900291 -0.00422974 3.49293518 -0.00854492 C4.76882004 -0.00652069 6.0447049 -0.00449646 7.35925293 -0.00241089 C8.70751493 -0.00376492 10.05577655 -0.00554486 11.40403748 -0.00772095 C15.07542508 -0.01229509 18.74678471 -0.0105058 22.41817284 -0.00734186 C26.25208998 -0.00481816 30.08600465 -0.00715583 33.91992188 -0.00872803 C40.35950147 -0.01054969 46.79906961 -0.00814349 53.23864746 -0.00338745 C60.69414643 0.00205517 68.14961806 0.00029251 75.60511637 -0.00521386 C81.99491056 -0.00974507 88.3846965 -0.01039549 94.77449179 -0.00777519 C98.59580528 -0.00621246 102.4171059 -0.00601853 106.23841858 -0.00931168 C109.83016305 -0.01219051 113.42187212 -0.01021447 117.01361275 -0.00441742 C118.96837947 -0.00245429 120.92314918 -0.00544363 122.87791443 -0.00854492 C124.60691734 -0.00431519 124.60691734 -0.00431519 126.37084961 0 C127.88294636 0.00056554 127.88294636 0.00056554 129.42559052 0.0011425 C131.6854248 0.12698364 131.6854248 0.12698364 132.6854248 1.12698364 C132.79891641 3.98792581 132.84960972 6.8238182 132.85339355 9.68557739 C132.85672195 10.54506485 132.86005035 11.40455231 132.86347961 12.29008484 C132.86855251 14.11177025 132.87088783 15.933465 132.87072754 17.75515747 C132.87291283 20.54917654 132.89106125 23.34280021 132.91003418 26.13674927 C132.91296821 27.90302395 132.91495294 29.66930052 132.91589355 31.43557739 C132.92307907 32.27519516 132.93026459 33.11481293 132.93766785 33.97987366 C132.91424662 39.89816183 132.91424662 39.89816183 130.6854248 42.12698364 C128.33657074 42.37866592 128.33657074 42.37866592 125.33325195 42.38095093 C123.62959724 42.3894104 123.62959724 42.3894104 121.89152527 42.39804077 C120.01349968 42.39196808 120.01349968 42.39196808 118.09753418 42.38577271 C116.78372269 42.38927734 115.46991119 42.39278198 114.11628723 42.39639282 C110.50684503 42.40553024 106.89751684 42.40196705 103.28807259 42.39563465 C99.5160198 42.39058163 95.74397698 42.39526415 91.97192383 42.39840698 C85.63666018 42.40204867 79.30144311 42.39724223 72.96618652 42.38772583 C65.6350581 42.37684087 58.3040409 42.38036631 50.97291517 42.39137864 C44.6858371 42.40044576 38.39879257 42.40173962 32.11171007 42.3965013 C28.35352282 42.39337842 24.5953879 42.39298093 20.83720398 42.39957428 C16.64917378 42.40640812 12.46133626 42.3969444 8.27331543 42.38577271 C7.02129837 42.38982117 5.76928131 42.39386963 4.47932434 42.39804077 C3.34355453 42.39240112 2.20778473 42.38676147 1.03759766 42.38095093 C0.04650246 42.38019688 -0.94459274 42.37944283 -1.96572113 42.37866592 C-4.3145752 42.12698364 -4.3145752 42.12698364 -6.3145752 40.12698364 C-6.50226173 37.19775335 -6.57011161 34.36469968 -6.54504395 31.43557739 C-6.54458572 30.57513321 -6.5441275 29.71468903 -6.5436554 28.82817078 C-6.54063225 27.00824607 -6.53274408 25.18832397 -6.52038574 23.36843872 C-6.50212667 20.5723664 -6.49987604 17.77662498 -6.50012207 14.98049927 C-6.49520709 13.21552243 -6.48937886 11.45054784 -6.48254395 9.68557739 C-6.48143112 8.84393539 -6.4803183 8.0022934 -6.47917175 7.13514709 C-6.42039979 0.00240129 -6.42039979 0.00240129 0 0 Z " fill="#1E1F21" transform="translate(149.3145751953125,145.87301635742188)"/>
<path d="M0 0 C1.72900291 -0.00422974 1.72900291 -0.00422974 3.49293518 -0.00854492 C4.76882004 -0.00652069 6.0447049 -0.00449646 7.35925293 -0.00241089 C8.70751493 -0.00376492 10.05577655 -0.00554486 11.40403748 -0.00772095 C15.07542508 -0.01229509 18.74678471 -0.0105058 22.41817284 -0.00734186 C26.25208998 -0.00481816 30.08600465 -0.00715583 33.91992188 -0.00872803 C40.35950147 -0.01054969 46.79906961 -0.00814349 53.23864746 -0.00338745 C60.69414643 0.00205517 68.14961806 0.00029251 75.60511637 -0.00521386 C81.99491056 -0.00974507 88.3846965 -0.01039549 94.77449179 -0.00777519 C98.59580528 -0.00621246 102.4171059 -0.00601853 106.23841858 -0.00931168 C109.83016305 -0.01219051 113.42187212 -0.01021447 117.01361275 -0.00441742 C118.96837947 -0.00245429 120.92314918 -0.00544363 122.87791443 -0.00854492 C124.60691734 -0.00431519 124.60691734 -0.00431519 126.37084961 0 C127.88294636 0.00056554 127.88294636 0.00056554 129.42559052 0.0011425 C131.6854248 0.12698364 131.6854248 0.12698364 132.6854248 1.12698364 C132.79891641 3.98792581 132.84960972 6.8238182 132.85339355 9.68557739 C132.85672195 10.54506485 132.86005035 11.40455231 132.86347961 12.29008484 C132.86855251 14.11177025 132.87088783 15.933465 132.87072754 17.75515747 C132.87291283 20.54917654 132.89106125 23.34280021 132.91003418 26.13674927 C132.91296821 27.90302395 132.91495294 29.66930052 132.91589355 31.43557739 C132.92307907 32.27519516 132.93026459 33.11481293 132.93766785 33.97987366 C132.91424662 39.89816183 132.91424662 39.89816183 130.6854248 42.12698364 C128.33657074 42.37866592 128.33657074 42.37866592 125.33325195 42.38095093 C123.62959724 42.3894104 123.62959724 42.3894104 121.89152527 42.39804077 C120.01349968 42.39196808 120.01349968 42.39196808 118.09753418 42.38577271 C116.78372269 42.38927734 115.46991119 42.39278198 114.11628723 42.39639282 C110.50684503 42.40553024 106.89751684 42.40196705 103.28807259 42.39563465 C99.5160198 42.39058163 95.74397698 42.39526415 91.97192383 42.39840698 C85.63666018 42.40204867 79.30144311 42.39724223 72.96618652 42.38772583 C65.6350581 42.37684087 58.3040409 42.38036631 50.97291517 42.39137864 C44.6858371 42.40044576 38.39879257 42.40173962 32.11171007 42.3965013 C28.35352282 42.39337842 24.5953879 42.39298093 20.83720398 42.39957428 C16.64917378 42.40640812 12.46133626 42.3969444 8.27331543 42.38577271 C7.02129837 42.38982117 5.76928131 42.39386963 4.47932434 42.39804077 C3.34355453 42.39240112 2.20778473 42.38676147 1.03759766 42.38095093 C0.04650246 42.38019688 -0.94459274 42.37944283 -1.96572113 42.37866592 C-4.3145752 42.12698364 -4.3145752 42.12698364 -6.3145752 40.12698364 C-6.50226173 37.19775335 -6.57011161 34.36469968 -6.54504395 31.43557739 C-6.54458572 30.57513321 -6.5441275 29.71468903 -6.5436554 28.82817078 C-6.54063225 27.00824607 -6.53274408 25.18832397 -6.52038574 23.36843872 C-6.50212667 20.5723664 -6.49987604 17.77662498 -6.50012207 14.98049927 C-6.49520709 13.21552243 -6.48937886 11.45054784 -6.48254395 9.68557739 C-6.48143112 8.84393539 -6.4803183 8.0022934 -6.47917175 7.13514709 C-6.42039979 0.00240129 -6.42039979 0.00240129 0 0 Z " fill="#1E1F21" transform="translate(149.3145751953125,99.87301635742188)"/>
<path d="M0 0 C1.72900291 -0.00422974 1.72900291 -0.00422974 3.49293518 -0.00854492 C4.76882004 -0.00652069 6.0447049 -0.00449646 7.35925293 -0.00241089 C8.70751493 -0.00376492 10.05577655 -0.00554486 11.40403748 -0.00772095 C15.07542508 -0.01229509 18.74678471 -0.0105058 22.41817284 -0.00734186 C26.25208998 -0.00481816 30.08600465 -0.00715583 33.91992188 -0.00872803 C40.35950147 -0.01054969 46.79906961 -0.00814349 53.23864746 -0.00338745 C60.69414643 0.00205517 68.14961806 0.00029251 75.60511637 -0.00521386 C81.99491056 -0.00974507 88.3846965 -0.01039549 94.77449179 -0.00777519 C98.59580528 -0.00621246 102.4171059 -0.00601853 106.23841858 -0.00931168 C109.83016305 -0.01219051 113.42187212 -0.01021447 117.01361275 -0.00441742 C118.96837947 -0.00245429 120.92314918 -0.00544363 122.87791443 -0.00854492 C124.60691734 -0.00431519 124.60691734 -0.00431519 126.37084961 0 C127.88294636 0.00056554 127.88294636 0.00056554 129.42559052 0.0011425 C131.6854248 0.12698364 131.6854248 0.12698364 132.6854248 1.12698364 C132.79891641 3.98792581 132.84960972 6.8238182 132.85339355 9.68557739 C132.85672195 10.54506485 132.86005035 11.40455231 132.86347961 12.29008484 C132.86855251 14.11177025 132.87088783 15.933465 132.87072754 17.75515747 C132.87291283 20.54917654 132.89106125 23.34280021 132.91003418 26.13674927 C132.91296821 27.90302395 132.91495294 29.66930052 132.91589355 31.43557739 C132.92307907 32.27519516 132.93026459 33.11481293 132.93766785 33.97987366 C132.91424662 39.89816183 132.91424662 39.89816183 130.6854248 42.12698364 C128.33657074 42.37866592 128.33657074 42.37866592 125.33325195 42.38095093 C123.62959724 42.3894104 123.62959724 42.3894104 121.89152527 42.39804077 C120.01349968 42.39196808 120.01349968 42.39196808 118.09753418 42.38577271 C116.78372269 42.38927734 115.46991119 42.39278198 114.11628723 42.39639282 C110.50684503 42.40553024 106.89751684 42.40196705 103.28807259 42.39563465 C99.5160198 42.39058163 95.74397698 42.39526415 91.97192383 42.39840698 C85.63666018 42.40204867 79.30144311 42.39724223 72.96618652 42.38772583 C65.6350581 42.37684087 58.3040409 42.38036631 50.97291517 42.39137864 C44.6858371 42.40044576 38.39879257 42.40173962 32.11171007 42.3965013 C28.35352282 42.39337842 24.5953879 42.39298093 20.83720398 42.39957428 C16.64917378 42.40640812 12.46133626 42.3969444 8.27331543 42.38577271 C7.02129837 42.38982117 5.76928131 42.39386963 4.47932434 42.39804077 C3.34355453 42.39240112 2.20778473 42.38676147 1.03759766 42.38095093 C0.04650246 42.38019688 -0.94459274 42.37944283 -1.96572113 42.37866592 C-4.3145752 42.12698364 -4.3145752 42.12698364 -6.3145752 40.12698364 C-6.50226173 37.19775335 -6.57011161 34.36469968 -6.54504395 31.43557739 C-6.54458572 30.57513321 -6.5441275 29.71468903 -6.5436554 28.82817078 C-6.54063225 27.00824607 -6.53274408 25.18832397 -6.52038574 23.36843872 C-6.50212667 20.5723664 -6.49987604 17.77662498 -6.50012207 14.98049927 C-6.49520709 13.21552243 -6.48937886 11.45054784 -6.48254395 9.68557739 C-6.48143112 8.84393539 -6.4803183 8.0022934 -6.47917175 7.13514709 C-6.42039979 0.00240129 -6.42039979 0.00240129 0 0 Z " fill="#1E1F21" transform="translate(149.3145751953125,53.873016357421875)"/>
<path d="M0 0 C1.49192194 0.00138269 1.49192194 0.00138269 3.01398373 0.00279331 C4.15126919 0.00141865 5.28855465 0.00004398 6.46030331 -0.00137234 C7.71905773 0.00222294 8.97781216 0.00581821 10.27471066 0.00952244 C11.59158871 0.00937641 12.90846676 0.00923038 14.26525021 0.00907993 C17.88698982 0.00879196 21.5086966 0.01468859 25.13042855 0.02165389 C28.91142598 0.02788753 32.69242409 0.02849124 36.47342587 0.0296793 C43.63805004 0.03279258 50.80265904 0.04100594 57.96727651 0.05102879 C66.12191876 0.06219001 74.27656171 0.0677004 82.43120968 0.07272422 C99.21035107 0.08318855 115.98947717 0.10078794 132.76860714 0.12304783 C132.76337032 1.32429295 132.75813351 2.52553806 132.752738 3.76318455 C132.73467061 8.20979158 132.72316874 12.65639536 132.7136755 17.1030283 C132.70863927 19.02946613 132.70181002 20.95590014 132.69316769 22.88232517 C132.68107106 25.64747151 132.67537181 28.41256741 132.67095089 31.17773533 C132.6657896 32.04236393 132.66062832 32.90699253 132.65531063 33.797822 C132.52476825 38.09555785 132.52476825 38.09555785 133.76860714 42.12304783 C116.05368247 42.14637615 98.33876177 42.16402667 80.62382507 42.17486 C72.39904995 42.1800231 64.17428435 42.18706606 55.94951534 42.19848728 C48.78340268 42.20843369 41.61729691 42.21490115 34.45117754 42.21713632 C30.65443725 42.2184435 26.85771669 42.22152981 23.0609827 42.22877789 C19.49141812 42.23553743 15.92188151 42.23766493 12.35231113 42.23615551 C10.40945868 42.23656418 8.4666093 42.24195973 6.52376461 42.24746799 C5.37806499 42.24609333 4.23236538 42.24471867 3.05194759 42.24330235 C2.04995862 42.24422414 1.04796965 42.24514593 0.01561737 42.24609566 C-2.23139286 42.12304783 -2.23139286 42.12304783 -3.23139286 41.12304783 C-3.33249639 38.17769213 -3.37108565 35.25627223 -3.36420536 32.31054783 C-3.36516209 31.42649265 -3.36611881 30.54243748 -3.36710453 29.63159275 C-3.36778638 27.75862653 -3.36593179 25.88565797 -3.36176395 24.01269627 C-3.35641575 21.13536395 -3.36170879 18.25818775 -3.36811161 15.38086033 C-3.36745083 13.56575582 -3.36616967 11.7506514 -3.36420536 9.93554783 C-3.36622959 9.068895 -3.36825382 8.20224216 -3.37033939 7.30932713 C-3.3421783 0.18430093 -3.3421783 0.18430093 0 0 Z " fill="#292B30" transform="translate(11.231392860412598,191.87695217132568)"/>
<path d="M0 0 C1.49192194 0.00138269 1.49192194 0.00138269 3.01398373 0.00279331 C4.15126919 0.00141865 5.28855465 0.00004398 6.46030331 -0.00137234 C7.71905773 0.00222294 8.97781216 0.00581821 10.27471066 0.00952244 C11.59158871 0.00937641 12.90846676 0.00923038 14.26525021 0.00907993 C17.88698982 0.00879196 21.5086966 0.01468859 25.13042855 0.02165389 C28.91142598 0.02788753 32.69242409 0.02849124 36.47342587 0.0296793 C43.63805004 0.03279258 50.80265904 0.04100594 57.96727651 0.05102879 C66.12191876 0.06219001 74.27656171 0.0677004 82.43120968 0.07272422 C99.21035107 0.08318855 115.98947717 0.10078794 132.76860714 0.12304783 C132.76337032 1.32429295 132.75813351 2.52553806 132.752738 3.76318455 C132.73467061 8.20979158 132.72316874 12.65639536 132.7136755 17.1030283 C132.70863927 19.02946613 132.70181002 20.95590014 132.69316769 22.88232517 C132.68107106 25.64747151 132.67537181 28.41256741 132.67095089 31.17773533 C132.6657896 32.04236393 132.66062832 32.90699253 132.65531063 33.797822 C132.52476825 38.09555785 132.52476825 38.09555785 133.76860714 42.12304783 C116.05368247 42.14637615 98.33876177 42.16402667 80.62382507 42.17486 C72.39904995 42.1800231 64.17428435 42.18706606 55.94951534 42.19848728 C48.78340268 42.20843369 41.61729691 42.21490115 34.45117754 42.21713632 C30.65443725 42.2184435 26.85771669 42.22152981 23.0609827 42.22877789 C19.49141812 42.23553743 15.92188151 42.23766493 12.35231113 42.23615551 C10.40945868 42.23656418 8.4666093 42.24195973 6.52376461 42.24746799 C5.37806499 42.24609333 4.23236538 42.24471867 3.05194759 42.24330235 C2.04995862 42.24422414 1.04796965 42.24514593 0.01561737 42.24609566 C-2.23139286 42.12304783 -2.23139286 42.12304783 -3.23139286 41.12304783 C-3.33249639 38.17769213 -3.37108565 35.25627223 -3.36420536 32.31054783 C-3.36516209 31.42649265 -3.36611881 30.54243748 -3.36710453 29.63159275 C-3.36778638 27.75862653 -3.36593179 25.88565797 -3.36176395 24.01269627 C-3.35641575 21.13536395 -3.36170879 18.25818775 -3.36811161 15.38086033 C-3.36745083 13.56575582 -3.36616967 11.7506514 -3.36420536 9.93554783 C-3.36622959 9.068895 -3.36825382 8.20224216 -3.37033939 7.30932713 C-3.3421783 0.18430093 -3.3421783 0.18430093 0 0 Z " fill="#282A2F" transform="translate(11.231392860412598,145.87695217132568)"/>
<path d="M0 0 C1.49192194 0.00138269 1.49192194 0.00138269 3.01398373 0.00279331 C4.15126919 0.00141865 5.28855465 0.00004398 6.46030331 -0.00137234 C7.71905773 0.00222294 8.97781216 0.00581821 10.27471066 0.00952244 C11.59158871 0.00937641 12.90846676 0.00923038 14.26525021 0.00907993 C17.88698982 0.00879196 21.5086966 0.01468859 25.13042855 0.02165389 C28.91142598 0.02788753 32.69242409 0.02849124 36.47342587 0.0296793 C43.63805004 0.03279258 50.80265904 0.04100594 57.96727651 0.05102879 C66.12191876 0.06219001 74.27656171 0.0677004 82.43120968 0.07272422 C99.21035107 0.08318855 115.98947717 0.10078794 132.76860714 0.12304783 C132.76337032 1.32429295 132.75813351 2.52553806 132.752738 3.76318455 C132.73467061 8.20979158 132.72316874 12.65639536 132.7136755 17.1030283 C132.70863927 19.02946613 132.70181002 20.95590014 132.69316769 22.88232517 C132.68107106 25.64747151 132.67537181 28.41256741 132.67095089 31.17773533 C132.6657896 32.04236393 132.66062832 32.90699253 132.65531063 33.797822 C132.52476825 38.09555785 132.52476825 38.09555785 133.76860714 42.12304783 C116.05368247 42.14637615 98.33876177 42.16402667 80.62382507 42.17486 C72.39904995 42.1800231 64.17428435 42.18706606 55.94951534 42.19848728 C48.78340268 42.20843369 41.61729691 42.21490115 34.45117754 42.21713632 C30.65443725 42.2184435 26.85771669 42.22152981 23.0609827 42.22877789 C19.49141812 42.23553743 15.92188151 42.23766493 12.35231113 42.23615551 C10.40945868 42.23656418 8.4666093 42.24195973 6.52376461 42.24746799 C5.37806499 42.24609333 4.23236538 42.24471867 3.05194759 42.24330235 C2.04995862 42.24422414 1.04796965 42.24514593 0.01561737 42.24609566 C-2.23139286 42.12304783 -2.23139286 42.12304783 -3.23139286 41.12304783 C-3.33249639 38.17769213 -3.37108565 35.25627223 -3.36420536 32.31054783 C-3.36516209 31.42649265 -3.36611881 30.54243748 -3.36710453 29.63159275 C-3.36778638 27.75862653 -3.36593179 25.88565797 -3.36176395 24.01269627 C-3.35641575 21.13536395 -3.36170879 18.25818775 -3.36811161 15.38086033 C-3.36745083 13.56575582 -3.36616967 11.7506514 -3.36420536 9.93554783 C-3.36622959 9.068895 -3.36825382 8.20224216 -3.37033939 7.30932713 C-3.3421783 0.18430093 -3.3421783 0.18430093 0 0 Z " fill="#282A2F" transform="translate(11.231392860412598,99.87695217132568)"/>
<path d="M0 0 C1.49192194 0.00138269 1.49192194 0.00138269 3.01398373 0.00279331 C4.15126919 0.00141865 5.28855465 0.00004398 6.46030331 -0.00137234 C7.71905773 0.00222294 8.97781216 0.00581821 10.27471066 0.00952244 C11.59158871 0.00937641 12.90846676 0.00923038 14.26525021 0.00907993 C17.88698982 0.00879196 21.5086966 0.01468859 25.13042855 0.02165389 C28.91142598 0.02788753 32.69242409 0.02849124 36.47342587 0.0296793 C43.63805004 0.03279258 50.80265904 0.04100594 57.96727651 0.05102879 C66.12191876 0.06219001 74.27656171 0.0677004 82.43120968 0.07272422 C99.21035107 0.08318855 115.98947717 0.10078794 132.76860714 0.12304783 C132.76337032 1.32429295 132.75813351 2.52553806 132.752738 3.76318455 C132.73467061 8.20979158 132.72316874 12.65639536 132.7136755 17.1030283 C132.70863927 19.02946613 132.70181002 20.95590014 132.69316769 22.88232517 C132.68107106 25.64747151 132.67537181 28.41256741 132.67095089 31.17773533 C132.6657896 32.04236393 132.66062832 32.90699253 132.65531063 33.797822 C132.52476825 38.09555785 132.52476825 38.09555785 133.76860714 42.12304783 C116.05368247 42.14637615 98.33876177 42.16402667 80.62382507 42.17486 C72.39904995 42.1800231 64.17428435 42.18706606 55.94951534 42.19848728 C48.78340268 42.20843369 41.61729691 42.21490115 34.45117754 42.21713632 C30.65443725 42.2184435 26.85771669 42.22152981 23.0609827 42.22877789 C19.49141812 42.23553743 15.92188151 42.23766493 12.35231113 42.23615551 C10.40945868 42.23656418 8.4666093 42.24195973 6.52376461 42.24746799 C5.37806499 42.24609333 4.23236538 42.24471867 3.05194759 42.24330235 C2.04995862 42.24422414 1.04796965 42.24514593 0.01561737 42.24609566 C-2.23139286 42.12304783 -2.23139286 42.12304783 -3.23139286 41.12304783 C-3.33249639 38.17769213 -3.37108565 35.25627223 -3.36420536 32.31054783 C-3.36516209 31.42649265 -3.36611881 30.54243748 -3.36710453 29.63159275 C-3.36778638 27.75862653 -3.36593179 25.88565797 -3.36176395 24.01269627 C-3.35641575 21.13536395 -3.36170879 18.25818775 -3.36811161 15.38086033 C-3.36745083 13.56575582 -3.36616967 11.7506514 -3.36420536 9.93554783 C-3.36622959 9.068895 -3.36825382 8.20224216 -3.37033939 7.30932713 C-3.3421783 0.18430093 -3.3421783 0.18430093 0 0 Z " fill="#292B30" transform="translate(11.231392860412598,53.876952171325684)"/>
<path d="M0 0 C29.7 0 59.4 0 90 0 C90 3.63 90 7.26 90 11 C89.319375 10.21625 88.63875 9.4325 87.9375 8.625 C84.48691084 5.54149479 82.43433338 4.95642485 78 4 C78.28875 4.90363281 78.5775 5.80726562 78.875 6.73828125 C79.24625 7.91777344 79.6175 9.09726562 80 10.3125 C80.556875 12.07013672 80.556875 12.07013672 81.125 13.86328125 C82 17 82 17 82 20 C80.7625 20.0825 79.525 20.165 78.25 20.25 C75.33206172 20.63285006 74.02731905 20.98224262 71.5 22.625 C69.38757769 25.96966866 69.44562645 28.11938517 70 32 C71.3530128 34.60314994 71.3530128 34.60314994 74 36 C78.25703711 36.6891515 82.40094204 36.59132173 86 34 C88.27523891 29.44952219 87.34524052 25.06966046 85.84765625 20.4296875 C84.94082079 17.92509434 83.97526402 15.45500431 82.99609375 12.9765625 C82.66738281 11.99429687 82.33867187 11.01203125 82 10 C82.33 9.34 82.66 8.68 83 8 C85 9.4375 85 9.4375 87 12 C87.35442445 15.02824418 87.23347235 17.96485939 87 21 C87.99 21 88.98 21 90 21 C90 27.93 90 34.86 90 42 C60.3 42 30.6 42 0 42 C0 28.14 0 14.28 0 0 Z " fill="#0000FD" transform="translate(336,8)"/>
<path d="M0 0 C21.45 0 42.9 0 65 0 C65 13.86 65 27.72 65 42 C43.55 42 22.1 42 0 42 C0 28.14 0 14.28 0 0 Z " fill="#008000" transform="translate(359,192)"/>
<path d="M0 0 C21.45 0 42.9 0 65 0 C65 13.86 65 27.72 65 42 C43.55 42 22.1 42 0 42 C0 28.14 0 14.28 0 0 Z " fill="#008000" transform="translate(359,146)"/>
<path d="M0 0 C21.45 0 42.9 0 65 0 C65 13.86 65 27.72 65 42 C43.55 42 22.1 42 0 42 C0 28.14 0 14.28 0 0 Z " fill="#008000" transform="translate(359,100)"/>
<path d="M0 0 C21.45 0 42.9 0 65 0 C65 13.86 65 27.72 65 42 C43.55 42 22.1 42 0 42 C0 28.14 0 14.28 0 0 Z " fill="#008000" transform="translate(359,54)"/>
<path d="M0 0 C7.92 0 15.84 0 24 0 C24 7.92 24 15.84 24 24 C16.08 24 8.16 24 0 24 C0 16.08 0 8.16 0 0 Z " fill="#141414" transform="translate(310,201)"/>
<path d="M0 0 C7.92 0 15.84 0 24 0 C24 7.92 24 15.84 24 24 C16.08 24 8.16 24 0 24 C0 16.08 0 8.16 0 0 Z " fill="#141414" transform="translate(310,155)"/>
<path d="M0 0 C7.92 0 15.84 0 24 0 C24 7.92 24 15.84 24 24 C16.08 24 8.16 24 0 24 C0 16.08 0 8.16 0 0 Z " fill="#141414" transform="translate(310,109)"/>
<path d="M0 0 C7.92 0 15.84 0 24 0 C24 7.92 24 15.84 24 24 C16.08 24 8.16 24 0 24 C0 16.08 0 8.16 0 0 Z " fill="#141414" transform="translate(310,63)"/>
<path d="M0 0 C62.37 0 124.74 0 189 0 C188.34 1.32 187.68 2.64 187 4 C125.95 4 64.9 4 2 4 C1.34 2.68 0.68 1.36 0 0 Z " fill="#191C20" transform="translate(143,46)"/>
<path d="M0 0 C10.125 3.375 10.125 3.375 14.47265625 5.48046875 C15.39111328 5.92197266 16.30957031 6.36347656 17.25585938 6.81835938 C18.18205078 7.27017578 19.10824219 7.72199219 20.0625 8.1875 C21.02349609 8.65091797 21.98449219 9.11433594 22.97460938 9.59179688 C25.3187827 10.7230646 27.66045971 11.85919011 30 13 C30 13.99 30 14.98 30 16 C26.05125409 17.85626755 22.10022073 19.7075463 18.14697266 21.55419922 C16.8019281 22.18335916 15.45752282 22.81388766 14.11376953 23.44580078 C12.18427549 24.35287658 10.25255007 25.25503611 8.3203125 26.15625 C7.15773926 26.70087891 5.99516602 27.24550781 4.79736328 27.80664062 C2 29 2 29 0 29 C0 19.43 0 9.86 0 0 Z " fill="#1FA447" transform="translate(376,198)"/>
<path d="M0 0 C10.125 3.375 10.125 3.375 14.47265625 5.48046875 C15.39111328 5.92197266 16.30957031 6.36347656 17.25585938 6.81835938 C18.18205078 7.27017578 19.10824219 7.72199219 20.0625 8.1875 C21.02349609 8.65091797 21.98449219 9.11433594 22.97460938 9.59179688 C25.3187827 10.7230646 27.66045971 11.85919011 30 13 C30 13.99 30 14.98 30 16 C26.05125409 17.85626755 22.10022073 19.7075463 18.14697266 21.55419922 C16.8019281 22.18335916 15.45752282 22.81388766 14.11376953 23.44580078 C12.18427549 24.35287658 10.25255007 25.25503611 8.3203125 26.15625 C7.15773926 26.70087891 5.99516602 27.24550781 4.79736328 27.80664062 C2 29 2 29 0 29 C0 19.43 0 9.86 0 0 Z " fill="#1FA447" transform="translate(376,152)"/>
<path d="M0 0 C10.125 3.375 10.125 3.375 14.47265625 5.48046875 C15.39111328 5.92197266 16.30957031 6.36347656 17.25585938 6.81835938 C18.18205078 7.27017578 19.10824219 7.72199219 20.0625 8.1875 C21.02349609 8.65091797 21.98449219 9.11433594 22.97460938 9.59179688 C25.3187827 10.7230646 27.66045971 11.85919011 30 13 C30 13.99 30 14.98 30 16 C26.05125409 17.85626755 22.10022073 19.7075463 18.14697266 21.55419922 C16.8019281 22.18335916 15.45752282 22.81388766 14.11376953 23.44580078 C12.18427549 24.35287658 10.25255007 25.25503611 8.3203125 26.15625 C7.15773926 26.70087891 5.99516602 27.24550781 4.79736328 27.80664062 C2 29 2 29 0 29 C0 19.43 0 9.86 0 0 Z " fill="#1FA447" transform="translate(376,106)"/>
<path d="M0 0 C10.125 3.375 10.125 3.375 14.47265625 5.48046875 C15.39111328 5.92197266 16.30957031 6.36347656 17.25585938 6.81835938 C18.18205078 7.27017578 19.10824219 7.72199219 20.0625 8.1875 C21.02349609 8.65091797 21.98449219 9.11433594 22.97460938 9.59179688 C25.3187827 10.7230646 27.66045971 11.85919011 30 13 C30 13.99 30 14.98 30 16 C26.05125409 17.85626755 22.10022073 19.7075463 18.14697266 21.55419922 C16.8019281 22.18335916 15.45752282 22.81388766 14.11376953 23.44580078 C12.18427549 24.35287658 10.25255007 25.25503611 8.3203125 26.15625 C7.15773926 26.70087891 5.99516602 27.24550781 4.79736328 27.80664062 C2 29 2 29 0 29 C0 19.43 0 9.86 0 0 Z " fill="#1FA447" transform="translate(376,60)"/>
<path d="M0 0 C1.134375 0.020625 2.26875 0.04125 3.4375 0.0625 C6.80147794 6.12063727 9.44342332 12.37574456 11.8125 18.875 C12.08723145 19.60388428 12.36196289 20.33276855 12.64501953 21.08374023 C14.07330261 25.10894371 14.8115741 27.9483605 13.4375 32.0625 C11.7875 31.7325 10.1375 31.4025 8.4375 31.0625 C7.7775 28.7525 7.1175 26.4425 6.4375 24.0625 C0.0025 24.5575 0.0025 24.5575 -6.5625 25.0625 C-7.2225 27.0425 -7.8825 29.0225 -8.5625 31.0625 C-10.2125 31.0625 -11.8625 31.0625 -13.5625 31.0625 C-12.33773393 23.93893879 -10.45301412 17.29257313 -8 10.5 C-7.52530273 9.14938477 -7.52530273 9.14938477 -7.04101562 7.77148438 C-4.30532236 0.07553197 -4.30532236 0.07553197 0 0 Z " fill="#00476F" transform="translate(350.5625,12.9375)"/>
<path d="M0 0 C7.244298 2.13766171 13.46718285 5.22684019 20 9 C20 9.66 20 10.32 20 11 C17.23456804 12.51012131 14.46183193 14.00630148 11.6875 15.5 C10.50897461 16.14388672 10.50897461 16.14388672 9.30664062 16.80078125 C8.1706543 17.40986328 8.1706543 17.40986328 7.01171875 18.03125 C6.31522217 18.40830078 5.61872559 18.78535156 4.90112305 19.17382812 C3 20 3 20 0 20 C0 18.68 0 17.36 0 16 C-5.94 16 -11.88 16 -18 16 C-18 12.04 -18 8.08 -18 4 C-12.06 4 -6.12 4 0 4 C0 2.68 0 1.36 0 0 Z " fill="#004374" transform="translate(384,18)"/>
<path d="M0 0 C4.38334042 0.1718957 6.51975534 0.60149911 9.9375 3.4375 C13.00177488 7.53321381 12.43376208 12.12258636 12 17 C11.01 17 10.02 17 9 17 C8.96261719 16.38511719 8.92523438 15.77023438 8.88671875 15.13671875 C8.78810547 13.92435547 8.78810547 13.92435547 8.6875 12.6875 C8.62949219 11.88699219 8.57148438 11.08648437 8.51171875 10.26171875 C7.91793306 7.63727666 7.04219706 6.69179328 5 5 C5.3609375 5.99 5.721875 6.98 6.09375 8 C11.03615426 21.89820266 11.03615426 21.89820266 10 28 C8.12984906 30.43119623 6.71861655 31.64069173 4 33 C-2.99869622 33.68839635 -2.99869622 33.68839635 -7 30.9375 C-9.52975133 27.22192774 -9.7878128 25.4117517 -9 21 C-7 18.0625 -7 18.0625 -4 16 C-1.19256186 15.59523073 1.14074541 15.75769029 4 16 C3.71125 15.09636719 3.4225 14.19273438 3.125 13.26171875 C2.75375 12.08222656 2.3825 10.90273438 2 9.6875 C1.62875 8.51574219 1.2575 7.34398437 0.875 6.13671875 C0 3 0 3 0 0 Z " fill="#00456F" transform="translate(414,12)"/>
<path d="M0 0 C3.3 0 6.6 0 10 0 C10 13.86 10 27.72 10 42 C6.37 42 2.74 42 -1 42 C-0.67 41.34 -0.34 40.68 0 40 C0.08705146 37.01029711 0.11550145 34.04415045 0.09765625 31.0546875 C0.09553383 29.72716965 0.09553383 29.72716965 0.09336853 28.37283325 C0.0877614 25.54018809 0.07520771 22.70762136 0.0625 19.875 C0.05748592 17.95703239 0.05292285 16.03906354 0.04882812 14.12109375 C0.03778966 9.41403218 0.02052025 4.7070294 0 0 Z " fill="#27292E" transform="translate(281,192)"/>
<path d="M0 0 C3.3 0 6.6 0 10 0 C10 13.86 10 27.72 10 42 C6.37 42 2.74 42 -1 42 C-0.67 41.34 -0.34 40.68 0 40 C0.08705146 37.01029711 0.11550145 34.04415045 0.09765625 31.0546875 C0.09553383 29.72716965 0.09553383 29.72716965 0.09336853 28.37283325 C0.0877614 25.54018809 0.07520771 22.70762136 0.0625 19.875 C0.05748592 17.95703239 0.05292285 16.03906354 0.04882812 14.12109375 C0.03778966 9.41403218 0.02052025 4.7070294 0 0 Z " fill="#27292E" transform="translate(281,146)"/>
<path d="M0 0 C3.3 0 6.6 0 10 0 C10 13.86 10 27.72 10 42 C6.37 42 2.74 42 -1 42 C-0.67 41.34 -0.34 40.68 0 40 C0.08705146 37.01029711 0.11550145 34.04415045 0.09765625 31.0546875 C0.09553383 29.72716965 0.09553383 29.72716965 0.09336853 28.37283325 C0.0877614 25.54018809 0.07520771 22.70762136 0.0625 19.875 C0.05748592 17.95703239 0.05292285 16.03906354 0.04882812 14.12109375 C0.03778966 9.41403218 0.02052025 4.7070294 0 0 Z " fill="#27292E" transform="translate(281,100)"/>
<path d="M0 0 C3.3 0 6.6 0 10 0 C10 13.86 10 27.72 10 42 C6.37 42 2.74 42 -1 42 C-0.67 41.34 -0.34 40.68 0 40 C0.08705146 37.01029711 0.11550145 34.04415045 0.09765625 31.0546875 C0.09553383 29.72716965 0.09553383 29.72716965 0.09336853 28.37283325 C0.0877614 25.54018809 0.07520771 22.70762136 0.0625 19.875 C0.05748592 17.95703239 0.05292285 16.03906354 0.04882812 14.12109375 C0.03778966 9.41403218 0.02052025 4.7070294 0 0 Z " fill="#27292E" transform="translate(281,54)"/>
<path d="M0 0 C1.41791408 0.45445964 2.83428046 0.91374944 4.25 1.375 C5.43335938 1.75785156 5.43335938 1.75785156 6.640625 2.1484375 C8.86627958 2.95173667 10.90931672 3.89711662 13 5 C13 5.66 13 6.32 13 7 C11.39967863 7.84069415 9.79458829 8.67231505 8.1875 9.5 C7.29417969 9.9640625 6.40085937 10.428125 5.48046875 10.90625 C3 12 3 12 0 12 C0 11.01 0 10.02 0 9 C-5.94 9 -11.88 9 -18 9 C-18 7.02 -18 5.04 -18 3 C-12.06 3 -6.12 3 0 3 C0 2.01 0 1.02 0 0 Z " fill="#003348" transform="translate(386,22)"/>
<path d="M0 0 C1.65 0 3.3 0 5 0 C5.50559908 1.43554025 6.0042749 2.8735202 6.5 4.3125 C6.7784375 5.11300781 7.056875 5.91351563 7.34375 6.73828125 C8 9 8 9 8 12 C8.66 12 9.32 12 10 12 C10.103125 11.13375 10.20625 10.2675 10.3125 9.375 C11.03398414 5.83316877 12.27123261 3.15687958 14 0 C15.32 0 16.64 0 18 0 C18 5.61 18 11.22 18 17 C17.01 17 16.02 17 15 17 C14.67 13.7 14.34 10.4 14 7 C12.68 10.3 11.36 13.6 10 17 C9.01 17 8.02 17 7 17 C6.01 14.03 5.02 11.06 4 8 C3.67 10.97 3.34 13.94 3 17 C2.01 17 1.02 17 0 17 C0 11.39 0 5.78 0 0 Z " fill="#DCDCDD" transform="translate(14,159)"/>
<path d="M0 0 C1.65 0 3.3 0 5 0 C5.50559908 1.43554025 6.0042749 2.8735202 6.5 4.3125 C6.7784375 5.11300781 7.056875 5.91351563 7.34375 6.73828125 C8 9 8 9 8 12 C8.66 12 9.32 12 10 12 C10.103125 11.13375 10.20625 10.2675 10.3125 9.375 C11.03398414 5.83316877 12.27123261 3.15687958 14 0 C15.32 0 16.64 0 18 0 C18 5.61 18 11.22 18 17 C17.01 17 16.02 17 15 17 C14.67 13.7 14.34 10.4 14 7 C12.68 10.3 11.36 13.6 10 17 C9.01 17 8.02 17 7 17 C6.01 14.03 5.02 11.06 4 8 C3.67 10.97 3.34 13.94 3 17 C2.01 17 1.02 17 0 17 C0 11.39 0 5.78 0 0 Z " fill="#DCDCDD" transform="translate(14,113)"/>
<path d="M0 0 C1.65 0 3.3 0 5 0 C5 13.86 5 27.72 5 42 C3.35 42 1.7 42 0 42 C0 28.14 0 14.28 0 0 Z " fill="#27292E" transform="translate(354,192)"/>
<path d="M0 0 C1.65 0 3.3 0 5 0 C5 13.86 5 27.72 5 42 C3.35 42 1.7 42 0 42 C0 28.14 0 14.28 0 0 Z " fill="#27292E" transform="translate(354,146)"/>
<path d="M0 0 C1.65 0 3.3 0 5 0 C5 13.86 5 27.72 5 42 C3.35 42 1.7 42 0 42 C0 28.14 0 14.28 0 0 Z " fill="#27292E" transform="translate(354,100)"/>
<path d="M0 0 C1.65 0 3.3 0 5 0 C5 13.86 5 27.72 5 42 C3.35 42 1.7 42 0 42 C0 28.14 0 14.28 0 0 Z " fill="#27292E" transform="translate(354,54)"/>
<path d="M0 0 C1.32 0 2.64 0 4 0 C5.2684375 -0.0928125 5.2684375 -0.0928125 6.5625 -0.1875 C9 0 9 0 10.8125 1.125 C12.55957504 3.88353953 12.39203417 5.79838764 12 9 C10.8125 11.375 10.8125 11.375 9 13 C6.3125 13.25 6.3125 13.25 4 13 C3.67 14.98 3.34 16.96 3 19 C2.01 19 1.02 19 0 19 C0 12.73 0 6.46 0 0 Z " fill="#E7E8E9" transform="translate(37,25)"/>
<path d="M0 0 C4.22029703 0.09529703 4.22029703 0.09529703 6.75 2.625 C7.5625 5.4375 7.5625 5.4375 6.8125 8.1875 C5.5625 10.4375 5.5625 10.4375 4.5625 11.4375 C1.52792919 11.80624267 -1.4052682 11.83016311 -4.4375 11.4375 C-6.5625 9.75 -6.5625 9.75 -7.4375 7.4375 C-7.05568014 2.09202199 -5.320843 0.14852928 0 0 Z " fill="#003348" transform="translate(414.4375,30.5625)"/>
<path d="M0 0 C8 0 8 0 11 2 C11.375 5.5 11.375 5.5 11 9 C7.77208445 11.1519437 6.71599191 11.20086443 3 11 C3 12.98 3 14.96 3 17 C2.01 17 1.02 17 0 17 C0 11.39 0 5.78 0 0 Z " fill="#F0F0F1" transform="translate(14,205)"/>
<path d="M0 0 C4 0 8 0 12 0 C13.2684375 -0.061875 13.2684375 -0.061875 14.5625 -0.125 C17 0 17 0 19 2 C19.1953125 4.6015625 19.1953125 4.6015625 19.125 7.625 C19.10695313 8.62789062 19.08890625 9.63078125 19.0703125 10.6640625 C19.04710938 11.43492188 19.02390625 12.20578125 19 13 C18.01 13 17.02 13 16 13 C15.67 9.7 15.34 6.4 15 3 C14.01 3 13.02 3 12 3 C11.67 6.3 11.34 9.6 11 13 C10.01 13 9.02 13 8 13 C7.67 9.7 7.34 6.4 7 3 C6.01 3 5.02 3 4 3 C3.67 6.3 3.34 9.6 3 13 C2.01 13 1.02 13 0 13 C0 8.71 0 4.42 0 0 Z " fill="#EFEFF0" transform="translate(69,71)"/>
<path d="M0 0 C3.0625 0.3125 3.0625 0.3125 4.9375 1.375 C6.70523274 4.4194286 6.43073916 6.8756012 6.0625 10.3125 C5 12.3125 5 12.3125 3.0625 13.3125 C-0.5 13.1875 -0.5 13.1875 -3.9375 12.3125 C-5.9375 9.3125 -5.9375 9.3125 -5.6875 5.75 C-4.76858783 1.53831922 -4.3470067 0.46244752 0 0 Z " fill="#E7E7E8" transform="translate(95.9375,208.6875)"/>
<path d="M0 0 C3.0625 0.3125 3.0625 0.3125 4.9375 1.375 C6.70523274 4.4194286 6.43073916 6.8756012 6.0625 10.3125 C5 12.3125 5 12.3125 3.0625 13.3125 C-0.5 13.1875 -0.5 13.1875 -3.9375 12.3125 C-5.9375 9.3125 -5.9375 9.3125 -5.6875 5.75 C-4.76858783 1.53831922 -4.3470067 0.46244752 0 0 Z " fill="#E7E7E8" transform="translate(62.9375,162.6875)"/>
<path d="M0 0 C3.0625 0.3125 3.0625 0.3125 4.9375 1.375 C6.70523274 4.4194286 6.43073916 6.8756012 6.0625 10.3125 C5 12.3125 5 12.3125 3.0625 13.3125 C-0.5 13.1875 -0.5 13.1875 -3.9375 12.3125 C-5.9375 9.3125 -5.9375 9.3125 -5.6875 5.75 C-4.76858783 1.53831922 -4.3470067 0.46244752 0 0 Z " fill="#E7E7E8" transform="translate(61.9375,116.6875)"/>
<path d="M0 0 C3.0625 0.3125 3.0625 0.3125 4.9375 1.375 C6.70523274 4.4194286 6.43073916 6.8756012 6.0625 10.3125 C5 12.3125 5 12.3125 3.0625 13.3125 C-0.5 13.1875 -0.5 13.1875 -3.9375 12.3125 C-5.9375 9.3125 -5.9375 9.3125 -5.6875 5.75 C-4.76858783 1.53831922 -4.3470067 0.46244752 0 0 Z " fill="#E7E7E8" transform="translate(59.9375,70.6875)"/>
<path d="M0 0 C3.375 -0.125 3.375 -0.125 7 0 C9 2 9 2 9.1953125 4.6015625 C9.17210938 5.59929687 9.14890625 6.59703125 9.125 7.625 C9.10695313 8.62789062 9.08890625 9.63078125 9.0703125 10.6640625 C9.03550781 11.82035156 9.03550781 11.82035156 9 13 C7.54207116 13.05399736 6.08357288 13.09279177 4.625 13.125 C3.81289062 13.14820313 3.00078125 13.17140625 2.1640625 13.1953125 C0 13 0 13 -2 11 C-1.625 8.375 -1.625 8.375 -1 6 C2.465 5.505 2.465 5.505 6 5 C5.67 4.34 5.34 3.68 5 3 C3.35 3 1.7 3 0 3 C0 2.01 0 1.02 0 0 Z " fill="#EFEFF0" transform="translate(68,209)"/>
<path d="M0 0 C3.375 -0.125 3.375 -0.125 7 0 C9 2 9 2 9.1953125 4.6015625 C9.17210937 5.59929687 9.14890625 6.59703125 9.125 7.625 C9.10695313 8.62789062 9.08890625 9.63078125 9.0703125 10.6640625 C9.03550781 11.82035156 9.03550781 11.82035156 9 13 C7.54207116 13.05399736 6.08357288 13.09279177 4.625 13.125 C3.81289063 13.14820313 3.00078125 13.17140625 2.1640625 13.1953125 C0 13 0 13 -2 11 C-1.625 8.375 -1.625 8.375 -1 6 C2.465 5.505 2.465 5.505 6 5 C5.67 4.34 5.34 3.68 5 3 C3.35 3 1.7 3 0 3 C0 2.01 0 1.02 0 0 Z " fill="#EFEFF0" transform="translate(37,117)"/>
<path d="M0 0 C3.375 -0.125 3.375 -0.125 7 0 C9 2 9 2 9.1953125 4.6015625 C9.17210938 5.59929687 9.14890625 6.59703125 9.125 7.625 C9.10695313 8.62789062 9.08890625 9.63078125 9.0703125 10.6640625 C9.03550781 11.82035156 9.03550781 11.82035156 9 13 C7.54207116 13.05399736 6.08357288 13.09279177 4.625 13.125 C3.81289062 13.14820312 3.00078125 13.17140625 2.1640625 13.1953125 C0 13 0 13 -2 11 C-1.625 8.375 -1.625 8.375 -1 6 C2.465 5.505 2.465 5.505 6 5 C5.67 4.34 5.34 3.68 5 3 C3.35 3 1.7 3 0 3 C0 2.01 0 1.02 0 0 Z " fill="#EFEFF0" transform="translate(93,71)"/>
<path d="M0 0 C3.0625 0.3125 3.0625 0.3125 4.9375 1.5625 C6.0625 3.3125 6.0625 3.3125 6.0625 7.3125 C3.0925 7.3125 0.1225 7.3125 -2.9375 7.3125 C-1.9475 8.7975 -1.9475 8.7975 -0.9375 10.3125 C2.14615871 10.5627157 2.14615871 10.5627157 5.0625 10.3125 C4.7325 11.3025 4.4025 12.2925 4.0625 13.3125 C0.54346286 13.63241247 -1.35765168 13.68419764 -4.375 11.75 C-5.9375 9.3125 -5.9375 9.3125 -5.8125 5.6875 C-4.74107867 1.55487488 -4.30796133 0.45829376 0 0 Z " fill="#B4B4B6" transform="translate(33.9375,208.6875)"/>
<path d="M0 0 C3.0625 0.3125 3.0625 0.3125 4.9375 1.5625 C6.0625 3.3125 6.0625 3.3125 6.0625 7.3125 C3.0925 7.3125 0.1225 7.3125 -2.9375 7.3125 C-1.9475 8.7975 -1.9475 8.7975 -0.9375 10.3125 C2.14615871 10.5627157 2.14615871 10.5627157 5.0625 10.3125 C4.7325 11.3025 4.4025 12.2925 4.0625 13.3125 C0.54346286 13.63241247 -1.35765168 13.68419764 -4.375 11.75 C-5.9375 9.3125 -5.9375 9.3125 -5.8125 5.6875 C-4.74107867 1.55487488 -4.30796133 0.45829376 0 0 Z " fill="#BBBCC1" transform="translate(100.9375,24.6875)"/>
<path d="M0 0 C0.99 0 1.98 0 3 0 C3.33 1.65 3.66 3.3 4 5 C4.78375 4.95875 5.5675 4.9175 6.375 4.875 C9 5 9 5 11 7 C11.1953125 9.6015625 11.1953125 9.6015625 11.125 12.625 C11.10695313 13.62789062 11.08890625 14.63078125 11.0703125 15.6640625 C11.03550781 16.82035156 11.03550781 16.82035156 11 18 C10.34 18 9.68 18 9 18 C8.67 14.37 8.34 10.74 8 7 C6.68 7.33 5.36 7.66 4 8 C3.67 11.3 3.34 14.6 3 18 C2.01 18 1.02 18 0 18 C0 12.06 0 6.12 0 0 Z " fill="#F5F5F5" transform="translate(29,66)"/>
<path d="M0 0 C2.77109307 -0.05392397 5.54113818 -0.09363455 8.3125 -0.125 C9.09818359 -0.14175781 9.88386719 -0.15851562 10.69335938 -0.17578125 C11.45068359 -0.18222656 12.20800781 -0.18867188 12.98828125 -0.1953125 C13.68477783 -0.20578613 14.38127441 -0.21625977 15.09887695 -0.22705078 C17 0 17 0 20 2 C14.06 2 8.12 2 2 2 C2 3.98 2 5.96 2 8 C7.94 8 13.88 8 20 8 C18 10 18 10 16.12060547 10.22705078 C15.37697754 10.21657715 14.63334961 10.20610352 13.8671875 10.1953125 C12.65869141 10.18564453 12.65869141 10.18564453 11.42578125 10.17578125 C10.58402344 10.15902344 9.74226563 10.14226563 8.875 10.125 C7.60076172 10.11146484 7.60076172 10.11146484 6.30078125 10.09765625 C4.20040116 10.07405647 2.10016556 10.03818483 0 10 C0 6.7 0 3.4 0 0 Z " fill="#004664" transform="translate(366,23)"/>
<path d="M0 0 C0.99 0 1.98 0 3 0 C3.33 3.3 3.66 6.6 4 10 C4.99 10 5.98 10 7 10 C7.33 6.7 7.66 3.4 8 0 C8.99 0 9.98 0 11 0 C11 4.29 11 8.58 11 13 C4.1640625 13.1953125 4.1640625 13.1953125 2 13 C0 11 0 11 -0.1953125 8.3984375 C-0.17210937 7.40070312 -0.14890625 6.40296875 -0.125 5.375 C-0.10695312 4.37210938 -0.08890625 3.36921875 -0.0703125 2.3359375 C-0.04710937 1.56507812 -0.02390625 0.79421875 0 0 Z " fill="#E8E8EA" transform="translate(52,25)"/>
<path d="M0 0 C2 1 2 1 2.8515625 3.1796875 C3.10679687 4.06914062 3.36203125 4.95859375 3.625 5.875 C3.88539063 6.75929688 4.14578125 7.64359375 4.4140625 8.5546875 C5 11 5 11 5 14 C1.7 14 -1.6 14 -5 14 C-2.05357143 3.82142857 -2.05357143 3.82142857 0 0 Z " fill="#0005F4" transform="translate(350,19)"/>
<path d="M0 0 C0.66 0.33 1.32 0.66 2 1 C2 1.66 2 2.32 2 3 C-0.64 3.33 -3.28 3.66 -6 4 C-7.04214691 8.61507774 -7.04214691 8.61507774 -6 13 C-4.10466658 13.46523063 -4.10466658 13.46523063 -1.9375 13.625 C-0.638125 13.74875 0.66125 13.8725 2 14 C2 14.99 2 15.98 2 17 C-5.16883117 17.47792208 -5.16883117 17.47792208 -8.5 15.5625 C-10.73110567 11.75102781 -10.77446626 8.30698073 -10 4 C-7.30975336 -0.24231201 -4.84164806 -0.52626609 0 0 Z " fill="#F4F4F4" transform="translate(24,67)"/>
<path d="M0 0 C2.86724686 0.57344937 3.8614515 0.8614515 6 3 C6.66 2.01 7.32 1.02 8 0 C8.99 0 9.98 0 11 0 C10.649375 0.7425 10.29875 1.485 9.9375 2.25 C8.64280941 6.04775907 9.39883734 7.72694967 11.0625 11.25 C11.371875 11.8275 11.68125 12.405 12 13 C8 13 8 13 6.25 11.5 C5.8375 11.005 5.425 10.51 5 10 C4.01 11.485 4.01 11.485 3 13 C2.01 13 1.02 13 0 13 C1.875 8.25 1.875 8.25 3 6 C2.06553465 3.96855359 1.06775224 1.96466413 0 0 Z " fill="#EBEBED" transform="translate(109,25)"/>
<path d="M0 0 C4.29 0 8.58 0 13 0 C13 0.66 13 1.32 13 2 C11.35 2 9.7 2 8 2 C8 6.95 8 11.9 8 17 C7.01 17 6.02 17 5 17 C5 12.38 5 7.76 5 3 C3.35 3 1.7 3 0 3 C0 2.01 0 1.02 0 0 Z " fill="#E6E6E8" transform="translate(80,21)"/>
<path d="M0 0 C1.32 0 2.64 0 4 0 C5.299375 -0.061875 5.299375 -0.061875 6.625 -0.125 C9 0 9 0 11 2 C11.1953125 4.6015625 11.1953125 4.6015625 11.125 7.625 C11.10695313 8.62789062 11.08890625 9.63078125 11.0703125 10.6640625 C11.03550781 11.82035156 11.03550781 11.82035156 11 13 C10.34 13 9.68 13 9 13 C8.67 9.37 8.34 5.74 8 2 C6.68 2.33 5.36 2.66 4 3 C3.67 6.3 3.34 9.6 3 13 C2.01 13 1.02 13 0 13 C0 8.71 0 4.42 0 0 Z " fill="#EFEFEF" transform="translate(105,209)"/>
<path d="M0 0 C1.32 0 2.64 0 4 0 C5.299375 -0.061875 5.299375 -0.061875 6.625 -0.125 C9 0 9 0 11 2 C11.1953125 4.6015625 11.1953125 4.6015625 11.125 7.625 C11.10695313 8.62789062 11.08890625 9.63078125 11.0703125 10.6640625 C11.03550781 11.82035156 11.03550781 11.82035156 11 13 C10.34 13 9.68 13 9 13 C8.67 9.37 8.34 5.74 8 2 C6.68 2.33 5.36 2.66 4 3 C3.67 6.3 3.34 9.6 3 13 C2.01 13 1.02 13 0 13 C0 8.71 0 4.42 0 0 Z " fill="#EFEFEF" transform="translate(43,209)"/>
<path d="M0 0 C1.32 0 2.64 0 4 0 C5.299375 -0.061875 5.299375 -0.061875 6.625 -0.125 C9 0 9 0 11 2 C11.1953125 4.6015625 11.1953125 4.6015625 11.125 7.625 C11.10695313 8.62789062 11.08890625 9.63078125 11.0703125 10.6640625 C11.03550781 11.82035156 11.03550781 11.82035156 11 13 C10.34 13 9.68 13 9 13 C8.67 9.37 8.34 5.74 8 2 C6.68 2.33 5.36 2.66 4 3 C3.67 6.3 3.34 9.6 3 13 C2.01 13 1.02 13 0 13 C0 8.71 0 4.42 0 0 Z " fill="#EFEFEF" transform="translate(43,163)"/>
<path d="M0 0 C1.32 0 2.64 0 4 0 C5.299375 -0.061875 5.299375 -0.061875 6.625 -0.125 C9 0 9 0 11 2 C11.1953125 4.6015625 11.1953125 4.6015625 11.125 7.625 C11.10695313 8.62789062 11.08890625 9.63078125 11.0703125 10.6640625 C11.03550781 11.82035156 11.03550781 11.82035156 11 13 C10.34 13 9.68 13 9 13 C8.67 9.37 8.34 5.74 8 2 C6.68 2.33 5.36 2.66 4 3 C3.67 6.3 3.34 9.6 3 13 C2.01 13 1.02 13 0 13 C0 8.71 0 4.42 0 0 Z " fill="#F0F1F2" transform="translate(21,25)"/>
<path d="M0 0 C1.670625 0.061875 1.670625 0.061875 3.375 0.125 C3.375 1.115 3.375 2.105 3.375 3.125 C1.395 3.455 -0.585 3.785 -2.625 4.125 C-2.625 5.775 -2.625 7.425 -2.625 9.125 C-0.54946352 9.6784764 1.21865964 10.125 3.375 10.125 C3.045 11.115 2.715 12.105 2.375 13.125 C-3.02932346 13.60538431 -3.02932346 13.60538431 -5.5625 11.5625 C-7.07140049 8.10090475 -6.4951627 5.73952199 -5.625 2.125 C-3.625 0.125 -3.625 0.125 0 0 Z " fill="#E7E8E8" transform="translate(132.625,208.875)"/>
<path d="M0 0 C1.670625 0.061875 1.670625 0.061875 3.375 0.125 C3.375 1.115 3.375 2.105 3.375 3.125 C1.395 3.455 -0.585 3.785 -2.625 4.125 C-2.625 5.775 -2.625 7.425 -2.625 9.125 C-0.54946352 9.6784764 1.21865964 10.125 3.375 10.125 C3.045 11.115 2.715 12.105 2.375 13.125 C-3.02932346 13.60538431 -3.02932346 13.60538431 -5.5625 11.5625 C-7.07140049 8.10090475 -6.4951627 5.73952199 -5.625 2.125 C-3.625 0.125 -3.625 0.125 0 0 Z " fill="#E7E8E8" transform="translate(127.625,70.875)"/>
<path d="M0 0 C0.66 0 1.32 0 2 0 C2 0.99 2 1.98 2 3 C3.32 3 4.64 3 6 3 C6 3.66 6 4.32 6 5 C4.68 5 3.36 5 2 5 C2.33 7.64 2.66 10.28 3 13 C3.99 13.33 4.98 13.66 6 14 C6 14.66 6 15.32 6 16 C3.625 16.125 3.625 16.125 1 16 C-1 14 -1 14 -1.1953125 11.8359375 C-1.17210938 11.02382812 -1.14890625 10.21171875 -1.125 9.375 C-1.10695313 8.55773437 -1.08890625 7.74046875 -1.0703125 6.8984375 C-1.04710938 6.27195313 -1.02390625 5.64546875 -1 5 C-1.66 4.67 -2.32 4.34 -3 4 C-1.625 2 -1.625 2 0 0 Z " fill="#EBEBEC" transform="translate(82,206)"/>
<path d="M0 0 C0.66 0 1.32 0 2 0 C2 0.99 2 1.98 2 3 C3.32 3 4.64 3 6 3 C6 3.66 6 4.32 6 5 C4.68 5 3.36 5 2 5 C2.33 7.64 2.66 10.28 3 13 C3.99 13.33 4.98 13.66 6 14 C6 14.66 6 15.32 6 16 C3.625 16.125 3.625 16.125 1 16 C-1 14 -1 14 -1.1953125 11.8359375 C-1.17210937 11.02382812 -1.14890625 10.21171875 -1.125 9.375 C-1.10695312 8.55773437 -1.08890625 7.74046875 -1.0703125 6.8984375 C-1.04710937 6.27195313 -1.02390625 5.64546875 -1 5 C-1.66 4.67 -2.32 4.34 -3 4 C-1.625 2 -1.625 2 0 0 Z " fill="#EBEBEC" transform="translate(59,206)"/>
<path d="M0 0 C0.66 0 1.32 0 2 0 C2 0.99 2 1.98 2 3 C3.32 3 4.64 3 6 3 C6 3.66 6 4.32 6 5 C4.68 5 3.36 5 2 5 C2.33 7.64 2.66 10.28 3 13 C3.99 13.33 4.98 13.66 6 14 C6 14.66 6 15.32 6 16 C3.625 16.125 3.625 16.125 1 16 C-1 14 -1 14 -1.1953125 11.8359375 C-1.17210938 11.02382812 -1.14890625 10.21171875 -1.125 9.375 C-1.10695313 8.55773437 -1.08890625 7.74046875 -1.0703125 6.8984375 C-1.04710938 6.27195312 -1.02390625 5.64546875 -1 5 C-1.66 4.67 -2.32 4.34 -3 4 C-1.625 2 -1.625 2 0 0 Z " fill="#EBEBEC" transform="translate(107,68)"/>
<path d="M0 0 C0.66 0 1.32 0 2 0 C2.66 3.3 3.32 6.6 4 10 C4.99 10.33 5.98 10.66 7 11 C7 11.66 7 12.32 7 13 C6.01 13 5.02 13 4 13 C3.67 14.98 3.34 16.96 3 19 C2.01 19 1.02 19 0 19 C0 12.73 0 6.46 0 0 Z " fill="#F3F3F4" transform="translate(37,25)"/>
<path d="M0 0 C0.66 0 1.32 0 2 0 C2 0.99 2 1.98 2 3 C3.32 3 4.64 3 6 3 C6 3.66 6 4.32 6 5 C4.68 5 3.36 5 2 5 C2.33 7.64 2.66 10.28 3 13 C3.99 13.33 4.98 13.66 6 14 C6 14.66 6 15.32 6 16 C3.625 16.125 3.625 16.125 1 16 C-1 14 -1 14 -1.1953125 11.8359375 C-1.17210938 11.02382813 -1.14890625 10.21171875 -1.125 9.375 C-1.10695313 8.55773438 -1.08890625 7.74046875 -1.0703125 6.8984375 C-1.04710938 6.27195312 -1.02390625 5.64546875 -1 5 C-1.66 4.67 -2.32 4.34 -3 4 C-1.625 2 -1.625 2 0 0 Z " fill="#EDEDEF" transform="translate(68,22)"/>
<path d="M0 0 C0.66 0 1.32 0 2 0 C2 0.99 2 1.98 2 3 C3.32 3 4.64 3 6 3 C6 3.66 6 4.32 6 5 C4.68 5 3.36 5 2 5 C2.33 7.64 2.66 10.28 3 13 C3.99 13.33 4.98 13.66 6 14 C6 14.66 6 15.32 6 16 C3.625 16.125 3.625 16.125 1 16 C-1.54283506 13.45716494 -1.43103635 12.09455338 -1.75 8.5625 C-1.84796875 7.59441406 -1.9459375 6.62632813 -2.046875 5.62890625 C-2 3 -2 3 0 0 Z " fill="#EEEEF0" transform="translate(124,22)"/>
<path d="M0 0 C0.99 0 1.98 0 3 0 C3.05380578 2.79192205 3.09357669 5.5828141 3.125 8.375 C3.15013672 9.56609375 3.15013672 9.56609375 3.17578125 10.78125 C3.19335473 12.85492015 3.10335168 14.92883241 3 17 C2.34 17.66 1.68 18.32 1 19 C-0.32 19 -1.64 19 -3 19 C-3 18.34 -3 17.68 -3 17 C-2.34 16.67 -1.68 16.34 -1 16 C-0.68758545 13.28553021 -0.48663408 10.66090639 -0.375 7.9375 C-0.33632813 7.17888672 -0.29765625 6.42027344 -0.2578125 5.63867188 C-0.16326438 3.75952805 -0.08053244 1.87979664 0 0 Z " fill="#E9EAEA" transform="translate(50,117)"/>
<path d="M0 0 C0.99 0 1.98 0 3 0 C3 5.61 3 11.22 3 17 C2.01 17 1.02 17 0 17 C0 11.39 0 5.78 0 0 Z " fill="#EEEFF0" transform="translate(14,21)"/>
<path d="M0 0 C3.875 1.75 3.875 1.75 5 4 C5.06950541 5.54023996 5.08452357 7.08334988 5.0625 8.625 C5.05347656 9.44226562 5.04445313 10.25953125 5.03515625 11.1015625 C5.02355469 11.72804688 5.01195312 12.35453125 5 13 C5.99 13 6.98 13 8 13 C7.67 16.3 7.34 19.6 7 23 C6.67 23 6.34 23 6 23 C5.62875 21.14375 5.62875 21.14375 5.25 19.25 C4.14182365 14.19896431 2.5112068 9.38056541 0.8046875 4.50390625 C0 2 0 2 0 0 Z " fill="#0006F1" transform="translate(418,16)"/>
<path d="M0 0 C0.33 0.66 0.66 1.32 1 2 C2.98 2 4.96 2 7 2 C6.67 2.66 6.34 3.32 6 4 C4.35 4 2.7 4 1 4 C1.99 5.485 1.99 5.485 3 7 C6.08365871 7.2502157 6.08365871 7.2502157 9 7 C8.67 7.99 8.34 8.98 8 10 C4.42236811 10.32523926 2.60457419 10.42956587 -0.375 8.3125 C-2.27258004 5.61209763 -2.35882213 4.22939919 -2 1 C-1.34 0.67 -0.68 0.34 0 0 Z " fill="#EDEDEE" transform="translate(30,212)"/>
<path d="M0 0 C0.66 0 1.32 0 2 0 C2 0.66 2 1.32 2 2 C2.99 1.34 3.98 0.68 5 0 C5.99 0 6.98 0 8 0 C8 0.99 8 1.98 8 3 C6.68 3.33 5.36 3.66 4 4 C3.67 6.97 3.34 9.94 3 13 C2.01 13 1.02 13 0 13 C0 8.71 0 4.42 0 0 Z " fill="#ECECEC" transform="translate(73,163)"/>
<path d="M0 0 C0.66 0 1.32 0 2 0 C2 0.66 2 1.32 2 2 C2.99 1.34 3.98 0.68 5 0 C5.99 0 6.98 0 8 0 C8 0.99 8 1.98 8 3 C6.68 3.33 5.36 3.66 4 4 C3.67 6.97 3.34 9.94 3 13 C2.01 13 1.02 13 0 13 C0 8.71 0 4.42 0 0 Z " fill="#ECECEC" transform="translate(71,117)"/>
<path d="M0 0 C0.66 0 1.32 0 2 0 C2 0.66 2 1.32 2 2 C2.99 1.34 3.98 0.68 5 0 C5.99 0 6.98 0 8 0 C8 0.99 8 1.98 8 3 C6.68 3.33 5.36 3.66 4 4 C3.67 6.97 3.34 9.94 3 13 C2.01 13 1.02 13 0 13 C0 8.71 0 4.42 0 0 Z " fill="#ECECEC" transform="translate(44,71)"/>
<path d="M0 0 C0.33 0.66 0.66 1.32 1 2 C2.98 2 4.96 2 7 2 C6.67 2.66 6.34 3.32 6 4 C4.35 4 2.7 4 1 4 C1.99 5.485 1.99 5.485 3 7 C6.08365871 7.2502157 6.08365871 7.2502157 9 7 C8.67 7.99 8.34 8.98 8 10 C4.42236811 10.32523926 2.60457419 10.42956587 -0.375 8.3125 C-2.27258004 5.61209763 -2.35882213 4.22939919 -2 1 C-1.34 0.67 -0.68 0.34 0 0 Z " fill="#EFEFF0" transform="translate(97,28)"/>
<path d="M0 0 C2.125 0.375 2.125 0.375 4 1 C4 3.31 4 5.62 4 8 C2.125 8.625 2.125 8.625 0 9 C-2 7 -2 7 -2.25 4.5 C-2 2 -2 2 0 0 Z " fill="#36383C" transform="translate(95,211)"/>
<path d="M0 0 C2.125 0.375 2.125 0.375 4 1 C4 3.31 4 5.62 4 8 C2.125 8.625 2.125 8.625 0 9 C-2 7 -2 7 -2.25 4.5 C-2 2 -2 2 0 0 Z " fill="#36383C" transform="translate(62,165)"/>
<path d="M0 0 C2.125 0.375 2.125 0.375 4 1 C4 3.31 4 5.62 4 8 C2.125 8.625 2.125 8.625 0 9 C-2 7 -2 7 -2.25 4.5 C-2 2 -2 2 0 0 Z " fill="#36383C" transform="translate(61,119)"/>
<path d="M0 0 C2.125 0.375 2.125 0.375 4 1 C4 3.31 4 5.62 4 8 C2.125 8.625 2.125 8.625 0 9 C-2 7 -2 7 -2.25 4.5 C-2 2 -2 2 0 0 Z " fill="#36383C" transform="translate(59,73)"/>
<path d="M0 0 C3.69230769 0.69230769 3.69230769 0.69230769 5 2 C5.1875 4.4375 5.1875 4.4375 5 7 C4.34 7.66 3.68 8.32 3 9 C0.875 8.625 0.875 8.625 -1 8 C-1.04241723 5.66705225 -1.04092937 3.33297433 -1 1 C-0.67 0.67 -0.34 0.34 0 0 Z " fill="#4C515E" transform="translate(41,27)"/>
<path d="M0 0 C0.33 0 0.66 0 1 0 C1.33 1.65 1.66 3.3 2 5 C2.78375 4.95875 3.5675 4.9175 4.375 4.875 C7 5 7 5 9 7 C9.1953125 9.6015625 9.1953125 9.6015625 9.125 12.625 C9.10695313 13.62789062 9.08890625 14.63078125 9.0703125 15.6640625 C9.03550781 16.82035156 9.03550781 16.82035156 9 18 C8.34 18 7.68 18 7 18 C6.67 14.37 6.34 10.74 6 7 C4.02 7 2.04 7 0 7 C0 4.69 0 2.38 0 0 Z " fill="#EDEDEE" transform="translate(31,66)"/>
<path d="M0 0 C1.32 0 2.64 0 4 0 C4 5.61 4 11.22 4 17 C3.34 17 2.68 17 2 17 C2 12.38 2 7.76 2 3 C1.34 3 0.68 3 0 3 C0 2.01 0 1.02 0 0 Z " fill="#F2F2F2" transform="translate(28,159)"/>
<path d="M0 0 C1.32 0 2.64 0 4 0 C4 5.61 4 11.22 4 17 C3.34 17 2.68 17 2 17 C2 12.38 2 7.76 2 3 C1.34 3 0.68 3 0 3 C0 2.01 0 1.02 0 0 Z " fill="#F2F2F2" transform="translate(28,113)"/>
<path d="M0 0 C0.99 0 1.98 0 3 0 C3 4.29 3 8.58 3 13 C2.01 13 1.02 13 0 13 C0 8.71 0 4.42 0 0 Z " fill="#EBEBEB" transform="translate(121,209)"/>
<path d="M0 0 C0.99 0 1.98 0 3 0 C3 4.29 3 8.58 3 13 C2.01 13 1.02 13 0 13 C0 8.71 0 4.42 0 0 Z " fill="#EBEBEB" transform="translate(36,163)"/>
<path d="M0 0 C0.99 0 1.98 0 3 0 C3 4.29 3 8.58 3 13 C2.01 13 1.02 13 0 13 C0 8.71 0 4.42 0 0 Z " fill="#EBEBEB" transform="translate(116,71)"/>
<path d="M0 0 C2.475 0.495 2.475 0.495 5 1 C5.625 2.875 5.625 2.875 6 5 C5.34 5.66 4.68 6.32 4 7 C2.68 7 1.36 7 0 7 C0 4.69 0 2.38 0 0 Z " fill="#424448" transform="translate(17,207)"/>
<path d="M0 0 C3.375 -0.1875 3.375 -0.1875 7 0 C7.66 0.99 8.32 1.98 9 3 C8.01 4.485 8.01 4.485 7 6 C3.875 6.1875 3.875 6.1875 1 6 C1 5.67 1 5.34 1 5 C2.65 5 4.3 5 6 5 C5.67 4.34 5.34 3.68 5 3 C3.35 3 1.7 3 0 3 C0 2.01 0 1.02 0 0 Z " fill="#D7D7D8" transform="translate(68,209)"/>
<path d="M0 0 C3.375 -0.1875 3.375 -0.1875 7 0 C7.66 0.99 8.32 1.98 9 3 C8.01 4.485 8.01 4.485 7 6 C3.875 6.1875 3.875 6.1875 1 6 C1 5.67 1 5.34 1 5 C2.65 5 4.3 5 6 5 C5.67 4.34 5.34 3.68 5 3 C3.35 3 1.7 3 0 3 C0 2.01 0 1.02 0 0 Z " fill="#D7D7D8" transform="translate(37,117)"/>
<path d="M0 0 C3.375 -0.1875 3.375 -0.1875 7 0 C7.66 0.99 8.32 1.98 9 3 C8.01 4.485 8.01 4.485 7 6 C3.875 6.1875 3.875 6.1875 1 6 C1 5.67 1 5.34 1 5 C2.65 5 4.3 5 6 5 C5.67 4.34 5.34 3.68 5 3 C3.35 3 1.7 3 0 3 C0 2.01 0 1.02 0 0 Z " fill="#D7D7D8" transform="translate(93,71)"/>
<path d="M0 0 C2.475 0.495 2.475 0.495 5 1 C5 4.63 5 8.26 5 12 C4.34 12 3.68 12 3 12 C2.92652344 10.82630859 2.92652344 10.82630859 2.8515625 9.62890625 C2.77679688 8.61699219 2.70203125 7.60507813 2.625 6.5625 C2.55539063 5.55316406 2.48578125 4.54382813 2.4140625 3.50390625 C2.27742188 2.67761719 2.14078125 1.85132813 2 1 C1.34 0.67 0.68 0.34 0 0 Z " fill="#FCFCFC" transform="translate(111,210)"/>
<path d="M0 0 C2.475 0.495 2.475 0.495 5 1 C5 4.63 5 8.26 5 12 C4.34 12 3.68 12 3 12 C2.92652344 10.82630859 2.92652344 10.82630859 2.8515625 9.62890625 C2.77679688 8.61699219 2.70203125 7.60507813 2.625 6.5625 C2.55539063 5.55316406 2.48578125 4.54382813 2.4140625 3.50390625 C2.27742188 2.67761719 2.14078125 1.85132813 2 1 C1.34 0.67 0.68 0.34 0 0 Z " fill="#FCFCFC" transform="translate(49,210)"/>
<path d="M0 0 C2.475 0.495 2.475 0.495 5 1 C5 4.63 5 8.26 5 12 C4.34 12 3.68 12 3 12 C2.92652344 10.82630859 2.92652344 10.82630859 2.8515625 9.62890625 C2.77679688 8.61699219 2.70203125 7.60507813 2.625 6.5625 C2.55539063 5.55316406 2.48578125 4.54382813 2.4140625 3.50390625 C2.27742188 2.67761719 2.14078125 1.85132813 2 1 C1.34 0.67 0.68 0.34 0 0 Z " fill="#FCFCFC" transform="translate(49,164)"/>
<path d="M0 0 C2.475 0.495 2.475 0.495 5 1 C5 4.63 5 8.26 5 12 C4.34 12 3.68 12 3 12 C2.92652344 10.82630859 2.92652344 10.82630859 2.8515625 9.62890625 C2.77679687 8.61699219 2.70203125 7.60507812 2.625 6.5625 C2.55539063 5.55316406 2.48578125 4.54382813 2.4140625 3.50390625 C2.27742188 2.67761719 2.14078125 1.85132812 2 1 C1.34 0.67 0.68 0.34 0 0 Z " fill="#FCFCFD" transform="translate(27,26)"/>
<path d="M0 0 C2.31 0 4.62 0 7 0 C7 0.99 7 1.98 7 3 C2.545 3.495 2.545 3.495 -2 4 C-1.34 2.68 -0.68 1.36 0 0 Z " fill="#D0D0D1" transform="translate(129,209)"/>
<path d="M0 0 C2.31 0 4.62 0 7 0 C7 0.99 7 1.98 7 3 C2.545 3.495 2.545 3.495 -2 4 C-1.34 2.68 -0.68 1.36 0 0 Z " fill="#D0D0D1" transform="translate(124,71)"/>
<path d="M0 0 C2.31 0 4.62 0 7 0 C7 0.99 7 1.98 7 3 C4.36 3 1.72 3 -1 3 C-0.67 2.01 -0.34 1.02 0 0 Z " fill="#CACBCC" transform="translate(19,81)"/>
<path d="M0 0 C1 3 1 3 0.0625 5.1875 C-0.4634375 6.0846875 -0.4634375 6.0846875 -1 7 C-1.99 7 -2.98 7 -4 7 C-4 5.68 -4 4.36 -4 3 C-3.01 3 -2.02 3 -1 3 C-0.67 2.01 -0.34 1.02 0 0 Z " fill="#F0F0F1" transform="translate(25,169)"/>
<path d="M0 0 C1 3 1 3 0.0625 5.1875 C-0.4634375 6.0846875 -0.4634375 6.0846875 -1 7 C-1.99 7 -2.98 7 -4 7 C-4 5.68 -4 4.36 -4 3 C-3.01 3 -2.02 3 -1 3 C-0.67 2.01 -0.34 1.02 0 0 Z " fill="#F0F0F1" transform="translate(25,123)"/>
<path d="M0 0 C1.32 0 2.64 0 4 0 C3.67 1.32 3.34 2.64 3 4 C1.68 4 0.36 4 -1 4 C-0.67 2.68 -0.34 1.36 0 0 Z " fill="#33353A" transform="translate(70,216)"/>
<path d="M0 0 C1.32 0 2.64 0 4 0 C3.67 1.32 3.34 2.64 3 4 C1.68 4 0.36 4 -1 4 C-0.67 2.68 -0.34 1.36 0 0 Z " fill="#33353A" transform="translate(39,124)"/>
<path d="M0 0 C1.32 0 2.64 0 4 0 C3.67 1.32 3.34 2.64 3 4 C1.68 4 0.36 4 -1 4 C-0.67 2.68 -0.34 1.36 0 0 Z " fill="#33353A" transform="translate(95,78)"/>
<path d="M0 0 C5.75 -0.125 5.75 -0.125 8 1 C8 1.66 8 2.32 8 3 C6.02 3 4.04 3 2 3 C2 2.34 2 1.68 2 1 C1.34 0.67 0.68 0.34 0 0 Z " fill="#D7D7D8" transform="translate(18,67)"/>
</svg>
