<?xml version="1.0" encoding="UTF-8"?>
<svg version="1.1" xmlns="http://www.w3.org/2000/svg" width="130" height="130">
<path d="M0 0 C42.9 0 85.8 0 130 0 C130 42.9 130 85.8 130 130 C87.1 130 44.2 130 0 130 C0 87.1 0 44.2 0 0 Z " fill="#141414" transform="translate(0,0)"/>
<path d="M0 0 C42.9 0 85.8 0 130 0 C130 42.9 130 85.8 130 130 C87.1 130 44.2 130 0 130 C0 87.1 0 44.2 0 0 Z M4 5 C4 44.6 4 84.2 4 125 C43.93 125 83.86 125 125 125 C125 85.4 125 45.8 125 5 C85.07 5 45.14 5 4 5 Z " fill="#272727" transform="translate(0,0)"/>
</svg>
