<?xml version="1.0" encoding="UTF-8"?>
<svg version="1.1" xmlns="http://www.w3.org/2000/svg" width="172" height="64">
<path d="M0 0 C4.43660798 0.49375401 8.22312651 2.3278243 12.19921875 4.23828125 C12.87547806 4.56032028 13.55173737 4.88235931 14.24848938 5.2141571 C15.67111228 5.89451785 17.0922478 6.57799647 18.51196289 7.2644043 C20.68487745 8.31123655 22.86637291 9.3384711 25.04882812 10.36523438 C26.43285969 11.03006881 27.81634307 11.69604588 29.19921875 12.36328125 C29.85129807 12.66760574 30.50337738 12.97193024 31.17521667 13.28547668 C33.9304111 14.63847661 35.74921512 15.60803316 37.42504883 18.22729492 C37.61478271 18.8122876 37.8045166 19.39728027 38 20 C31.61277199 24.21048613 24.96550514 27.65783553 18.08056641 30.98632812 C16.23391144 31.8828104 14.39647617 32.79663125 12.55859375 33.7109375 C11.38941406 34.278125 10.22023437 34.8453125 9.015625 35.4296875 C7.42669434 36.20675049 7.42669434 36.20675049 5.80566406 36.99951172 C2.91501435 38.03030553 1.79316171 38.13624408 -1 37 C-1 34.69 -1 32.38 -1 30 C-2.49164673 30.00785522 -2.49164673 30.00785522 -4.01342773 30.01586914 C-7.69033921 30.03392041 -11.36724675 30.04543246 -15.04418945 30.05493164 C-16.63794614 30.05997157 -18.23169819 30.0668035 -19.82543945 30.07543945 C-22.11150253 30.08751999 -24.39750467 30.09323155 -26.68359375 30.09765625 C-27.40026718 30.10281754 -28.11694061 30.10797882 -28.85533142 30.11329651 C-30.57063672 30.11349263 -32.28581266 30.06192007 -34 30 C-35.58937556 28.41062444 -35.12981143 26.76100154 -35.1328125 24.5625 C-35.13410156 23.66789062 -35.13539062 22.77328125 -35.13671875 21.8515625 C-35.13091797 20.44003906 -35.13091797 20.44003906 -35.125 19 C-35.12886719 18.05898438 -35.13273437 17.11796875 -35.13671875 16.1484375 C-35.13542969 15.25382812 -35.13414063 14.35921875 -35.1328125 13.4375 C-35.13112061 12.19806641 -35.13112061 12.19806641 -35.12939453 10.93359375 C-35 9 -35 9 -34 8 C-31.55169574 7.91156207 -29.13179401 7.88471248 -26.68359375 7.90234375 C-25.95253922 7.9037587 -25.22148468 7.90517365 -24.46827698 7.90663147 C-22.12464368 7.91224592 -19.78110461 7.92480078 -17.4375 7.9375 C-15.85221492 7.94251314 -14.26692834 7.94707637 -12.68164062 7.95117188 C-8.7877239 7.96222003 -4.89387795 7.97949428 -1 8 C-1.020625 6.865625 -1.04125 5.73125 -1.0625 4.5625 C-1 1 -1 1 0 0 Z " fill="#004A6A" transform="translate(92,12)"/>
<path d="M0 0 C0.76183594 -0.00515625 1.52367188 -0.0103125 2.30859375 -0.015625 C4.9239762 0.29260032 6.35198749 0.8086727 8.5625 2.25 C9.77156067 4.50691223 9.77156067 4.50691223 10.77661133 7.35473633 C11.15993118 8.41956741 11.54325104 9.4843985 11.93818665 10.58149719 C12.33628036 11.73667343 12.73437408 12.89184967 13.14453125 14.08203125 C13.77218636 15.85787849 13.77218636 15.85787849 14.41252136 17.66960144 C15.29454289 20.17671283 16.17045286 22.68505178 17.03686523 25.19750977 C18.14612149 28.41197504 19.27916367 31.61741821 20.42000294 34.82079029 C21.50715464 37.88274125 22.57510485 40.95135318 23.64453125 44.01953125 C24.05274612 45.1686348 24.460961 46.31773834 24.88154602 47.50166321 C25.24910507 48.57595078 25.61666412 49.65023834 25.99536133 50.75708008 C26.32305008 51.69924881 26.65073883 52.64141754 26.98835754 53.61213684 C27.62133951 56.52033459 27.35117531 58.40537916 26.5625 61.25 C20.60546875 61.54296875 20.60546875 61.54296875 18.5625 61.25 C15.5625 58.25 15.5625 58.25 12.5625 47.25 C4.3125 47.25 -3.9375 47.25 -12.4375 47.25 C-13.4275 51.21 -14.4175 55.17 -15.4375 59.25 C-18.89412331 61.55441554 -20.38607881 61.50860135 -24.4375 61.25 C-25.0975 60.92 -25.7575 60.59 -26.4375 60.25 C-25.01492184 53.19362942 -22.97827719 46.52208765 -20.62890625 39.72265625 C-20.2615184 38.65252792 -19.89413055 37.5823996 -19.51560974 36.47984314 C-18.74245204 34.23426975 -17.96661636 31.98961678 -17.18823242 29.74584961 C-15.99650088 26.30238944 -14.82123534 22.85358132 -13.64648438 19.40429688 C-12.89162361 17.21840489 -12.13579832 15.0328457 -11.37890625 12.84765625 C-11.02880997 11.81439713 -10.67871368 10.781138 -10.31800842 9.71656799 C-9.98433762 8.76475143 -9.65066681 7.81293488 -9.30688477 6.83227539 C-9.01757584 5.99338272 -8.72826691 5.15449005 -8.43019104 4.29017639 C-6.55605407 0.43845432 -3.9324164 -0.02652557 0 0 Z M-0.4375 11.25 C-2.93109585 17.1705488 -5.14614602 23.16109594 -7.1875 29.25 C-7.52140747 30.23818726 -7.52140747 30.23818726 -7.86206055 31.24633789 C-9.04336186 34.67468102 -9.04336186 34.67468102 -9.4375 38.25 C-3.1675 38.25 3.1025 38.25 9.5625 38.25 C7.88700749 31.81258142 6.05388484 25.45054041 4 19.125 C3.79028564 18.46169678 3.58057129 17.79839355 3.36450195 17.11499023 C2.82226483 15.47286589 2.19860028 13.85809511 1.5625 12.25 C0.9025 11.92 0.2425 11.59 -0.4375 11.25 Z " fill="#004A6A" transform="translate(27.4375,1.75)"/>
<path d="M0 0 C7.69223177 -1.00881728 11.36241107 1.00853806 17.51953125 5.56640625 C21.89551696 9.85969617 24.18296367 13.52237527 24.390625 19.62109375 C24.36440559 21.22703264 24.31724152 22.83275524 24.25 24.4375 C24.23195312 25.26443359 24.21390625 26.09136719 24.1953125 26.94335938 C24.1486214 28.96274933 24.07689393 30.98153445 24 33 C22.0625 33.5625 22.0625 33.5625 20 34 C17.75194611 31.75194611 18.64583656 25.63257712 18.5703125 22.43359375 C18.38106418 17.86797805 18.09556296 14.5923817 15 11 C13.81735275 10.24896402 12.60850449 9.53817128 11.38134766 8.86230469 C10.26550293 8.24774414 9.1496582 7.63318359 8 7 C9.52831606 11.46629959 11.05831383 15.93201824 12.58984375 20.3972168 C13.11015857 21.91496349 13.63002092 23.43286538 14.14941406 24.95092773 C14.89788596 27.13827232 15.64800614 29.32504576 16.3984375 31.51171875 C16.6287265 32.18587326 16.8590155 32.86002777 17.09628296 33.55461121 C18.04681708 36.3200683 19.02152572 39.05184654 20.14306641 41.75317383 C21.79715143 46.09008108 21.4252137 49.81885085 19.875 54.125 C16.40719927 59.44229446 12.2071308 62.63443122 6 64 C0.14143076 64.47246526 -4.85839419 64.04255849 -10 61 C-14.28948855 57.06409185 -16.74367367 53.66579383 -17.3125 47.75 C-16.87762862 42.53154345 -15.16146365 38.94581879 -11.31640625 35.484375 C-6.98695176 32.24426712 -3.44756982 30.85372043 2 30.875 C2.99 30.87113281 2.99 30.87113281 4 30.8671875 C6.10259306 31.00681282 7.96599295 31.46660284 10 32 C9.69707031 31.06615479 9.39414063 30.13230957 9.08203125 29.17016602 C7.96239792 25.71735312 6.84467491 22.2639244 5.72753906 18.81030273 C5.24303752 17.31338808 4.75801256 15.81664273 4.27246094 14.32006836 C3.57610798 12.17345379 2.88161717 10.02624465 2.1875 7.87890625 C1.85939331 6.86951744 1.85939331 6.86951744 1.5246582 5.83973694 C0 1.11387171 0 1.11387171 0 0 Z " fill="#004A6A" transform="translate(148,0)"/>
<path d="M0 0 C5.56664924 1.66086912 10.65786353 4.11071736 15.875 6.625 C16.75414062 7.04523437 17.63328125 7.46546875 18.5390625 7.8984375 C20.69422878 8.9291692 22.84779922 9.96309426 25 11 C25 11.66 25 12.32 25 13 C21.21135025 14.83961674 17.41860225 16.67062072 13.625 18.5 C12.54476562 19.02464844 11.46453125 19.54929687 10.3515625 20.08984375 C9.3203125 20.58613281 8.2890625 21.08242188 7.2265625 21.59375 C6.27346191 22.05458984 5.32036133 22.51542969 4.33837891 22.99023438 C2 24 2 24 0 24 C-0.33 22.35 -0.66 20.7 -1 19 C-11.89 18.67 -22.78 18.34 -34 18 C-34 14.04 -34 10.08 -34 6 C-23.11 5.67 -12.22 5.34 -1 5 C-0.67 3.35 -0.34 1.7 0 0 Z " fill="#003348" transform="translate(96,19)"/>
<path d="M0 0 C3.98334978 2.6864452 5.23655324 5.26639683 6.5625 9.8125 C6.71701539 13.52086939 5.95740947 14.9164086 3.6875 17.8125 C-0.35724399 21.35165099 -3.8774765 22.10428799 -9.25 22.03515625 C-13.12598319 21.61672625 -15.93893365 19.71242278 -19.125 17.625 C-21.12271041 14.57586306 -21.52830387 11.37326384 -21.3125 7.8125 C-19.54762061 4.07095569 -17.9705513 2.26117134 -14.5625 -0.0625 C-9.28907746 -1.88791549 -5.25527655 -1.88396706 0 0 Z " fill="#003348" transform="translate(157.3125,37.1875)"/>
</svg>
